<svg version="1.2" xmlns="http://www.w3.org/2000/svg" viewBox="0 0 611 314" width="611" height="314"><defs><linearGradient id="P" gradientUnits="userSpaceOnUse"/><linearGradient id="g1" x2="1" href="#P" gradientTransform="matrix(8.872,226.244,-586.796,23.011,298.464,82.351)"><stop stop-color="#f5f0ff"/><stop offset="1" stop-color="#d2c1f7"/></linearGradient><linearGradient id="g2" x2="1" href="#P" gradientTransform="matrix(-25.137,174.814,-260.918,-37.518,158.762,147.262)"><stop stop-color="#263681"/><stop offset="1" stop-color="#1a1248"/></linearGradient><linearGradient id="g3" x2="1" href="#P" gradientTransform="matrix(-24.066,167.369,-252.658,-36.33,158.351,150.354)"><stop offset="0" stop-color="#fff"/><stop offset="1" stop-color="#f5f0ff"/></linearGradient><linearGradient id="g4" x2="1" href="#P" gradientTransform="matrix(0,8,-187.957,0,186.052,298.393)"><stop stop-color="#263681"/><stop offset="1" stop-color="#1a1248"/></linearGradient><linearGradient id="g5" x2="1" href="#P" gradientTransform="matrix(25.137,174.814,-260.918,37.518,444.916,147.262)"><stop stop-color="#263681"/><stop offset="1" stop-color="#1a1248"/></linearGradient><linearGradient id="g6" x2="1" href="#P" gradientTransform="matrix(24.066,167.369,-252.658,36.33,445.327,150.354)"><stop offset="0" stop-color="#fff"/><stop offset="1" stop-color="#f5f0ff"/></linearGradient><linearGradient id="g7" x2="1" href="#P" gradientTransform="matrix(0,8,-178.421,0,433.101,298.393)"><stop stop-color="#263681"/><stop offset="1" stop-color="#1a1248"/></linearGradient><clipPath clipPathUnits="userSpaceOnUse" id="cp1"><path d="m75.2 293.09h453.81l50.03-231.84-558.81-12.65z"/></clipPath><linearGradient id="g8" x2="1" href="#P" gradientTransform="matrix(2.608,99.096,-94.151,2.478,496.361,203.815)"><stop stop-color="#9571cb"/><stop offset="1" stop-color="#6237c0"/></linearGradient><linearGradient id="g9" x2="1" href="#P" gradientTransform="matrix(1.69,64.232,-33.528,.882,532.353,230.829)"><stop stop-color="#faad1e"/><stop offset="1" stop-color="#f2830b"/></linearGradient><linearGradient id="g10" x2="1" href="#P" gradientTransform="matrix(-17.308,59.323,-59.323,-17.308,513.098,208.849)"><stop stop-color="#ffe14d"/><stop offset="1" stop-color="#f7a523"/></linearGradient><linearGradient id="g11" x2="1" href="#P" gradientTransform="matrix(-14.553,49.88,-49.88,-14.553,511.034,215.924)"><stop stop-color="#faad1e"/><stop offset="1" stop-color="#f2830b"/></linearGradient><clipPath clipPathUnits="userSpaceOnUse" id="cp2"><path d="m75.2 293.09h453.81l50.03-231.84-558.81-12.65z"/></clipPath><linearGradient id="g12" x2="1" href="#P" gradientTransform="matrix(1.474,55.996,-54.019,1.422,140.03,241.795)"><stop stop-color="#263681"/><stop offset="1" stop-color="#1a1248"/></linearGradient><linearGradient id="g13" x2="1" href="#P" gradientTransform="matrix(.74,28.121,-21.427,.564,141.007,220.43)"><stop stop-color="#26357f"/><stop offset="1" stop-color="#6237c0"/></linearGradient><linearGradient id="g14" x2="1" href="#P" gradientTransform="matrix(1.474,55.996,-54.019,1.422,95.399,252.478)"><stop stop-color="#9571cb"/><stop offset="1" stop-color="#6237c0"/></linearGradient><linearGradient id="g15" x2="1" href="#P" gradientTransform="matrix(.74,28.121,-21.427,.564,96.376,231.113)"><stop stop-color="#9571cb"/><stop offset="1" stop-color="#6237c0"/></linearGradient><linearGradient id="g16" x2="1" href="#P" gradientTransform="matrix(15.767,18.724,-70.359,59.25,331.407,163.431)"><stop stop-color="#ffc085"/><stop offset="1" stop-color="#fa976e"/></linearGradient><linearGradient id="g17" x2="1" href="#P" gradientTransform="matrix(7.459,-61.327,45.273,5.506,398.32,306.116)"><stop stop-color="#9571cb"/><stop offset="1" stop-color="#6237c0"/></linearGradient><linearGradient id="g18" x2="1" href="#P" gradientTransform="matrix(45.737,0,0,102.564,423.949,224.786)"><stop stop-color="#ffc085"/><stop offset="1" stop-color="#fa976e"/></linearGradient><linearGradient id="g19" x2="1" href="#P" gradientTransform="matrix(2.275,118.277,-104.341,2.007,405.913,118.84)"><stop stop-color="#faad1e"/><stop offset="1" stop-color="#f2830b"/></linearGradient><linearGradient id="g20" x2="1" href="#P" gradientTransform="matrix(-2.301,17.872,-16.22,-2.088,411.895,110.808)"><stop stop-color="#ffc085"/><stop offset="1" stop-color="#fa976e"/></linearGradient><linearGradient id="g21" x2="1" href="#P" gradientTransform="matrix(7.18,-3.304,3.719,8.081,390.061,83.33)"><stop stop-color="#263681"/><stop offset="1" stop-color="#1a1248"/></linearGradient><linearGradient id="g22" x2="1" href="#P" gradientTransform="matrix(.491,36.068,-24.51,.334,409.359,75.316)"><stop stop-color="#ffc085"/><stop offset="1" stop-color="#fa976e"/></linearGradient><linearGradient id="g23" x2="1" href="#P" gradientTransform="matrix(7.257,55.668,-41.871,5.459,407.434,65.741)"><stop stop-color="#263681"/><stop offset="1" stop-color="#1a1248"/></linearGradient><linearGradient id="g24" x2="1" href="#P" gradientTransform="matrix(7.257,55.669,-47.33,6.17,398.5,66.905)"><stop stop-color="#263681"/><stop offset="1" stop-color="#1a1248"/></linearGradient><linearGradient id="g25" x2="1" href="#P" gradientTransform="matrix(7.599,16.773,-15.615,7.074,275.745,197.723)"><stop stop-color="#ffc085"/><stop offset="1" stop-color="#fa976e"/></linearGradient><linearGradient id="g26" x2="1" href="#P" gradientTransform="matrix(15.767,18.724,-17.455,14.699,287.443,200.453)"><stop stop-color="#ffc085"/><stop offset="1" stop-color="#fa976e"/></linearGradient><linearGradient id="g27" x2="1" href="#P" gradientTransform="matrix(-3.124,.243,-0.224,-2.884,278.025,216.177)"><stop stop-color="#ffc085"/><stop offset="1" stop-color="#fa976e"/></linearGradient><linearGradient id="g28" x2="1" href="#P" gradientTransform="matrix(-9.013,.7,-0.539,-6.936,287.646,219.853)"><stop stop-color="#ffc085"/><stop offset="1" stop-color="#fa976e"/></linearGradient><linearGradient id="g29" x2="1" href="#P" gradientTransform="matrix(-34.807,99.449,-52.082,-18.229,174.055,82.166)"><stop stop-color="#263681"/><stop offset="1" stop-color="#1a1248"/></linearGradient><linearGradient id="g30" x2="1" href="#P" gradientTransform="matrix(-34.087,0,0,-67.626,202.929,112.847)"><stop stop-color="#263681"/><stop offset="1" stop-color="#1a1248"/></linearGradient><linearGradient id="g31" x2="1" href="#P" gradientTransform="matrix(1.194,-15.645,14.643,1.118,173.229,137.445)"><stop stop-color="#ffc085"/><stop offset="1" stop-color="#fa976e"/></linearGradient><linearGradient id="g32" x2="1" href="#P" gradientTransform="matrix(8.057,-0.848,3.335,31.68,151.382,201.027)"><stop stop-color="#9571cb"/><stop offset="1" stop-color="#6237c0"/></linearGradient><linearGradient id="g33" x2="1" href="#P" gradientTransform="matrix(-12.717,6.712,-6.397,-12.12,170.059,400.575)"><stop stop-color="#ffc085"/><stop offset="1" stop-color="#fa976e"/></linearGradient><linearGradient id="g34" x2="1" href="#P" gradientTransform="matrix(-11.404,6.019,-6.744,-12.777,234.871,399.875)"><stop stop-color="#ffc085"/><stop offset="1" stop-color="#fa976e"/></linearGradient><linearGradient id="g35" x2="1" href="#P" gradientTransform="matrix(41.199,0,0,18.37,148.906,419.112)"><stop stop-color="#263681"/><stop offset="1" stop-color="#1a1248"/></linearGradient><linearGradient id="g36" x2="1" href="#P" gradientTransform="matrix(-41.151,0,0,-4.344,190.104,426.124)"><stop stop-color="#faad1e"/><stop offset="1" stop-color="#f2830b"/></linearGradient><linearGradient id="g37" x2="1" href="#P" gradientTransform="matrix(41.199,0,0,18.37,215.132,419.112)"><stop stop-color="#263681"/><stop offset="1" stop-color="#1a1248"/></linearGradient><linearGradient id="g38" x2="1" href="#P" gradientTransform="matrix(-41.151,0,0,-4.344,256.331,426.124)"><stop stop-color="#faad1e"/><stop offset="1" stop-color="#f2830b"/></linearGradient><linearGradient id="g39" x2="1" href="#P" gradientTransform="matrix(-9.824,102.643,-57.558,-5.509,183.947,122.192)"><stop stop-color="#9571cb"/><stop offset="1" stop-color="#6237c0"/></linearGradient><linearGradient id="g40" x2="1" href="#P" gradientTransform="matrix(-105.343,55.598,-84.609,-160.312,269.961,272.173)"><stop stop-color="#faad1e"/><stop offset="1" stop-color="#f2830b"/></linearGradient><linearGradient id="g41" x2="1" href="#P" gradientTransform="matrix(-14.68,7.748,-5.499,-10.419,172.977,393.159)"><stop stop-color="#faad1e"/><stop offset="1" stop-color="#f2830b"/></linearGradient><linearGradient id="g42" x2="1" href="#P" gradientTransform="matrix(-12.947,10.388,-7.372,-9.188,233.948,388.664)"><stop stop-color="#faad1e"/><stop offset="1" stop-color="#f2830b"/></linearGradient><linearGradient id="g43" x2="1" href="#P" gradientTransform="matrix(111.696,0,0,61.77,159.404,179.677)"><stop stop-color="#9571cb"/><stop offset="1" stop-color="#6237c0"/></linearGradient><linearGradient id="g44" x2="1" href="#P" gradientTransform="matrix(-21.007,26.715,-38.501,-30.275,183.473,92.364)"><stop stop-color="#ffc085"/><stop offset="1" stop-color="#fa976e"/></linearGradient><linearGradient id="g45" x2="1" href="#P" gradientTransform="matrix(-35.508,101.453,-59.711,-20.899,170.356,79.274)"><stop stop-color="#263681"/><stop offset="1" stop-color="#1a1248"/></linearGradient><linearGradient id="g46" x2="1" href="#P" gradientTransform="matrix(-16.259,55.728,-55.728,-16.259,94.94,130.342)"><stop stop-color="#ffe14d"/><stop offset="1" stop-color="#f7a523"/></linearGradient><linearGradient id="g47" x2="1" href="#P" gradientTransform="matrix(-13.671,46.858,-46.858,-13.671,93.001,136.988)"><stop stop-color="#faad1e"/><stop offset="1" stop-color="#f2830b"/></linearGradient><linearGradient id="g48" x2="1" href="#P" gradientTransform="matrix(-16.521,56.625,-56.625,-16.521,498.205,68.662)"><stop stop-color="#ffe14d"/><stop offset="1" stop-color="#f7a523"/></linearGradient><linearGradient id="g49" x2="1" href="#P" gradientTransform="matrix(-13.891,47.612,-47.612,-13.891,496.235,75.415)"><stop stop-color="#faad1e"/><stop offset="1" stop-color="#f2830b"/></linearGradient></defs><style>tspan{white-space:pre}.a{fill:#fff}.b{fill:url(#g1)}.c{fill:#50448c}.d{fill:url(#g2)}.e{fill:url(#g3)}.f{fill:url(#g4)}.g{fill:url(#g5)}.h{fill:url(#g6)}.i{fill:url(#g7)}.j{font-size: 72px;fill: #754cc4;font-weight: bold;font-family: "' Montserrat"}.k{fill:url(#g8)}.l{fill:url(#g9)}.m{fill:url(#g10)}.n{fill:url(#g11)}.o{font-size: 31px;fill: #ffc431;font-weight: bold;font-family: "' Montserrat"}.p{fill:url(#g12)}.q{fill:url(#g13)}.r{fill:url(#g14)}.s{fill:url(#g15)}.t{fill:url(#g16)}.u{fill:url(#g17)}.v{fill:url(#g18)}.w{fill:#e07e58}.x{fill:url(#g19)}.y{fill:#c16810}.z{fill:url(#g20)}.A{fill:url(#g21)}.B{fill:url(#g22)}.C{fill:url(#g23)}.D{fill:url(#g24)}.E{fill:#f4eeff}.F{fill:url(#g25)}.G{fill:url(#g26)}.H{fill:url(#g27)}.I{fill:url(#g28)}.J{fill:url(#g29)}.K{fill:url(#g30)}.L{fill:url(#g31)}.M{fill:url(#g32)}.N{fill:url(#g33)}.O{fill:url(#g34)}.P{fill:url(#g35)}.Q{fill:url(#g36)}.R{fill:url(#g37)}.S{fill:url(#g38)}.T{fill:url(#g39)}.U{fill:url(#g40)}.V{fill:#9e86e0}.W{fill:url(#g41)}.X{fill:url(#g42)}.Y{fill:url(#g43)}.Z{fill:url(#g44)}.a0{fill:url(#g45)}.a1{fill:url(#g46)}.a2{fill:url(#g47)}.a3{font-size: 29px;fill: #ffc431;font-weight: bold;font-family: "' Montserrat"}.a4{fill:url(#g48)}.a5{fill:url(#g49)}.a6{font-size: 30px;fill: #ffc431;font-weight: bold;font-family: "' Montserrat"}</style><path fill-rule="evenodd" class="a" d="m-69-89h750v500h-750z"/><path fill-rule="evenodd" class="b" d="m83.1 306.6h-74.5v-39.1h16.9v-64l20.9-4.8h14v-56.8h28.1v10.4h4.8v-56h10v63.6h9.4 111.4v15h35.3v101.2h10.4v-101.2h30.9v59.7h26.1v22.7h18.2v-106.8h23.4v50.9h24.4l20.7-44.8h64.4l23.3 7.3v-47.8h27.8v43.8h17.9v41.5h23.9v35.6l32.6 5.4v64.2z"/><path class="c" d="m71.2 252.9q0 0-0.1 0-2.6-0.2-5.3-0.9c-0.3-0.1-0.5-0.4-0.5-0.8 0.1-0.3 0.5-0.6 0.8-0.5q2.6 0.7 5.2 0.9c0.3 0 0.6 0.4 0.6 0.7-0.1 0.4-0.3 0.6-0.7 0.6zm-12.7-3.6q-0.1 0-0.3 0-2.4-1.2-4.7-2.7c-0.3-0.1-0.4-0.6-0.2-0.9 0.2-0.3 0.6-0.4 0.9-0.2q2.3 1.5 4.6 2.6c0.3 0.1 0.5 0.5 0.3 0.9-0.1 0.2-0.3 0.3-0.6 0.3zm-10.9-7.4q-0.3 0-0.5-0.2-1.9-1.8-3.7-3.8c-0.3-0.3-0.2-0.7 0-0.9 0.3-0.3 0.7-0.3 1 0q1.7 2 3.6 3.8c0.3 0.2 0.3 0.6 0.1 0.9q-0.2 0.2-0.5 0.2zm-8.5-10.1c-0.2 0-0.5-0.1-0.6-0.3q-1.4-2.2-2.7-4.6c-0.2-0.4 0-0.8 0.3-0.9 0.3-0.2 0.7-0.1 0.9 0.2q1.2 2.4 2.6 4.6c0.2 0.3 0.1 0.7-0.2 0.9q-0.1 0.1-0.3 0.1zm-6-11.8c-0.3 0-0.5-0.2-0.6-0.4q-1-2.5-1.8-5.1c-0.1-0.3 0.1-0.7 0.4-0.8 0.4-0.1 0.7 0.1 0.8 0.4q0.9 2.6 1.8 5c0.1 0.3 0 0.7-0.4 0.8q-0.1 0.1-0.2 0.1zm-3.9-12.7c-0.3 0-0.6-0.2-0.6-0.5q-0.2-0.9-0.4-1.7-0.4-1.8-0.7-3.5c0-0.4 0.2-0.8 0.6-0.8 0.3-0.1 0.7 0.2 0.7 0.5q0.3 1.8 0.7 3.5 0.2 0.8 0.4 1.7c0 0.3-0.2 0.7-0.5 0.8q-0.1 0-0.2 0zm-2-13.1c-0.4 0-0.7-0.3-0.7-0.6q-0.2-2.7-0.2-5.3c0-0.4 0.2-0.7 0.6-0.7q0 0 0 0c0.4 0 0.7 0.3 0.7 0.6q0 2.6 0.2 5.3c0.1 0.4-0.2 0.7-0.6 0.7q0 0 0 0zm0.1-13.2q0 0-0.1 0c-0.3-0.1-0.6-0.4-0.5-0.8q0.3-2.7 0.8-5.3c0.1-0.3 0.4-0.6 0.8-0.5 0.4 0.1 0.6 0.5 0.5 0.8q-0.5 2.5-0.8 5.2c-0.1 0.3-0.4 0.6-0.7 0.6zm48.2-4.9c-0.4 0-0.7 0-1.1 0-0.4 0-0.6-0.4-0.6-0.7 0-0.4 0.3-0.7 0.7-0.6 0.3 0 0.7 0 1 0q2.1 0 3.9-0.7c0.4-0.1 0.8 0.1 0.9 0.4 0.1 0.4-0.1 0.7-0.4 0.9q-2.1 0.7-4.4 0.7zm-8.5-2.6q-0.2 0-0.4-0.1-1.1-0.8-2.1-1.7-1-1-1.9-2.1c-0.2-0.2-0.1-0.7 0.1-0.9 0.3-0.2 0.7-0.2 1 0.1q0.8 1 1.7 1.9 0.9 0.9 2 1.6c0.3 0.2 0.4 0.6 0.2 0.9-0.2 0.2-0.4 0.3-0.6 0.3zm18.5-3.2q-0.2 0-0.3-0.1c-0.4-0.2-0.5-0.6-0.3-0.9q1.1-2.2 1.3-4.8c0-0.4 0.3-0.7 0.7-0.7 0.3 0.1 0.6 0.4 0.6 0.7q-0.2 3-1.4 5.4c-0.2 0.2-0.4 0.4-0.6 0.4zm-55.1-2.2q-0.1 0-0.2 0c-0.4-0.2-0.5-0.6-0.4-0.9q1-2.5 2.2-4.9c0.2-0.3 0.6-0.4 0.9-0.3 0.3 0.2 0.5 0.6 0.3 0.9q-1.2 2.3-2.2 4.8c-0.1 0.2-0.3 0.4-0.6 0.4zm29-5.2c-0.3 0-0.5-0.2-0.6-0.4q-0.8-2.5-1.4-5.3c0-0.3 0.2-0.7 0.6-0.7 0.3-0.1 0.7 0.1 0.7 0.5q0.5 2.7 1.3 5c0.2 0.4 0 0.8-0.4 0.9q-0.1 0-0.2 0zm26.2-5.5c-0.3 0-0.5-0.2-0.6-0.5q-1-2.4-2.5-4.4c-0.2-0.3-0.1-0.7 0.2-1 0.2-0.2 0.7-0.1 0.9 0.2q1.6 2.1 2.6 4.8c0.1 0.3 0 0.7-0.4 0.8q-0.1 0.1-0.2 0.1zm-48.7-0.8q-0.2 0-0.4-0.1c-0.3-0.2-0.3-0.7-0.1-0.9q1.7-2.2 3.7-4c0.2-0.3 0.6-0.3 0.9 0 0.2 0.2 0.2 0.7 0 0.9q-1.9 1.8-3.5 3.9c-0.2 0.1-0.4 0.2-0.6 0.2zm20.5-6.7c-0.4 0-0.7-0.3-0.7-0.7v-0.6q0-2.3 0.2-4.8c0-0.3 0.4-0.6 0.7-0.6 0.4 0.1 0.7 0.4 0.6 0.8q-0.2 2.3-0.2 4.6v0.6c0 0.4-0.3 0.7-0.6 0.7q0 0 0 0zm-10.6-2c-0.2 0-0.4-0.1-0.6-0.3-0.1-0.4 0-0.8 0.3-1q1.5-0.9 3.1-1.6 0.9-0.4 1.7-0.7c0.4-0.2 0.8 0 0.9 0.3 0.1 0.4-0.1 0.8-0.4 0.9q-0.8 0.3-1.6 0.7-1.6 0.7-3 1.6-0.2 0.1-0.4 0.1zm30.3-0.4q-0.2 0-0.3-0.1-2.2-1.3-4.7-2.2c-0.3-0.2-0.5-0.5-0.4-0.9 0.2-0.3 0.5-0.5 0.9-0.4q2.6 0.9 4.9 2.4c0.3 0.1 0.4 0.6 0.2 0.9-0.1 0.2-0.4 0.3-0.6 0.3zm-17.8-3.8c-0.4 0-0.6-0.3-0.7-0.6 0-0.4 0.3-0.7 0.6-0.7q2.7-0.3 5.4-0.1c0.4 0 0.7 0.3 0.6 0.7 0 0.3-0.3 0.6-0.7 0.6q-2.6-0.2-5.1 0.1-0.1 0-0.1 0zm-0.4-7q-0.1 0-0.2 0c-0.3-0.1-0.5-0.4-0.4-0.8q0.6-2.6 1.5-5.1c0.1-0.4 0.5-0.6 0.8-0.4 0.4 0.1 0.6 0.5 0.4 0.8q-0.8 2.5-1.5 5c0 0.3-0.3 0.5-0.6 0.5zm4.6-12.4q-0.1 0-0.3 0c-0.3-0.2-0.4-0.6-0.3-0.9q1.2-2.4 2.7-4.7c0.1-0.3 0.6-0.4 0.9-0.2 0.3 0.2 0.4 0.6 0.2 0.9q-1.4 2.2-2.6 4.6c-0.1 0.2-0.3 0.3-0.6 0.3zm7.2-11.1q-0.2 0-0.4-0.1c-0.3-0.3-0.3-0.7-0.1-1q1.7-2.1 3.5-4c0.3-0.3 0.7-0.3 0.9 0 0.3 0.2 0.3 0.6 0.1 0.9q-1.8 1.9-3.5 4-0.2 0.2-0.5 0.2zm9.3-9.4q-0.3 0-0.5-0.3c-0.3-0.3-0.2-0.7 0.1-0.9q2-1.7 4.2-3.2c0.3-0.3 0.7-0.2 1 0.1 0.2 0.3 0.1 0.7-0.2 0.9q-2.2 1.5-4.2 3.2-0.2 0.2-0.4 0.2zm11-7.4c-0.2 0-0.5-0.1-0.6-0.3-0.1-0.3 0-0.7 0.3-0.9q2.4-1.2 4.8-2.3c0.4-0.1 0.8 0 0.9 0.3 0.2 0.4 0 0.8-0.3 0.9q-2.5 1.1-4.8 2.3-0.1 0-0.3 0zm67.7-2.6q-0.1 0-0.2 0-1.6-0.6-3.2-1.1c-0.3-0.1-0.5-0.5-0.4-0.8 0.1-0.4 0.5-0.6 0.8-0.5q1.6 0.6 3.3 1.2c0.3 0.1 0.5 0.5 0.4 0.8-0.1 0.3-0.4 0.4-0.7 0.4zm-55.4-2.3c-0.3 0-0.6-0.2-0.7-0.5-0.1-0.4 0.1-0.7 0.5-0.8q2.5-0.8 5.2-1.4c0.3-0.1 0.7 0.1 0.8 0.5 0 0.4-0.2 0.7-0.5 0.8q-2.6 0.6-5.1 1.3-0.1 0.1-0.2 0.1zm44.6-0.9q-0.1 0-0.2 0-2.6-0.6-5.2-1.1c-0.3 0-0.6-0.4-0.5-0.7 0.1-0.4 0.4-0.6 0.8-0.6q2.6 0.5 5.2 1.1c0.4 0.1 0.6 0.4 0.5 0.8-0.1 0.3-0.3 0.5-0.6 0.5zm-31.7-1.9c-0.3 0-0.6-0.2-0.6-0.5-0.1-0.4 0.2-0.7 0.6-0.8q2.6-0.3 5.3-0.5c0.4 0 0.7 0.3 0.7 0.7 0 0.3-0.3 0.6-0.6 0.7q-2.7 0.1-5.3 0.4 0 0-0.1 0zm18.6-0.2q-0.1 0-0.1 0-2.6-0.3-5.2-0.3c-0.4-0.1-0.7-0.4-0.7-0.7 0-0.4 0.4-0.7 0.7-0.7q2.7 0.1 5.3 0.4c0.4 0 0.7 0.3 0.6 0.7 0 0.3-0.3 0.6-0.6 0.6z"/><path class="c" d="m173.9 117.5c-0.3 0-0.6-0.3-0.6-0.6q-0.5-2.6-0.8-5.3c0-0.4 0.3-0.7 0.6-0.7 0.4-0.1 0.7 0.2 0.8 0.6q0.2 2.6 0.7 5.2c0 0.3-0.2 0.7-0.6 0.7q0 0.1-0.1 0.1zm-0.9-13.3q0 0 0 0c-0.4 0-0.7-0.3-0.7-0.6q0.1-2.7 0.4-5.4c0.1-0.3 0.4-0.6 0.8-0.6 0.3 0.1 0.6 0.4 0.5 0.8q-0.3 2.6-0.3 5.2c-0.1 0.4-0.4 0.6-0.7 0.6zm1.7-13.1q0 0-0.1 0c-0.4-0.1-0.6-0.4-0.5-0.8q0.6-2.6 1.4-5.2c0.1-0.3 0.5-0.5 0.8-0.4 0.4 0.1 0.6 0.5 0.5 0.8q-0.8 2.6-1.4 5.1c-0.1 0.3-0.4 0.5-0.7 0.5zm233.6-6.2c-0.3 0-0.6-0.2-0.7-0.5q-0.4-2.6-1-5.2c-0.1-0.3 0.1-0.7 0.5-0.8 0.3-0.1 0.7 0.2 0.8 0.5q0.6 2.6 1.1 5.3c0 0.3-0.2 0.7-0.6 0.7q0 0-0.1 0zm-229.4-6.4q-0.2 0-0.3 0c-0.3-0.2-0.5-0.5-0.4-0.9q1.1-2.4 2.3-4.8c0.2-0.4 0.6-0.5 0.9-0.3 0.3 0.1 0.4 0.5 0.3 0.9q-1.2 2.3-2.2 4.7c-0.1 0.3-0.4 0.4-0.6 0.4zm225.9-6.3c-0.3 0-0.5-0.2-0.6-0.5q-1-2.4-2.1-4.8c-0.2-0.3-0.1-0.7 0.3-0.9 0.3-0.1 0.7 0 0.8 0.4q1.2 2.4 2.2 4.9c0.1 0.3 0 0.7-0.4 0.8q-0.1 0.1-0.2 0.1zm-219.8-5.4q-0.2 0-0.4-0.1c-0.3-0.2-0.4-0.6-0.2-0.9q1.4-2.3 3-4.5c0.2-0.3 0.6-0.3 0.9-0.1 0.3 0.2 0.4 0.6 0.2 0.9q-1.6 2.2-3 4.4c-0.1 0.2-0.3 0.3-0.5 0.3zm213.8-6.4c-0.2 0-0.4-0.2-0.6-0.4q-1.4-2.2-2.9-4.3c-0.2-0.3-0.2-0.7 0.1-0.9 0.3-0.3 0.7-0.2 1 0.1q1.5 2.2 3 4.4c0.2 0.3 0.1 0.8-0.3 0.9q-0.1 0.2-0.3 0.2zm-206-4.3q-0.2 0-0.4-0.2c-0.3-0.2-0.3-0.6-0.1-0.9q1.7-2 3.6-4c0.2-0.2 0.6-0.2 0.9 0 0.3 0.3 0.3 0.7 0 0.9q-1.8 2-3.5 4-0.2 0.2-0.5 0.2zm198-6.3q-0.3 0-0.5-0.3-1.7-1.9-3.6-3.8c-0.3-0.2-0.3-0.6 0-0.9 0.2-0.3 0.7-0.3 0.9 0q1.9 1.9 3.7 3.9c0.3 0.2 0.2 0.7 0 0.9q-0.2 0.2-0.5 0.2zm-188.7-3.2q-0.3 0-0.5-0.2c-0.3-0.3-0.2-0.7 0.1-0.9q2-1.8 4.1-3.4c0.3-0.3 0.7-0.2 0.9 0.1 0.2 0.3 0.2 0.7-0.1 0.9q-2.1 1.6-4.1 3.4-0.2 0.1-0.4 0.1zm179.2-6q-0.3 0-0.5-0.2-2-1.6-4.1-3.2c-0.3-0.2-0.4-0.6-0.2-0.9 0.2-0.3 0.6-0.4 0.9-0.1q2.2 1.5 4.3 3.2c0.3 0.3 0.3 0.7 0.1 1q-0.2 0.2-0.5 0.2zm-168.7-2c-0.2 0-0.4-0.1-0.5-0.3-0.2-0.3-0.1-0.7 0.2-0.9q2.2-1.4 4.5-2.8c0.3-0.2 0.7-0.1 0.9 0.2 0.2 0.3 0.1 0.7-0.2 0.9q-2.3 1.4-4.5 2.8-0.2 0.1-0.4 0.1zm157.8-5.6q-0.2 0-0.3-0.1-1.4-0.8-2.8-1.6-0.9-0.5-1.8-1c-0.4-0.1-0.5-0.5-0.3-0.8 0.1-0.4 0.5-0.5 0.9-0.3q0.9 0.4 1.8 0.9 1.4 0.8 2.8 1.7c0.4 0.1 0.5 0.5 0.3 0.9-0.1 0.2-0.4 0.3-0.6 0.3zm-146.3-1c-0.2 0-0.4-0.1-0.5-0.3-0.2-0.4-0.1-0.8 0.3-0.9q2.3-1.2 4.8-2.3c0.3-0.1 0.7 0 0.9 0.4 0.1 0.3 0 0.7-0.4 0.8q-2.4 1.1-4.8 2.3-0.1 0-0.3 0zm134.5-5q-0.2 0-0.3 0-2.4-1-4.9-1.9c-0.3-0.2-0.5-0.6-0.4-0.9 0.1-0.3 0.5-0.5 0.9-0.4q2.5 0.9 4.9 2c0.4 0.1 0.5 0.5 0.4 0.8-0.1 0.3-0.4 0.4-0.6 0.4zm-122.3-0.2c-0.2 0-0.5-0.2-0.6-0.4-0.1-0.4 0-0.8 0.4-0.9q2.5-0.9 5-1.7c0.4-0.1 0.8 0.1 0.9 0.4 0.1 0.3-0.1 0.7-0.5 0.8q-2.5 0.9-4.9 1.8-0.2 0-0.3 0zm12.7-4c-0.3 0-0.6-0.2-0.7-0.5-0.1-0.3 0.1-0.7 0.5-0.8q2.5-0.7 5.2-1.3c0.3 0 0.7 0.2 0.8 0.5 0 0.4-0.2 0.7-0.5 0.8q-2.7 0.6-5.2 1.3-0.1 0-0.1 0zm97.1-0.2q-0.1 0-0.2 0-2.5-0.8-5.1-1.4c-0.4-0.1-0.6-0.4-0.5-0.8 0.1-0.4 0.5-0.6 0.8-0.5q2.6 0.7 5.2 1.4c0.3 0.1 0.5 0.5 0.4 0.8-0.1 0.3-0.3 0.5-0.6 0.5zm-84.2-2.6c-0.3 0-0.6-0.3-0.6-0.6-0.1-0.4 0.1-0.7 0.5-0.8q2.6-0.4 5.2-0.8c0.4-0.1 0.7 0.2 0.8 0.5 0.1 0.4-0.2 0.7-0.6 0.8q-2.6 0.4-5.2 0.8 0 0.1-0.1 0.1zm71.3-0.5q-0.1 0-0.1 0-2.6-0.4-5.3-0.8c-0.3-0.1-0.6-0.4-0.5-0.8 0-0.4 0.4-0.6 0.7-0.5q2.7 0.4 5.3 0.8c0.4 0.1 0.6 0.4 0.5 0.8 0 0.3-0.3 0.5-0.6 0.5zm-58.2-1.4c-0.3 0-0.6-0.3-0.6-0.6-0.1-0.4 0.2-0.7 0.6-0.8q2.6-0.3 5.3-0.5c0.3 0 0.6 0.3 0.7 0.6 0 0.4-0.3 0.7-0.6 0.7q-2.7 0.3-5.3 0.6 0 0-0.1 0zm45.1-0.4q-0.1 0-0.1 0-2.6-0.3-5.3-0.5c-0.3 0-0.6-0.3-0.6-0.7 0-0.3 0.4-0.6 0.7-0.6q2.7 0.2 5.3 0.5c0.4 0 0.6 0.3 0.6 0.7 0 0.3-0.3 0.6-0.6 0.6zm-31.8-0.7c-0.4 0-0.7-0.2-0.7-0.6 0-0.4 0.3-0.7 0.6-0.7q2.7-0.1 5.3-0.2c0.4 0 0.7 0.3 0.7 0.6 0 0.4-0.3 0.7-0.6 0.7q-2.7 0.1-5.3 0.2 0 0 0 0zm18.5-0.2q0 0 0 0-2.6 0-5.3-0.1c-0.4 0-0.7-0.3-0.7-0.6 0.1-0.4 0.3-0.7 0.7-0.7q0 0 0 0 2.7 0 5.3 0.1c0.4 0 0.7 0.3 0.7 0.7 0 0.4-0.3 0.6-0.7 0.6z"/><path class="c" d="m530.9 191.8q0 0-0.1 0c-0.4-0.1-0.6-0.5-0.5-0.8q0.2-0.9 0.4-1.8c0-0.3 0.4-0.5 0.7-0.5 0.4 0.1 0.6 0.4 0.6 0.8q-0.2 0.9-0.4 1.8c-0.1 0.3-0.3 0.5-0.7 0.5zm1.5-9.6q0 0-0.1 0c-0.3-0.1-0.6-0.4-0.6-0.8q0.3-2.6 0.3-5.2c0-0.4 0.3-0.7 0.7-0.7q0 0 0 0c0.3 0 0.6 0.3 0.6 0.7q0 2.7-0.2 5.4c-0.1 0.3-0.4 0.6-0.7 0.6zm-0.1-13.3c-0.3 0-0.6-0.2-0.6-0.6q-0.3-2.6-0.7-5.2c-0.1-0.3 0.2-0.7 0.5-0.8 0.4 0 0.7 0.2 0.8 0.6q0.4 2.6 0.7 5.3c0 0.4-0.2 0.7-0.6 0.7q0 0-0.1 0zm-83.5-4q0 0 0 0-3-0.2-5.4-1c-0.3-0.1-0.5-0.5-0.4-0.9 0.1-0.3 0.5-0.5 0.9-0.4q2.2 0.8 5 1c0.3 0 0.6 0.3 0.6 0.7 0 0.3-0.3 0.6-0.7 0.6zm8-0.6c-0.4 0-0.6-0.2-0.7-0.6-0.1-0.3 0.2-0.7 0.5-0.7q2.6-0.5 5.1-1.2c0.4-0.1 0.8 0.1 0.9 0.4 0.1 0.4-0.1 0.7-0.5 0.8q-2.6 0.8-5.2 1.3-0.1 0-0.1 0zm12.5-4.1c-0.2 0-0.4-0.1-0.6-0.4-0.1-0.3 0-0.7 0.4-0.8q2.3-1.2 4.6-2.5c0.3-0.2 0.7-0.1 0.9 0.2 0.2 0.3 0.1 0.7-0.2 0.9q-2.4 1.4-4.8 2.6-0.1 0-0.3 0zm-31.6-1.3c-0.2 0-0.5-0.1-0.6-0.3q-1.2-2.4-1.3-5.4c-0.1-0.4 0.2-0.7 0.6-0.7 0.4 0 0.7 0.3 0.7 0.6q0.2 2.8 1.2 4.9c0.2 0.3 0 0.7-0.3 0.9q-0.1 0-0.3 0zm92.1-3c-0.3 0-0.5-0.2-0.6-0.5q-0.8-2.5-1.7-4.9c-0.2-0.4 0-0.7 0.4-0.9 0.3-0.1 0.7 0.1 0.8 0.4q1 2.5 1.8 5.1c0.1 0.3-0.1 0.7-0.5 0.8q-0.1 0-0.2 0zm-49.4-2.9q-0.2 0-0.5-0.2c-0.2-0.3-0.2-0.7 0.1-0.9q2-1.7 3.8-3.6c0.3-0.3 0.7-0.3 1 0 0.2 0.2 0.2 0.6 0 0.9q-1.9 1.9-3.9 3.7-0.2 0.1-0.5 0.1zm-43-7q-0.1 0-0.1-0.1c-0.4-0.1-0.6-0.4-0.5-0.8q0.7-2.6 1.8-5.1c0.2-0.3 0.6-0.5 0.9-0.3 0.3 0.1 0.5 0.5 0.3 0.9q-1 2.4-1.7 4.9c-0.1 0.3-0.4 0.5-0.7 0.5zm87.3-2.3c-0.2 0-0.4-0.1-0.6-0.3q-1.1-2.1-2.4-4l-0.3-0.5c-0.2-0.3-0.1-0.7 0.2-0.9 0.3-0.2 0.7-0.1 0.9 0.2l0.3 0.5q1.3 1.9 2.5 4c0.2 0.3 0.1 0.7-0.3 0.9q-0.1 0.1-0.3 0.1zm-35.4-0.4q-0.2 0-0.3-0.2c-0.3-0.2-0.4-0.6-0.2-0.9q1.5-2.1 2.8-4.4c0.2-0.3 0.6-0.5 0.9-0.3 0.3 0.2 0.4 0.6 0.2 0.9q-1.3 2.4-2.8 4.6c-0.1 0.2-0.3 0.3-0.6 0.3zm-46.1-9.2q-0.3 0-0.4-0.2c-0.3-0.2-0.4-0.6-0.2-0.9q1.6-2.2 3.4-4.2c0.3-0.2 0.7-0.2 0.9 0 0.3 0.2 0.3 0.7 0.1 0.9q-1.8 2-3.3 4.1c-0.1 0.2-0.3 0.3-0.5 0.3zm73.8-1.1q-0.3 0-0.5-0.2-1.8-2-3.7-3.7c-0.3-0.3-0.3-0.7-0.1-1 0.3-0.2 0.7-0.3 1 0q2 1.8 3.8 3.8c0.2 0.2 0.2 0.6-0.1 0.9q-0.2 0.2-0.4 0.2zm-21.5-1.4q-0.1 0-0.2-0.1c-0.3-0.1-0.5-0.5-0.4-0.8q1-2.5 1.7-5c0.1-0.4 0.4-0.6 0.8-0.5 0.3 0.1 0.6 0.5 0.5 0.8q-0.8 2.6-1.7 5.1c-0.1 0.3-0.4 0.5-0.7 0.5zm-43.1-7c-0.2 0-0.4-0.1-0.5-0.2-0.3-0.3-0.2-0.8 0.1-1q2.1-1.6 4.5-3c0.3-0.1 0.7 0 0.9 0.3 0.1 0.3 0 0.7-0.3 0.9q-2.2 1.3-4.3 2.9-0.2 0.1-0.4 0.1zm54.5-0.2q-0.2 0-0.3-0.2-2.2-1.4-4.5-2.6c-0.3-0.2-0.5-0.6-0.3-0.9 0.2-0.4 0.6-0.5 0.9-0.3q2.4 1.2 4.6 2.7c0.3 0.3 0.4 0.7 0.2 1-0.1 0.2-0.3 0.3-0.6 0.3zm-8-5.7q-0.1 0-0.1 0c-0.4 0-0.7-0.3-0.6-0.7q0.4-2.6 0.5-5.2c0-0.4 0.3-0.7 0.7-0.7 0.4 0.1 0.6 0.4 0.6 0.7q-0.1 2.7-0.5 5.4c0 0.3-0.3 0.5-0.6 0.5zm-3.8-0.3q-0.1 0-0.2 0-2.5-0.9-5-1.5c-0.4-0.1-0.6-0.5-0.5-0.8 0.1-0.4 0.5-0.6 0.8-0.5q2.6 0.6 5.2 1.5c0.3 0.1 0.5 0.5 0.4 0.9-0.1 0.2-0.4 0.4-0.7 0.4zm-31.1-0.1c-0.3 0-0.6-0.2-0.7-0.5-0.1-0.3 0.1-0.7 0.4-0.8q2.6-1 5.2-1.6c0.3-0.1 0.7 0.1 0.8 0.5 0.1 0.3-0.1 0.7-0.5 0.8q-2.5 0.6-5 1.5-0.1 0.1-0.2 0.1zm18.2-2.7q0 0 0 0-2.7-0.1-5.3 0c-0.3 0-0.6-0.3-0.7-0.6 0-0.4 0.3-0.7 0.7-0.7q2.7-0.2 5.4 0c0.3 0 0.6 0.4 0.6 0.7-0.1 0.4-0.3 0.6-0.7 0.6zm17-10.1c-0.3 0-0.6-0.2-0.7-0.6q-0.2-2.6-0.7-5.2c-0.1-0.3 0.2-0.7 0.5-0.7 0.4-0.1 0.7 0.1 0.8 0.5q0.5 2.6 0.8 5.3c0 0.4-0.3 0.7-0.6 0.7q-0.1 0-0.1 0zm-83.6-7.2q-0.2 0-0.4-0.2c-0.3-0.3-0.3-0.7-0.1-0.9q1.9-2 3.7-3.9c0.3-0.2 0.7-0.2 1 0 0.2 0.3 0.2 0.7 0 1q-1.9 1.8-3.7 3.8-0.2 0.2-0.5 0.2zm80.6-5.7c-0.2 0-0.5-0.1-0.6-0.4q-1-2.5-2.2-4.7c-0.2-0.3-0.1-0.7 0.2-0.9 0.3-0.2 0.8-0.1 0.9 0.3q1.3 2.3 2.3 4.8c0.2 0.4 0 0.8-0.3 0.9q-0.2 0-0.3 0zm-71.1-3.6q-0.3 0-0.5-0.2c-0.3-0.3-0.2-0.7 0-1q2.1-1.8 4.1-3.4c0.3-0.3 0.7-0.2 0.9 0.1 0.3 0.3 0.2 0.7-0.1 0.9q-2 1.6-4 3.4-0.2 0.2-0.4 0.2zm64.2-7.6q-0.3 0-0.5-0.2-0.7-0.7-1.5-1.4-1.1-1.1-2.4-2c-0.3-0.2-0.4-0.6-0.1-0.9 0.2-0.3 0.6-0.4 0.9-0.2q1.3 1 2.5 2.1 0.8 0.8 1.5 1.5c0.3 0.3 0.3 0.7 0 1q-0.2 0.1-0.4 0.1zm-53.8-0.6c-0.2 0-0.4-0.1-0.5-0.3-0.2-0.3-0.1-0.7 0.2-0.9q2.3-1.5 4.5-2.8c0.4-0.1 0.8 0 0.9 0.3 0.2 0.3 0.1 0.7-0.2 0.9q-2.3 1.2-4.5 2.7-0.2 0.1-0.4 0.1zm11.7-6.1c-0.2 0-0.5-0.2-0.6-0.4-0.1-0.4 0.1-0.8 0.4-0.9q0.8-0.3 1.6-0.6 1.7-0.6 3.5-1.1c0.4-0.1 0.7 0.1 0.8 0.5 0.1 0.4-0.1 0.7-0.4 0.8q-1.8 0.5-3.5 1.1-0.8 0.3-1.5 0.5-0.1 0.1-0.3 0.1zm31.1-0.6q-0.1 0-0.2 0-2.4-1-5-1.6c-0.3-0.1-0.5-0.4-0.5-0.8 0.1-0.3 0.5-0.6 0.8-0.5q2.7 0.6 5.2 1.6c0.3 0.2 0.5 0.5 0.4 0.9-0.1 0.2-0.4 0.4-0.7 0.4zm-18.2-2.4c-0.3 0-0.6-0.3-0.6-0.7-0.1-0.3 0.2-0.6 0.6-0.7q2.7-0.2 5.3-0.1c0.4 0 0.7 0.3 0.7 0.7 0 0.3-0.4 0.6-0.7 0.6q-2.6-0.1-5.2 0.2-0.1 0-0.1 0z"/><path class="d" d="m243.1 297.1h-166.9c-2 0-4-1.6-4.4-3.6l-25.3-117.8c-0.4-2 0.9-3.6 2.8-3.6h166.9c2 0 4 1.6 4.4 3.6l25.3 117.8c0.4 2-0.8 3.6-2.8 3.6z"/><path class="e" d="m241.3 293.1h-164.6c-0.7 0-1.3-0.6-1.5-1.2l-24.8-115.8c-0.2-0.7 0.2-1.2 0.9-1.2h164.6c0.7 0 1.4 0.5 1.6 1.2l24.8 115.8c0.1 0.6-0.3 1.2-1 1.2z"/><path class="f" d="m289 306.6h-205.9c-4.7 0-8.4-3.8-8.4-8.4 0-0.6 0.4-1.1 1-1.1h220.7c0.6 0 1 0.5 1 1.1 0 4.6-3.7 8.4-8.4 8.4z"/><path class="g" d="m360.6 297.1h166.9c2 0 3.9-1.6 4.4-3.6l25.3-117.8c0.4-2-0.9-3.6-2.9-3.6h-166.9c-1.9 0-3.9 1.6-4.3 3.6l-25.3 117.8c-0.4 2 0.8 3.6 2.8 3.6z"/><path class="h" d="m362.4 293.1h164.6c0.7 0 1.3-0.6 1.5-1.2l24.8-115.8c0.2-0.7-0.3-1.2-0.9-1.2h-164.7c-0.7 0-1.3 0.5-1.5 1.2l-24.8 115.8c-0.2 0.6 0.3 1.2 1 1.2z"/><path class="i" d="m335.6 306.6h195c4.6 0 8.2-3.7 8.2-8.2v-0.3c0-0.5-0.4-1-1-1h-209.4c-0.6 0-1 0.5-1 1v0.3c0 4.5 3.6 8.2 8.2 8.2z"/><text style="transform:matrix(1,0,0,1,221.115,125.036)" ><tspan x="0" y="0" class="j">B2B
</tspan></text><g clip-path="url(#cp1)"><path class="k" d="m468.7 253.3c0 17.4 14.1 31.4 31.4 31.4 6.2 0 11.9-1.7 16.8-4.8l9.6 15.4c-7.6 4.8-16.7 7.6-26.4 7.6-27.3 0-49.5-22.2-49.5-49.6 0-27.4 22.2-49.6 49.5-49.6 19.2 0 35.8 10.9 44.1 26.8l-16.2 8.4c-5.2-10.1-15.7-17-27.9-17-17.3 0-31.4 14-31.4 31.4z"/><path class="l" d="m549.7 253.3c0 17.7-9.3 33.2-23.2 42l-9.6-15.4c8.8-5.6 14.7-15.4 14.7-26.6 0-5.2-1.3-10.1-3.6-14.4l16.2-8.4c3.5 6.8 5.5 14.6 5.5 22.8z"/><path fill-rule="evenodd" class="m" d="m500.1 277.9c-13.6 0-24.5-11-24.5-24.6 0-13.6 10.9-24.6 24.5-24.6 13.6 0 24.6 11 24.6 24.6 0 13.6-11 24.6-24.6 24.6z"/><path fill-rule="evenodd" class="n" d="m500.1 274c-11.4 0-20.6-9.3-20.6-20.7 0-11.4 9.2-20.7 20.6-20.7 11.5 0 20.7 9.3 20.7 20.7 0 11.4-9.2 20.7-20.7 20.7z"/><text style="transform:matrix(1,0,0,1,487.79,263.734)" ><tspan x="0" y="0" class="o">%
</tspan></text></g><g clip-path="url(#cp2)"><path fill-rule="evenodd" class="p" d="m170.1 297.6h-57.2l6.3-58h44.6z"/><path class="q" d="m151 248.3c-0.5 0-0.9-0.4-0.9-1v-16.4c0-4.7-3.9-8.6-8.6-8.6-4.7 0-8.6 3.9-8.6 8.6v16.4c0 0.6-0.4 1-0.9 1-0.6 0-1-0.4-1-1v-16.4c0-5.8 4.7-10.5 10.5-10.5 5.8 0 10.5 4.7 10.5 10.5v16.4c0 0.6-0.4 1-1 1z"/><path fill-rule="evenodd" class="r" d="m125.5 308.2h-57.3l6.3-58h44.7z"/><path class="s" d="m106.4 259c-0.5 0-1-0.4-1-1v-16.4c0-4.7-3.8-8.6-8.5-8.6-4.8 0-8.6 3.9-8.6 8.6v16.4c0 0.6-0.4 1-1 1-0.5 0-0.9-0.4-0.9-1v-16.4c0-5.8 4.7-10.5 10.5-10.5 5.8 0 10.5 4.7 10.5 10.5v16.4c0 0.6-0.5 1-1 1z"/><path class="t" d="m371.8 138.1c-5.3 7.4-22.4 34.9-28 38.1-5.6 3.3-45.8 30.2-45.8 30.2 0 0 2.8 6.3 4.6 7.6 7.1-1.1 44-18.5 51.3-22.9 7.4-4.5 36.1-43 36.1-43z"/><path class="u" d="m381.5 239c6.7 0 58.9-2.5 58.9-2.5l-9.5 85.1-27.1 2-2.8-27.1-11.1 27.1-27.6-4c0 0 11.6-63.6 19.2-80.6z"/><path class="v" d="m443.5 180.9c0 0 10.1 22.6 10.1 25.3 0 2.7-5.4 41.9-6.8 43.3-2.7 1.7-13.5 6-14.2 7.9-0.6 1.8 0.8 3.4 0.8 3.4-3 1.9-10.6 7.6-9.3 9 0.9 0.9 1.6 1.3 1.9 1.4q0.2 0 0.2 0c0 0-2 3.7 1.6 3.2 0.3 2.1 2 1.8 3.3 1.3 1.3-0.6 2.8-1.8 2.8-1.8 0 1.9 1.2 3 3.8 0.8 2.7-2.2 7.3-5.6 9.5-7.4 2.2-1.8 6.3-10.8 7.7-14.1 1.4-3.3 10.5-30.5 12.1-36.3 1.6-5.9 3.7-8.3 2.1-13.9-1.6-5.7-9.9-29.5-9.9-29.5z"/><path class="w" d="m434.1 261.4q-0.3 0-0.6-0.1c-0.5-0.1-0.9-0.6-1.2-1.2-0.2-0.5-0.2-1.1-0.2-1.6 0-0.2 0.1-0.3 0.3-0.4 0.2 0 0.3 0.2 0.3 0.3 0.1 0.5 0.1 1 0.3 1.4 0.1 0.5 0.4 0.8 0.8 0.9 0.4 0.2 0.9 0 1.4-0.2q2.2-0.9 4-2.3c0.2-0.1 0.4-0.1 0.5 0.1 0.1 0.1 0.1 0.3-0.1 0.4q-1.9 1.5-4.1 2.4c-0.4 0.2-0.9 0.3-1.4 0.3z"/><path class="w" d="m426.2 271.4q0 0-0.1 0c-0.6 0-1.3-0.5-1.5-1.2-0.3-0.5-0.3-1.2-0.1-1.9 0-0.2 0.2-0.3 0.4-0.2 0.2 0 0.3 0.2 0.2 0.4-0.1 0.5-0.1 1 0.1 1.5 0.2 0.4 0.6 0.7 1 0.8 0.4 0 0.8-0.4 1.2-0.7l1.2-0.9c2.4-2 4.2-3.4 6.5-5.6 0.2-0.1 0.4-0.1 0.5 0.1 0.1 0.1 0.1 0.3 0 0.4-2.4 2.2-4.3 3.7-6.6 5.6l-1.2 0.9c-0.4 0.4-1 0.8-1.6 0.8z"/><path class="w" d="m427.4 274.6c-0.5 0-1-0.2-1.4-0.5-0.7-0.8-0.4-1.9 0-2.7 0.1-0.2 0.3-0.3 0.4-0.2 0.2 0.1 0.3 0.3 0.2 0.5-0.3 0.6-0.5 1.4-0.1 1.9 0.4 0.4 1 0.4 1.4 0.3 0.5-0.2 1-0.5 1.5-0.9 2.6-2.1 5-4.4 7.4-6.6l0.5 0.5c-2.4 2.2-4.9 4.5-7.5 6.6-0.5 0.5-1 0.8-1.7 1q-0.3 0.1-0.7 0.1z"/><path class="w" d="m429.5 276.2q-0.2 0-0.4 0c-0.6-0.1-1.3-0.6-1.4-1.3 0-0.2 0.1-0.4 0.3-0.4 0.2 0 0.3 0.1 0.4 0.3 0 0.4 0.4 0.7 0.8 0.7 0.5 0.1 1-0.1 1.4-0.2 1.4-0.6 2.8-1.5 4.2-2.8 0.7-0.6 1.4-1.1 2.2-1.7 0.8-0.6 1.6-1.2 2.4-1.9 0.2-0.1 0.4-0.1 0.5 0 0.1 0.2 0.1 0.4 0 0.5-0.9 0.8-1.8 1.4-2.5 1.9-0.8 0.6-1.5 1.1-2.1 1.7-1.5 1.4-3 2.3-4.5 2.9-0.4 0.2-0.8 0.3-1.3 0.3z"/><path class="w" d="m435.3 276q-0.2 0-0.4-0.1c-0.7-0.2-1-0.9-1.3-1.6 0-0.2 0.1-0.4 0.3-0.4 0.1-0.1 0.3 0 0.4 0.2 0.1 0.5 0.4 1.1 0.8 1.2 0.3 0.1 0.7-0.1 1-0.3 1.9-1 3.5-2.4 5.1-3.7l2.4-2c0.1-0.1 0.3-0.1 0.5 0 0.1 0.1 0.1 0.4-0.1 0.5l-2.3 2c-1.7 1.3-3.3 2.7-5.2 3.8-0.4 0.2-0.8 0.4-1.2 0.4z"/><path class="x" d="m399.4 122.8c-8.6 0.7-20.2 3.7-29.5 13.1-9.4 9.4-15.3 23-17 28.8 0 0 10.6 10.9 16.4 10.9l11.9-10.4c-1.7 13.2-2.8 73.5-2.1 80.2 0 0 50.5-5.1 61.1-3.2 1.4-10.1-4.9-74.8-4.9-74.8l7 16c0 0 15.8-2.9 18.4-8.4 1.4-8.1-8.2-31.6-15.3-38.7-7.1-7.1-25.8-12-25.8-12-1 1.1-5.2 5.3-12.9 5.3-3.7 0-6.7-4.5-7.3-6.8z"/><path class="y" d="m380.6 184.7q0 0 0 0c-0.2 0-0.5-0.2-0.5-0.5l0.4-12.6c0.1-2 0.1-4 0.2-6 0.3-4.8 1-9.7 2-14.4 0.1-0.3 0.3-0.5 0.6-0.4 0.3 0.1 0.5 0.3 0.4 0.6-1 4.7-1.7 9.5-2 14.3-0.1 1.9-0.1 3.9-0.2 5.9l-0.4 12.7c0 0.2-0.2 0.4-0.5 0.4z"/><path class="y" d="m443.1 183.8c-0.2 0-0.4-0.1-0.5-0.2-4.4-8.5-8.2-17.3-11.3-26.3-0.1-0.2 0-0.5 0.3-0.6 0.2-0.1 0.5 0.1 0.6 0.3 3.1 8.9 6.9 17.7 11.3 26.1 0.1 0.2 0 0.5-0.2 0.7q-0.1 0-0.2 0z"/><path class="z" d="m419.9 110.3c-0.9 4.7 0.9 15.7 0.9 15.7-9.2 12.6-22.2 3.5-22.2 3.5 1.7-2.8 2.6-17 2.6-17z"/><path class="A" d="m395.5 72.9c-7-0.5-9.5 13.5-0.1 15.2 9.4 1.7 10.5-14.5 0.1-15.2z"/><path class="B" d="m406.3 72.3c-15.6-0.1-17.6 39.9-2.5 46.6 15.1 6.6 23.9-23.2 21.5-33-2.3-9.8-7.6-13.4-19-13.6z"/><path class="C" d="m404.1 79.2c-4.2 4-10.5 2.6-13.1-4-2.6-6.6 8.9-14.5 16.5-6.7 4.3-2.6 7.8 1 9.2 2.4 4.6-1.7 8.8 3.1 7.8 5.1 4.8 0.1 4.4 23.9-4.1 34 0.9-6-3.2-9.1-3.2-9.1 2.9-2.8 3.5-13.6-2-10.8-1.5 0.8-1.7 3.7-1.7 3.7h-1.7c0 0 1.6-7 0.2-10.8-1.3-3.8-4.3-4.2-7.9-3.8z"/><path class="D" d="m411.8 93.8c-0.9 6.8-3.4 10.9-5.1 10.9-1.7-0.1-4.8-3.5-7.4-3.5-2.6-0.1-5.3 1.8-5.3 3.3 0 1.5-2.5 14.1 1.6 16.3 4.2 2.1 15.8 1.1 18-2.7 2.2-3.9-0.9-19.3-0.1-24.3z"/><path class="E" d="m399.3 104.7c-0.6 0-2 0.1-2.6 0.5-1 0.5-0.8 1.6 0 2.3 0.6 0.6 1.9 0.9 2.8 0.8 1.7-0.1 2.3-0.7 2.9-1.9 0.2-0.4 0.3-1.3-0.4-1.6-0.5-0.3-1.6-0.2-2.7-0.1z"/><path class="F" d="m287.3 203.8c-1.4-1.4-3-1.3-5.1-0.3-2.1 1-3.8 1.6-5.6 1.6-1.7 0-6.4-2.5-6.4-2.5l-2.9 6.9c0 0 13.1 8.5 14.8 9.7 1.8 1.2 4.3 4.3 5.7 4.6 1.3 0.2 10.3-3.6 10.2-7.5-0.5-1.2-3.6-4.2-4.9-5.5-1.3-1.3-2.5-2.3-3.3-2.8-0.8-0.5-2.5-4.2-2.5-4.2z"/><path class="G" d="m287.7 202.6c-2.2 0.2-5.3 2.7-5.3 4.3 0 1.5-0.2 4.6 1.5 4.6 1.8 0 1.9-3 2.6-3.7 0.8-0.8 4.2 0.4 5.6 2.2 1.3 1.9 5.9 6.3 5.9 6.3 0 0 8.1-3 10.8-4.2 0-0.4-5.8-9-5.8-9-6.1 2.6-12.4-0.7-15.3-0.5z"/><path class="H" d="m276 214.8c-1.2 0.4-2.3 2.7-0.8 3.1 1.6 0.4 3.2-1.3 2.4-2.4-0.7-1-0.9-0.8-1.6-0.7z"/><path class="I" d="m278.3 216.8c-1.5 0.3-1.6 2.9 0 4 1.6 1.1 5.7 3.6 7 3 1.4-0.6 2.5-1.1 1.8-2.2-0.7-1.1-6.1-5.3-8.8-4.8z"/><path class="w" d="m296.6 218.9q-0.1 0-0.1 0c-2.8-1.7-5.2-4-7.1-6.6-0.1-0.1-0.1-0.3 0-0.4 0.2-0.1 0.3-0.1 0.4 0.1 1.9 2.5 4.3 4.7 7 6.4 0.1 0.1 0.1 0.2 0 0.4q0 0.1-0.2 0.1z"/><path class="w" d="m294.3 220.8q-0.1 0-0.2 0c-2.4-1.5-4.6-3.4-6.3-5.6-0.1-0.1 0-0.3 0.1-0.4 0.1-0.1 0.3 0 0.4 0.1 1.6 2.1 3.8 4 6.1 5.4 0.2 0.1 0.2 0.2 0.1 0.4q-0.1 0.1-0.2 0.1z"/><path class="w" d="m291.7 222.4q0 0-0.1 0c-2.1-1.1-3.9-2.7-5.4-4.4-0.1-0.1 0-0.3 0.1-0.4 0.1-0.1 0.3-0.1 0.4 0 1.4 1.7 3.2 3.2 5.2 4.3 0.1 0.1 0.1 0.3 0.1 0.4q-0.1 0.1-0.3 0.1z"/><path class="w" d="m284.9 223q0 0 0 0c-0.2 0-0.3-0.2-0.2-0.3q0.2-0.9 0.3-1.8c0-0.2 0-0.5-0.1-0.7-0.1-0.2-0.3-0.3-0.4-0.4-0.2 0-0.4 0-0.6 0.2-0.2 0.2-0.3 0.4-0.4 0.6l-0.1 0.1c-0.1 0.3-0.3 0.6-0.6 0.8-0.1 0.1-0.2 0.2-0.4 0.1q-0.2 0-0.3-0.1c-0.1-0.2 0-0.3 0-0.4 0-0.3 0.2-0.6 0.3-0.9q0.1-0.2 0.2-0.5c0.1-0.1 0.2-0.7 0-1-0.2-0.2-0.5-0.3-0.8-0.3q-0.4 0.1-0.7 0.5c-0.3 0.3-0.4 0.6-0.5 0.9l-0.1 0.1c-0.1 0.3-0.2 0.6-0.5 0.6q-0.2 0.1-0.3-0.1l-0.1-0.1c0-0.1 0-0.2 0.1-0.6 0-0.4 0.1-1 0.1-1.3-0.1-0.7-0.4-1.2-0.8-1.4-0.2-0.1-0.2-0.3-0.1-0.4 0.1-0.2 0.2-0.2 0.4-0.1 0.5 0.4 0.9 1 1 1.8q0 0.3 0 0.8 0.1-0.3 0.3-0.5c0.3-0.4 0.7-0.7 1.1-0.7 0.5-0.1 1 0 1.3 0.4 0.3 0.4 0.4 1 0.1 1.6q-0.1 0.3-0.2 0.5 0 0.1-0.1 0.2 0.1-0.1 0.1-0.2h0.1c0.1-0.3 0.3-0.6 0.5-0.8 0.4-0.3 0.8-0.4 1.1-0.3 0.4 0.1 0.6 0.3 0.8 0.7 0.1 0.3 0.1 0.6 0.1 0.9q0 1-0.3 1.9c0 0.1-0.1 0.2-0.3 0.2z"/><path class="w" d="m297.7 216.4q-0.1 0-0.2-0.1l-4.6-5c-0.7-0.7-1.4-1.4-2.2-2.1q-1.3-1-2.5-1.3c-0.4-0.1-1.2-0.2-1.6 0.2-0.3 0.3-0.5 0.7-0.6 1.2q-0.1 0.2-0.1 0.5c-0.3 0.8-0.8 1.5-1.5 1.9-0.2 0.1-0.3 0.1-0.4 0-0.1-0.2-0.1-0.3 0.1-0.4 0.5-0.4 1-1 1.2-1.7q0.1-0.2 0.2-0.5c0.1-0.5 0.3-1 0.7-1.4 0.5-0.4 1.2-0.5 2.1-0.3q1.4 0.3 2.8 1.4c0.8 0.7 1.5 1.4 2.2 2.2l4.6 4.9c0.1 0.1 0.1 0.3 0 0.4q-0.1 0.1-0.2 0.1z"/><path class="J" d="m129.4 108.6c-0.8 5.7-0.2 11.8-3.2 16.7-2.1 3.6-6 6.2-7.1 10.2-1.4 4.8 1.7 9.7 2 14.7 0.3 7.8-6.4 14.9-5 22.6 1.6 8.5 12.3 12.7 14.8 21.1 1.1 3.8 0.4 8.1 2.3 11.6 1.5 2.7 4.4 4.3 6.5 6.6 2.7 2.9 4.1 6.8 6.5 10 2.3 3.2 6.3 5.9 10.1 4.8 4.4-1.2 6-6.5 6.8-11 7.3-40.1 2.6-81.9-9.2-121-2.4-7.8-8.7-12.4-15.2-6.2-5.3 5.1-8.2 12.7-9.3 19.9z"/><path class="K" d="m186 81.8c2 0.8 4 1.8 5.2 3.5 2.1 3 1.1 7.4 3.2 10.4 0.8 1.1 1.9 1.9 2.9 2.9 3.5 3.3 4.7 8.7 3.1 13.2-0.4 1-0.9 2-1.1 3-0.7 2.9 0.6 5.9 1.9 8.7 1.2 2.8 2.4 5.9 1.3 8.7-0.7 1.9-2.2 3.3-2.9 5.1-0.7 2-0.5 4.4-1.9 6-0.6 0.6-1.3 1-2.1 1.3-2 1-4.1 1.8-6.3 2-1.6 0.2-3.2-0.1-4.8-0.3q-3.6-0.5-7.3-1c-0.9-0.1-1.9-0.3-2.6-0.8-1.2-0.7-1.8-2.1-2.2-3.5-3.8-11.7-1-24.4-2.2-36.7-0.4-4.2-1.3-8.4-1.4-12.7 0-3.4 0.5-10 3.8-12.1 1.5-1 4-0.2 5.7 0.1q3.9 0.8 7.7 2.2z"/><path class="L" d="m162.9 115.1c4.1 8.8 4.5 24.5 4.5 24.5 0 0 17.5 3.5 17.5 2.8 0-0.7-2.6-11-3.2-18.3-0.6-0.5-18.8-9-18.8-9z"/><path class="M" d="m169.8 145c-8.5-2.4-14.6 4.1-15.8 24.2-1.2 20.2-2.5 37-1 42 1.5 5.1 14.8 43.1 14.8 43.1l9.3-3.3c0 0-9.4-38.4-9.4-45.3 0-7 4.7-31.6 6.2-39.9 1.5-8.3 1.8-19.1-4.1-20.8z"/><path class="N" d="m154.1 401.1c0 0.3-0.4 11-0.4 11 0 0 9.4 1.2 9.2 0-0.3-1.2 1.3-11.9 1.3-11.9z"/><path class="O" d="m217.4 400.7c0.2 0.7 3 9.9 3 9.9 0 0 9.5 0.8 9.5 0.3 0-0.6-1.2-13-1.2-13z"/><path class="P" d="m149 424c0.3 2.5 2.6 4.1 6.9 4.1 5.2 0 25.8 0.4 29.7 0 3.7-0.3 5.5-2.2 4-4.1q-0.2-0.2-0.4-0.4c-2-2.2-10.3-6-16.1-8.4-5.8-2.5-9.8-5.3-9.8-5.3h-9.7c-2.2 4.9-4 8.8-4.6 12.3q-0.2 0.9 0 1.8z"/><path class="Q" d="m149 424c0.3 2.5 2.6 4.1 6.9 4.1 5.2 0 25.8 0.4 29.7 0 3.7-0.3 5.5-2.2 4-4.1z"/><path class="R" d="m215.2 424c0.3 2.5 2.6 4.1 6.9 4.1 5.2 0 25.8 0.4 29.8 0 3.7-0.3 5.4-2.2 3.9-4.1q-0.1-0.2-0.3-0.4c-2.1-2.2-10.3-6-16.2-8.4-5.8-2.5-9.8-5.3-9.8-5.3h-9.7c-2.1 4.9-4 8.8-4.6 12.3q-0.1 0.9 0 1.8z"/><path class="S" d="m215.2 424c0.3 2.5 2.6 4.1 6.9 4.1 5.2 0 25.8 0.4 29.8 0 3.7-0.3 5.4-2.2 3.9-4.1z"/><path class="T" d="m166.5 135.8c3.5 1.9 17.9 2.2 17.9 2.2 5.5 10.9 14.9 15.1 18.8 25.1 5.8 15-9.3 50.3-6.4 63.3h-36.5c4.1-12.6-8.1-55.9-5.1-69.8 3.1-14 11.3-20.8 11.3-20.8z"/><path class="U" d="m162.2 223.9c-8.4 6.6-13.6 17.7-13.4 40.9 0 6 0.7 32.8 1.3 42.1 2.8 45 2.7 95.2 2.7 95.2 5.1 1.5 14 0 14 0l18.6-116 30.7 115.4c5.9 0 13.2-2.7 13.2-2.7 0 0-8.1-71.8-11.2-88.6-3-16.7 0.3-57.9-21.3-83.8-6.6 0-34.6-2.5-34.6-2.5z"/><path class="y" d="m178.4 327.6q0 0-0.1 0c-0.2 0-0.4-0.3-0.3-0.5q0.6-3.8 1.3-7.4c3.9-21.6 7-38.7 7.6-58.7 0-0.2 0.2-0.5 0.5-0.4 0.2 0 0.4 0.2 0.4 0.5-0.5 20-3.6 37.1-7.5 58.7q-0.7 3.7-1.4 7.4c0 0.3-0.2 0.4-0.5 0.4z"/><path class="V" d="m199.5 200.6q-0.1 0-0.1-0.1c-0.3 0-0.5-0.3-0.4-0.6 1.6-5.3 3.2-10.8 4.1-16.4 1-6.3 0.8-11.9-0.4-16.8-1.3-5.4-4.1-10.3-8-14.3-0.1-0.2-0.1-0.6 0.1-0.7 0.1-0.2 0.5-0.2 0.6 0 4 4.1 6.9 9.2 8.3 14.8 1.2 5 1.3 10.8 0.4 17.1-0.9 5.7-2.6 11.2-4.1 16.6-0.1 0.2-0.3 0.4-0.5 0.4z"/><path class="W" d="m151.5 397.6c-0.4 1.6 0.6 5.1 0.6 5.1 0 0 13.5 0.8 15.8 0l0.8-5.1c-5.5 0-17.2 0-17.2 0z"/><path class="X" d="m213.7 397.1c-0.1 1.7 1.6 4.9 1.6 4.9 0 0 13.3-1.8 15.4-3l-0.1-5.1c-5.4 1-16.9 3.2-16.9 3.2z"/><path class="Y" d="m180.3 153.8c13.8 8.4 40.1 30.7 44.4 32.3 5.4 2.1 46.4 16.3 46.4 16.3 0 0-2 6.7-3.4 8.2-6.4 0-42.7-7.1-49.8-9.9-5.3-2.2-38.5-19-51.5-28-9.3-6.4-8.4-18.5-2.8-22.1 5.4-3.5 9.1-1.5 16.7 3.2z"/><path class="Z" d="m180.7 85.4c15.2 13.4 12.7 33.9 10.9 38.6-1.4 3.6-3.1 4.7-8.8 3-5.7-1.8-25.6-10.2-28.8-17.8-3.2-7.7-5.4-16.9 1.6-23.9 7-7 16.7-7.3 25.1 0.1z"/><path class="a0" d="m183.4 79c-5.6-3.2-14-4.5-20.5-4.3-6.3 0.2-7.9 2.4-9.3 3.4-2.3 1.6-3.2 4.7-5.6 6.3-1.4 0.9-3.1 1.2-4.7 1.6-1.5 2.7-2.7 5.6-3.6 8.6-1.7 5.7-2.3 11.6-1.7 17.5 0.5 5.8 2.5 11.6 5 16.8 4.2 8.7 7 18.2 12.5 26.1 1.2-3.5 5.8-8.7 8.1-11.5 1-1.3 2.1-2.5 2.8-3.9 3.2-5.8 0.2-12.8-1-19.3-0.3-1.8-0.4-3.7 0.1-5.5 0.9-3.1 4-5.4 4.7-8.6 0.5-2 0.1-4.3 1.4-5.8 1.9-2.2 5.5 0.5 8.4 0.2 2.7-0.4 9.4-1.9 10.2-5.7 1.3-6.4-2.1-13.2-6.8-15.9z"/><path class="a" d="m192.3 115.7c-0.2 1.7-0.5 3.1-2.4 3.4-1.9 0.4-5-1.8-5.4-3.4 1.5-1.1 7.3-0.5 7.8 0z"/></g><path fill-rule="evenodd" class="a1" d="m82.8 195.2c-12.8 0-23.1-10.3-23.1-23.1 0-12.8 10.3-23.1 23.1-23.1 12.7 0 23 10.3 23 23.1 0 12.8-10.3 23.1-23 23.1z"/><path fill-rule="evenodd" class="a2" d="m82.8 191.5c-10.8 0-19.5-8.7-19.5-19.4 0-10.7 8.7-19.4 19.5-19.4 10.7 0 19.4 8.7 19.4 19.4 0 10.7-8.7 19.4-19.4 19.4z"/><text style="transform:matrix(1,0,0,1,73.563,182.607)" ><tspan x="0" y="0" class="a3">$
</tspan></text><path fill-rule="evenodd" class="a4" d="m485.8 134.5c-12.9 0-23.4-10.4-23.4-23.4 0-13 10.5-23.5 23.4-23.5 13 0 23.5 10.5 23.5 23.5 0 13-10.5 23.4-23.5 23.4z"/><path fill-rule="evenodd" class="a5" d="m485.8 130.8c-10.9 0-19.7-8.8-19.7-19.7 0-10.9 8.8-19.7 19.7-19.7 10.9 0 19.8 8.8 19.8 19.7 0 10.9-8.9 19.7-19.8 19.7z"/><text style="transform:matrix(1,0,0,1,472.336,121.05)" ><tspan x="0" y="0" class="a6">€
</tspan></text></svg>