<svg version="1.2" xmlns="http://www.w3.org/2000/svg" viewBox="0 0 2502 1434" width="2502" height="1434"><style>.a{fill:#fff}.b{fill:#c2e7f2}.c{fill:#d9935c}.d{fill:#ffa412}.e{fill:#e27f2b}.f{fill:#cb7d45}.g{fill:#233862}.h{fill:#2b478b}.i{fill:#739af0}.j{fill:#7a97f3}.k{fill:#35488b}.l{fill:#f1a34f}.m{fill:#e49963}.n{fill:#163560}.o{fill:#e37970}.p{fill:#d68d5d}.q{fill:#e7f1fd}.r{fill:#bed4f4}.s{fill:#afcdfb}.t{fill:#4a75cb}.u{fill:#ffb27d}.v{fill:#fca56b}.w{fill:#202f4e}</style><path fill-rule="evenodd" class="a" d="m-252-405h3000v2000h-3000z"/><path class="b" d="m2255.8 1416.5c0 0 462.1-709.2-28.5-903.2-123.6-48.8-166.7-732.8-715.7-390.8-218.3 136-532.6-28.6-833.6 61.3-276.5 82.7-282.8 321-247.9 406.8 38.2 93.7-114.1 205.8-270.1 282.8-244.6 120.7-64.7 545.1 166.4 547.1 231.2 2 1929.4-4 1929.4-4z"/><path class="c" d="m1733.5 710.6c16.7-85.5 32-167.5 32-167.5 0 0-47.5 7.2-68 24.3-20.4 17-22.5 125.6-29.3 156.3-1.4 6-2.6 15.8-3.6 27.6-3.9 44.2 0.9 110.3 4.6 128.8-0.3 1.8-1.8 10.5-9.8 27.3 0 0-4.2 12.9 23.1 32.2 17.4 12.3 32.9-135.9 51-229z"/><path class="d" d="m1765.5 543.1c0 0-8.8 47.3-20.4 107.4-3.6 19.1-7.6 39.5-11.6 60.1-16.4 32.1-30.4 53.9-34.7 49.8-8.9-8.4-24.4-9.4-34.2-9.1 1-11.8 2.2-21.6 3.6-27.6 0.5-2.4 1-5.3 1.5-8.6 5.7-38.7 9-132 27.8-147.7 20.5-17.1 68-24.3 68-24.3z"/><path class="e" d="m1745.1 650.5c-3.6 19.1-7.6 39.5-11.6 60.1-16.4 32.1-30.4 53.9-34.7 49.8-8.9-8.4-24.4-9.4-34.2-9.1 1-11.8 2.2-21.6 3.6-27.6 0.5-2.4 1-5.3 1.5-8.6l49-118.4z"/><path class="c" d="m1833.4 541.9c0.3-16.5 0.1-36.2-2.2-52.9l-65.9 10.8c0 0 0 20.1 0.3 42.5q-0.1 0-0.1 0c0 0-1.8 20.7 23.7 23.7 25.5 3 44.9-8.1 44.2-24.1z"/><path class="f" d="m1765.1 503.9c0 0 15.5 31.8 33.3 31.8 17.8 0 34.5-29.9 34.5-29.9z"/><path class="g" d="m1809 1416.7c0 0 2.4-19.2 8-30.4 5.6-11.1 40.9-4 40.9-4 0 0 7.1 6.1 8.6 34.4 0 0-57.5 0-57.5 0z"/><path class="g" d="m1688.6 1416.5c8.3-5.1 3.5-42.9 3.5-42.9 0 0-38.7-31-44-7.3-5.3 23.8-36.8 34.4-54.7 37.3-12.4 2-16.2 8.9-17.4 12.9z"/><path class="g" d="m1839.6 470c0 0 44.1-69.4-40.5-74 0 0-31.7 3.7-38.8-3.4 0 0-24.6 37.3-1.7 77.4 23 40.1 81 0 81 0z"/><path class="c" d="m1767.2 506.2c6.4 5.1 25.2 10.1 30.7 10.7 0 0 27.8-6.3 32.9-9.3 7.8-4.8 7.3-14.4 7.7-27.8 0.5-15.8 2.1-28.2 0.3-37.4-2.1-10.9-9-17.1-28.4-18.8-35.6-3.1-50.4 5.8-51 17.8q-0.3 4.8-0.4 9.1c-1.5 37.2 1.5 50.4 8.2 55.7z"/><path class="h" d="m1768.8 1134.7c-1.6 8.7-2.6 15.8-2.9 20.9-3.6 70.3-59.1 230.8-69 234.5-15.4 5.8-39.6-6.5-52.2-10.5-5.3-1.7-8.8-7-7.6-12.3 27.4-126.4 37.6-308.4 41.2-416.1 1.9-54.2 11.2-91.7 11.2-91.7 0 0 135.4-36.1 136.2 9.5 0.7 40.5-44.9 199-56.9 265.7z"/><path class="g" d="m1768.8 1134.7l-90.5-183.5c1.9-54.2 11.2-91.7 11.2-91.7 0 0 135.4-36.1 136.2 9.5 0.7 40.5-44.9 199-56.9 265.7z"/><path class="h" d="m1738.6 869.2l71.6 518.7c0 0 31.4 7.5 55.9 1.5 0 0 20.9-275.9 19.2-342.6-1.8-66.6 15-178.4-3.9-190.7-18.8-12.4-142.8 13.1-142.8 13.1z"/><path class="i" d="m1891.7 856.1c0.3 6-4.5 11-10.5 11.1l-112.8 1.7-82.8 1.3c-3.9 0 8.4-31 8.6-233.3 0.1-45.2 70-93.8 71.3-93.8 0 6.5 10.2 18.6 26 19.6 18.8 1.2 41.7-8.1 41.7-18.9 0-0.1 2.2 2.2 5.7 7.3 9.4 13.7 28.2 46.9 40.2 104.7 9.5 45.7 5.9 106.8 12.7 185.5 0.5 5.7-0.2 10.8-0.1 14.8z"/><path class="d" d="m1887.6 867.8c0 0-15 6.7-43.1 12.5-20.8 4.4-48.9 8.2-83.3 8.4-54.8 0.4-75.6-18.5-75.6-18.5-3.9 0 8.4-31 8.6-233.3 0.1-45.2 70-93.8 71.3-93.8 0 0-1.8 60.2 16.4 77.8 0 0 25.5-19.7 58.6-75.7 9.3 13.6 26.6 52.8 38.6 110.6 2.5 11.8 4.1 24.6 5.2 38.4 3.2 39.9 2.4 88.6 7.5 147.1 0.5 5.7-0.2 10.8-0.1 14.8 0.3 6 1.9 11.6-4.1 11.7z"/><path class="e" d="m1887.6 867.8c0 0-15 6.7-43.1 12.5-8.8-13.4-19.9-37.7-21.4-76-2.6-64.7 58.8-148 58.8-148l2.4 37.9c3.2 39.9 2.4 88.6 7.5 147.1 0.5 5.7-0.2 10.8-0.1 14.8 0.3 6 1.9 11.6-4.1 11.7z"/><path fill-rule="evenodd" class="h" d="m1729.5 709.2l104.8-60.5 83 143.7-104.8 60.5z"/><path class="c" d="m1899.6 564.9c-12.8-9.7-43-16.6-57.8-19.5-5.2-1.1-8.6-1.6-8.6-1.6 1.6 7.1 5.1 18.3 9.6 31.7 19.1 56.3 56.8 152 49.2 154.1-6.2 1.6-14.1 3.1-22.8 4.4-33.1 4.8-77.7 7-82.4 7.2-0.3-0.4-16.2-15.2-22.4-15.2-6.2 0-24.3 6.6-26.1 11.7-1.8 5-2.6 14.1 2.6 16.1 5.1 2 26.5 7.1 32 7.6 0.7 0.1 1.6 0.1 2.6 0 39.7 11.6 73.8 17.3 100.1 20 36.6 3.8 58.1 1.7 58.1 1.7 26.6-57.2-16.7-205.1-34.1-218.2z"/><path class="d" d="m1933.7 783.1c0 0-21.5 2.1-58.1-1.7 2-9.9 3.9-29.4-6.4-47.4 8.7-1.3 16.6-2.8 22.8-4.4 7.6-2.1-30.1-97.8-49.2-154.1-1.5-18.2-2.3-30.3-2.3-30.3l1.3 0.2c14.8 2.9 45 9.8 57.8 19.5 17.4 13.1 60.7 161 34.1 218.2z"/><path class="e" d="m1781.9 621c0 0 51-22.5 51.8-24.3 0.7-1.8-2.6-15.4-6.1-19.5 0 0 24.5 2.3 26-0.7 1.5-3 2.7-28 2.7-28 0 0-10.2-10.5-22.9-11.5 0 0-11 27.5-15.1 35.7-10.9 21.7-36.4 48.3-36.4 48.3z"/><path class="e" d="m1769.8 576.5c0 0 3.2 26.3 12.1 44.5 0 0-26.7-18.6-28.9-24.7-2.3-6 6.4-17.8 6.4-17.8 0 0-15.9-0.4-16.3-5.7-0.4-5.3 4.9-26.1 4.9-26.1 0 0 13.7-10 17.5-9.6z"/><path class="d" d="m1856.1 431.3l-113.3 1.2c0 0-1.6-34.1 18-55.9q1.3-1.5 2.9-2.9c4.2-4.1 9.3-7.5 15.4-10.1 22.7-9.4 41.5-0.7 53.2 8.2q1.7 1.3 3.3 2.6c6.3 5.5 9.9 10.3 9.9 10.3 0 0 11 15 10.6 46.6z"/><path class="e" d="m1824.3 431.7c-0.3-4.6-2.3-43.8 11.5-57.1-1-0.9-0.8-0.7-1.9-1.6-14.7 15.3-15.9 53.9-15.8 58.7l-36.2 0.4c-1.1-27.7-16.4-55.4-18.2-58.4-1.1 0.9-1.2 1.1-2.1 2.1 2.6 4.7 12.6 31.4 13.6 56.4l-32.4 0.4c0 0 30.2 7.8 52.9 7.5 22.8-0.3 60.4-8.8 60.4-8.8z"/><path class="d" d="m1977.3 752.2h18.6c8.6-3.9 55.1-24.1 99.8-24.3 32.2-0.2 68.9 23.9 71.1 24.2 5.6 0.6-18.6 0.8-18.6 0.8 0 0-36.4-16.1-52.8-16.4-15.5-0.4-50.1 10.9-64 15.7h104.1c8.7 0 15.8 7.1 15.8 15.8v118.7c0 8.7-7.1 15.8-15.8 15.8h-158.2c-8.7 0-15.8-7.1-15.8-15.8v-118.7c0-8.7 7.1-15.8 15.8-15.8z"/><path class="e" d="m2028.7 752.2h158.2c8.7 0 15.8 7.1 15.8 15.8v118.7c0 8.7-7.1 15.8-15.8 15.8h-158.2c-8.7 0-15.8-7.1-15.8-15.8v-118.7c0-8.7 7.1-15.8 15.8-15.8z"/><path fill-rule="evenodd" class="j" d="m344.8 161.4h841.7v593.6h-841.7z"/><path fill-rule="evenodd" class="k" d="m374 192.2h783.4v531.9h-783.4z"/><path class="j" d="m994.6 1391.9h-18.5l-115.4-39.9c-49.2-16.9-82.2-63.2-82.2-115.2v-490.9c0-7-5.3-12.9-12.2-13.2-7.4-0.4-13.5 5.5-13.5 12.8v491.2c0 52.1-33 98.3-82.1 115.3l-115.5 39.9h-21c-6.9 0-12.9 5.4-13.2 12.3-0.4 7.4 5.5 13.5 12.8 13.5h23.5q0 0 0.1 0 0 0 0 0h51.5c6.8 0 12.7-5.2 13.2-12 0.2-3.3-0.8-6.3-2.7-8.7l84.9-29.4c39.7-13.7 83-13.7 122.8 0l82.8 28.7c-2.1 2.4-3.3 5.5-3.2 9 0.2 6.9 6.2 12.4 13.2 12.4h54q0 0 0.1 0 0 0 0 0h21c7.3 0 13.1-6.1 12.8-13.5-0.3-6.9-6.3-12.3-13.2-12.3z"/><path fill-rule="evenodd" class="k" d="m1186.5 161.4h11.2v593.6h-11.2z"/><path fill-rule="evenodd" class="k" d="m752.8 755h25.7v23.9h-25.7z"/><path class="a" d="m1082.5 663.5h-35v-71.1h35zm-34-1h33v-69h-33z"/><path class="a" d="m1058.3 663.5h-476.9c-0.3 0-0.5-0.3-0.5-0.5 0-0.3 0.2-0.5 0.5-0.5h475.9v-136.6h-39.6v-158.1h-38.6v85.6h-32v31.5h-56.8v-18.3h-24.3v-72.6h-65v-123.2l-50.4-16.7v81.7h-12.7v-61.3l-50.4 19.1v72.3h-47.5v-52.6h-48.8v52.6h-9.3v30.6h-39.7v104.4c0 0.3-0.3 0.5-0.5 0.5-0.3 0-0.5-0.2-0.5-0.5v-105.4h39.7v-30.6h9.3v-52.6h50.8v52.6h45.5v-72l52.4-19.8v61.7h10.7v-82.1l52.4 17.4v122.9h65v72.6h24.3v18.3h54.8v-31.5h32v-85.6h40.6v158.1h39.6z"/><path class="a" d="m794.4 289.9h-35.7v-13.7h35.7zm-34.7-1h33.7v-11.7h-33.7z"/><path class="a" d="m794.4 313.7h-35.7v-13.7h35.7zm-34.7-1h33.7v-11.7h-33.7z"/><path class="a" d="m794.4 335.2h-35.7v-13.7h35.7zm-34.7-1h33.7v-11.7h-33.7z"/><path class="a" d="m1018.7 445.1h-33.1v-20.6h33.1zm-32.1-1h31.1v-18.6h-31.1z"/><path class="a" d="m1018.7 505.2h-40.9v-20.6h40.9zm-39.9-1h38.9v-18.6h-38.9z"/><path class="a" d="m1018.7 534.8h-40.9v-20.6h40.9zm-39.9-1h38.9v-18.6h-38.9z"/><path class="a" d="m1019.3 565.8h-40.9v-20.6h40.9zm-39.9-1h38.9v-18.6h-38.9z"/><path class="a" d="m1019.3 596.1h-40.9v-20.6h40.9zm-39.9-1h38.9v-18.6h-38.9z"/><path class="a" d="m1019.3 627.1h-40.9v-20.6h40.9zm-39.9-1h38.9v-18.6h-38.9z"/><path class="a" d="m732.2 335.2h-37.5v-13.7h37.5c0 0 0 13.7 0 13.7zm-36.5-1h35.5v-11.7h-35.5z"/><path class="a" d="m732.2 313.9h-37.5v-13.7h37.5c0 0 0 13.7 0 13.7zm-36.5-1h35.5v-11.7h-35.5z"/><path class="a" d="m795.2 356h-100.5v-13.7h100.5zm-99.5-1h98.5v-11.7h-98.5z"/><path class="a" d="m795.2 375.1h-100.5v-13.7h100.5zm-99.5-1h98.5v-11.7h-98.5z"/><path class="a" d="m795.2 393.6h-100.5v-13.3h100.5zm-99.5-1h98.5v-11.2h-98.5z"/><path class="a" d="m1018.7 475.6h-40.9v-20.6h40.9zm-39.9-1h38.9v-18.6h-38.9z"/><path class="a" d="m857.1 418.2h-9.7v-13.3h9.7zm-8.7-1h7.7v-11.3h-7.7z"/><path class="a" d="m840.8 418.2h-9.7v-13.3h9.7zm-8.7-1h7.7v-11.3h-7.7z"/><path class="a" d="m824.9 418.2h-9.7v-13.3h9.7zm-8.7-1h7.7v-11.3h-7.7z"/><path class="a" d="m809.8 418.2h-9.7v-13.3h9.7zm-8.7-1h7.7v-11.3h-7.7z"/><path class="a" d="m794.4 418.2h-9.7v-13.3h9.7zm-8.7-1h7.7v-11.3h-7.7z"/><path class="a" d="m778.8 418.2h-9.7v-13.3h9.7zm-8.7-1h7.7v-11.3h-7.7z"/><path class="a" d="m762.5 418.2h-9.7v-13.3h9.7zm-8.7-1h7.7v-11.3h-7.7z"/><path class="a" d="m746.6 418.2h-9.7v-13.3h9.7zm-8.7-1h7.7v-11.3h-7.7z"/><path class="a" d="m731.5 418.2h-9.7v-13.3h9.7zm-8.7-1h7.7v-11.3h-7.7z"/><path class="a" d="m716.1 418.2h-9.7v-13.3h9.7zm-8.7-1h7.7v-11.3h-7.7z"/><path class="a" d="m700.1 418.2h-9.8v-13.3h9.8zm-8.8-1h7.8v-11.3h-7.8z"/><path class="a" d="m683.8 418.2h-9.7v-13.3h9.7zm-8.7-1h7.7v-11.3h-7.7z"/><path class="a" d="m667.8 418.2h-9.7v-13.3h9.7zm-8.7-1h7.7v-11.3h-7.7z"/><path class="a" d="m652.7 418.2h-9.7v-13.3h9.7zm-8.7-1h7.7v-11.3h-7.7z"/><path class="a" d="m637.3 418.2h-9.7v-13.3h9.7zm-8.7-1h7.7v-11.3h-7.7z"/><path class="a" d="m621.8 418.2h-9.7v-13.3h9.7zm-8.7-1h7.7v-11.3h-7.7z"/><path class="a" d="m605.5 418.2h-9.7v-13.3h9.7zm-8.7-1h7.7v-11.3h-7.7z"/><path class="a" d="m589.6 418.2h-9.8v-13.3h9.8zm-8.8-1h7.8v-11.3h-7.8z"/><path class="a" d="m574.5 418.2h-9.8v-13.3h9.8zm-8.8-1h7.8v-11.3h-7.8z"/><path class="a" d="m559.1 418.2h-9.7v-13.3h9.7zm-8.7-1h7.7v-11.3h-7.7z"/><path class="a" d="m857.1 439.8h-9.7v-13.3h9.7zm-8.7-1h7.7v-11.2h-7.7z"/><path class="a" d="m840.8 439.8h-9.7v-13.3h9.7zm-8.7-1h7.7v-11.2h-7.7z"/><path class="a" d="m824.9 439.8h-9.7v-13.3h9.7zm-8.7-1h7.7v-11.2h-7.7z"/><path class="a" d="m809.8 439.8h-9.7v-13.3h9.7zm-8.7-1h7.7v-11.2h-7.7z"/><path class="a" d="m794.4 439.8h-9.7v-13.3h9.7zm-8.7-1h7.7v-11.2h-7.7z"/><path class="a" d="m778.8 439.8h-9.7v-13.3h9.7zm-8.7-1h7.7v-11.2h-7.7z"/><path class="a" d="m762.5 439.8h-9.7v-13.3h9.7zm-8.7-1h7.7v-11.2h-7.7z"/><path class="a" d="m746.6 439.8h-9.7v-13.3h9.7zm-8.7-1h7.7v-11.2h-7.7z"/><path class="a" d="m731.5 439.8h-9.7v-13.3h9.7zm-8.7-1h7.7v-11.2h-7.7z"/><path class="a" d="m716.1 439.8h-9.7v-13.3h9.7zm-8.7-1h7.7v-11.2h-7.7z"/><path class="a" d="m700.1 439.8h-9.8v-13.3h9.8zm-8.8-1h7.8v-11.2h-7.8z"/><path class="a" d="m683.8 439.8h-9.7v-13.3h9.7zm-8.7-1h7.7v-11.2h-7.7z"/><path class="a" d="m667.8 439.8h-9.7v-13.3h9.7zm-8.7-1h7.7v-11.2h-7.7z"/><path class="a" d="m652.7 439.8h-9.7v-13.3h9.7zm-8.7-1h7.7v-11.2h-7.7z"/><path class="a" d="m637.3 439.8h-9.7v-13.3h9.7zm-8.7-1h7.7v-11.2h-7.7z"/><path class="a" d="m621.8 439.8h-9.7v-13.3h9.7zm-8.7-1h7.7v-11.2h-7.7z"/><path class="a" d="m605.5 439.8h-9.7v-13.3h9.7zm-8.7-1h7.7v-11.2h-7.7z"/><path class="a" d="m589.6 439.8h-9.8v-13.3h9.8zm-8.8-1h7.8v-11.2h-7.8z"/><path class="a" d="m574.5 439.8h-9.8v-13.3h9.8zm-8.8-1h7.8v-11.2h-7.8z"/><path class="a" d="m559.1 439.8h-9.7v-13.3h9.7zm-8.7-1h7.7v-11.2h-7.7z"/><path class="a" d="m857.1 461.2h-9.7v-13.3h9.7zm-8.7-1h7.7v-11.3h-7.7z"/><path class="a" d="m840.8 461.2h-9.7v-13.3h9.7zm-8.7-1h7.7v-11.3h-7.7z"/><path class="a" d="m824.9 461.2h-9.7v-13.3h9.7zm-8.7-1h7.7v-11.3h-7.7z"/><path class="a" d="m809.8 461.2h-9.7v-13.3h9.7zm-8.7-1h7.7v-11.3h-7.7z"/><path class="a" d="m794.4 461.2h-9.7v-13.3h9.7zm-8.7-1h7.7v-11.3h-7.7z"/><path class="a" d="m778.8 461.2h-9.7v-13.3h9.7zm-8.7-1h7.7v-11.3h-7.7z"/><path class="a" d="m762.5 461.2h-9.7v-13.3h9.7zm-8.7-1h7.7v-11.3h-7.7z"/><path class="a" d="m746.6 461.2h-9.7v-13.3h9.7zm-8.7-1h7.7v-11.3h-7.7z"/><path class="a" d="m731.5 461.2h-9.7v-13.3h9.7zm-8.7-1h7.7v-11.3h-7.7z"/><path class="a" d="m716.1 461.2h-9.7v-13.3h9.7zm-8.7-1h7.7v-11.3h-7.7z"/><path class="a" d="m700.1 461.2h-9.8v-13.3h9.8zm-8.8-1h7.8v-11.3h-7.8z"/><path class="a" d="m683.8 461.2h-9.7v-13.3h9.7zm-8.7-1h7.7v-11.3h-7.7z"/><path class="a" d="m667.8 461.2h-9.7v-13.3h9.7zm-8.7-1h7.7v-11.3h-7.7z"/><path class="a" d="m652.7 461.2h-9.7v-13.3h9.7zm-8.7-1h7.7v-11.3h-7.7z"/><path class="a" d="m637.3 461.2h-9.7v-13.3h9.7zm-8.7-1h7.7v-11.3h-7.7z"/><path class="a" d="m621.8 461.2h-9.7v-13.3h9.7zm-8.7-1h7.7v-11.3h-7.7z"/><path class="a" d="m605.5 461.2h-9.7v-13.3h9.7zm-8.7-1h7.7v-11.3h-7.7z"/><path class="a" d="m589.6 461.2h-9.8v-13.3h9.8zm-8.8-1h7.8v-11.3h-7.8z"/><path class="a" d="m574.5 461.2h-9.8v-13.3h9.8zm-8.8-1h7.8v-11.3h-7.8z"/><path class="a" d="m559.1 461.2h-9.7v-13.3h9.7zm-8.7-1h7.7v-11.3h-7.7z"/><path class="a" d="m857.1 483.8h-9.7v-13.2h9.7zm-8.7-1h7.7v-11.3h-7.7z"/><path class="a" d="m840.8 483.8h-9.7v-13.2h9.7zm-8.7-1h7.7v-11.3h-7.7z"/><path class="a" d="m824.9 483.8h-9.7v-13.2h9.7zm-8.7-1h7.7v-11.3h-7.7z"/><path class="a" d="m809.8 483.8h-9.7v-13.2h9.7zm-8.7-1h7.7v-11.3h-7.7z"/><path class="a" d="m794.4 483.8h-9.7v-13.2h9.7zm-8.7-1h7.7v-11.3h-7.7z"/><path class="a" d="m778.8 483.8h-9.7v-13.2h9.7zm-8.7-1h7.7v-11.3h-7.7z"/><path class="a" d="m762.5 483.8h-9.7v-13.2h9.7zm-8.7-1h7.7v-11.3h-7.7z"/><path class="a" d="m746.6 483.8h-9.7v-13.2h9.7zm-8.7-1h7.7v-11.3h-7.7z"/><path class="a" d="m731.5 483.8h-9.7v-13.2h9.7zm-8.7-1h7.7v-11.3h-7.7z"/><path class="a" d="m716.1 483.8h-9.7v-13.2h9.7zm-8.7-1h7.7v-11.3h-7.7z"/><path class="a" d="m700.1 483.8h-9.8v-13.2h9.8zm-8.8-1h7.8v-11.3h-7.8z"/><path class="a" d="m683.8 483.8h-9.7v-13.2h9.7zm-8.7-1h7.7v-11.3h-7.7z"/><path class="a" d="m667.8 483.8h-9.7v-13.2h9.7zm-8.7-1h7.7v-11.3h-7.7z"/><path class="a" d="m652.7 483.8h-9.7v-13.2h9.7zm-8.7-1h7.7v-11.3h-7.7z"/><path class="a" d="m637.3 483.8h-9.7v-13.2h9.7zm-8.7-1h7.7v-11.3h-7.7z"/><path class="a" d="m621.8 483.8h-9.7v-13.2h9.7zm-8.7-1h7.7v-11.3h-7.7z"/><path class="a" d="m605.5 483.8h-9.7v-13.2h9.7zm-8.7-1h7.7v-11.3h-7.7z"/><path class="a" d="m589.6 483.8h-9.8v-13.2h9.8zm-8.8-1h7.8v-11.3h-7.8z"/><path class="a" d="m574.5 483.8h-9.8v-13.2h9.8zm-8.8-1h7.8v-11.3h-7.8z"/><path class="a" d="m559.1 483.8h-9.7v-13.2h9.7zm-8.7-1h7.7v-11.3h-7.7z"/><path class="a" d="m857.1 505.5h-9.7v-13.3h9.7zm-8.7-1h7.7v-11.3h-7.7z"/><path class="a" d="m840.8 505.5h-9.7v-13.3h9.7zm-8.7-1h7.7v-11.3h-7.7z"/><path class="a" d="m824.9 505.5h-9.7v-13.3h9.7zm-8.7-1h7.7v-11.3h-7.7z"/><path class="a" d="m809.8 505.5h-9.7v-13.3h9.7zm-8.7-1h7.7v-11.3h-7.7z"/><path class="a" d="m794.4 505.5h-9.7v-13.3h9.7zm-8.7-1h7.7v-11.3h-7.7z"/><path class="a" d="m778.8 505.5h-9.7v-13.3h9.7zm-8.7-1h7.7v-11.3h-7.7z"/><path class="a" d="m762.5 505.5h-9.7v-13.3h9.7zm-8.7-1h7.7v-11.3h-7.7z"/><path class="a" d="m746.6 505.5h-9.7v-13.3h9.7zm-8.7-1h7.7v-11.3h-7.7z"/><path class="a" d="m731.5 505.5h-9.7v-13.3h9.7zm-8.7-1h7.7v-11.3h-7.7z"/><path class="a" d="m716.1 505.5h-9.7v-13.3h9.7zm-8.7-1h7.7v-11.3h-7.7z"/><path class="a" d="m700.1 505.5h-9.8v-13.3h9.8zm-8.8-1h7.8v-11.3h-7.8z"/><path class="a" d="m683.8 505.5h-9.7v-13.3h9.7zm-8.7-1h7.7v-11.3h-7.7z"/><path class="a" d="m667.8 505.5h-9.7v-13.3h9.7zm-8.7-1h7.7v-11.3h-7.7z"/><path class="a" d="m652.7 505.5h-9.7v-13.3h9.7zm-8.7-1h7.7v-11.3h-7.7z"/><path class="a" d="m637.3 505.5h-9.7v-13.3h9.7zm-8.7-1h7.7v-11.3h-7.7z"/><path class="a" d="m621.8 505.5h-9.7v-13.3h9.7zm-8.7-1h7.7v-11.3h-7.7z"/><path class="a" d="m605.5 505.5h-9.7v-13.3h9.7zm-8.7-1h7.7v-11.3h-7.7z"/><path class="a" d="m574.5 505.5h-9.1c-0.3 0-0.7-0.3-0.7-0.7v-12.6h9.8zm-8.8-1h7.8v-11.3h-7.8z"/><path class="a" d="m589.6 505.5h-9.8v-13.3h9.8zm-8.8-1h7.8v-11.3h-7.8z"/><path class="a" d="m559.1 504.4l-9.7-1.6v-10.6h9.7zm-8.7-2.5l7.7 1.3v-10h-7.7z"/><path class="a" d="m857.1 526.8h-9.7v-13.2h9.7zm-8.7-1h7.7v-11.3h-7.7z"/><path class="a" d="m840.8 526.8h-9.7v-13.2h9.7zm-8.7-1h7.7v-11.3h-7.7z"/><path class="a" d="m824.9 526.8h-9.7v-13.2h9.7zm-8.7-1h7.7v-11.3h-7.7z"/><path class="a" d="m809.8 526.8h-9.7v-13.2h9.7zm-8.7-1h7.7v-11.3h-7.7z"/><path class="a" d="m794.4 526.8h-9.7v-13.2h9.7zm-8.7-1h7.7v-11.3h-7.7z"/><path class="a" d="m778.8 526.8h-9.7v-13.2h9.7zm-8.7-1h7.7v-11.3h-7.7z"/><path class="a" d="m762.5 526.8h-9.7v-13.2h9.7zm-8.7-1h7.7v-11.3h-7.7z"/><path class="a" d="m746.6 526.8h-9.7v-13.2h9.7zm-8.7-1h7.7v-11.3h-7.7z"/><path class="a" d="m731.5 526.8h-9.7v-13.2h9.7zm-8.7-1h7.7v-11.3h-7.7z"/><path class="a" d="m716.1 526.8h-9.7v-13.2h9.7zm-8.7-1h7.7v-11.3h-7.7z"/><path class="a" d="m700.1 526.8h-9.8v-13.2h9.8zm-8.8-1h7.8v-11.3h-7.8z"/><path class="a" d="m683.8 526.8h-9.7v-13.2h9.7zm-8.7-1h7.7v-11.3h-7.7z"/><path class="a" d="m667.8 526.8h-9.7v-13.2h9.7zm-8.7-1h7.7v-11.3h-7.7z"/><path class="a" d="m652.7 526.8h-9.7v-13.2h9.7zm-8.7-1h7.7v-11.3h-7.7z"/><path class="a" d="m637.3 526.8h-9.7v-13.2h9.7zm-8.7-1h7.7v-11.3h-7.7z"/><path class="a" d="m621.8 526.8h-9.7v-13.2h9.7zm-8.7-1h7.7v-11.3h-7.7z"/><path class="a" d="m605.5 526.8h-9.7v-13.2h9.7zm-8.7-1h7.7v-11.3h-7.7z"/><path class="a" d="m477.3 570.2h-20.4v-80.9h20.4zm-19.4-1h18.4v-78.9h-18.4z"/><path class="a" d="m947.1 484.9h-30.6v-32.5h14.4v-25.6h2v25.6h14.2zm-29.6-1h28.6v-30.6h-14.2v-25.5 25.5h-14.4z"/><path class="a" d="m963.2 453.4v-86.6h7.4v-8.5h2.1v8.5h35.6v-8.5h2.1v8.5h8.3v20.6l-32.1 0.1v8.5l32.1-0.1v20.6h-39.6v36.9zm1-85.6v84.6h13.9v-36.9h39.6v-18.6l-32.1 0.1v-10.6h32.1v-18.6h-8.3l-0.1-8.6v8.6h-37.7v-8.6 8.6zm54 19.1z"/><path class="a" d="m588 619.9c-0.3 0-0.5-0.2-0.5-0.5v-110.1l-110.8-19c-0.2-0.1-0.4-0.3-0.4-0.6 0.1-0.3 0.3-0.5 0.6-0.4l111.6 19.1v111c0 0.3-0.3 0.5-0.5 0.5z"/><path class="a" d="m588.5 663.5h-139.7v-94.3h139.7zm-138.7-1h137.7v-92.2h-137.7z"/><path class="a" d="m588.5 544.8h-139.7v-31.3h139.7zm-138.7-1h137.7v-29.3h-137.7z"/><path class="a" d="m579 605h-8.1v-11h8.1zm-7.1-1h6.1v-9.1h-6.1z"/><path class="a" d="m565.7 605h-8.1v-11h8.1zm-7.1-1h6.1v-9.1h-6.1z"/><path class="a" d="m552.7 605h-8.1v-11h8.1zm-7.1-1h6.1v-9.1h-6.1z"/><path class="a" d="m540.3 605h-8.1v-11h8.1zm-7.1-1h6.1v-9.1h-6.1z"/><path class="a" d="m527.8 605h-8.2v-11h8.2zm-7.2-1h6.2v-9.1h-6.2z"/><path class="a" d="m515 605h-8.1v-11h8.1zm-7.1-1h6.1v-9.1h-6.1z"/><path class="a" d="m501.7 605h-8.1v-11h8.1zm-7.1-1h6.1v-9.1h-6.1z"/><path class="a" d="m488.7 605h-8.1v-11h8.1zm-7.1-1h6.1v-9.1h-6.1z"/><path class="a" d="m476.4 605h-8.2v-11h8.2zm-7.2-1h6.2v-9.1h-6.2z"/><path class="a" d="m463.8 605h-8.1v-11h8.1zm-7.1-1h6.1v-9.1h-6.1z"/><path class="a" d="m579 622.7h-8.1v-11h8.1zm-7.1-1h6.1v-9.1h-6.1z"/><path class="a" d="m565.7 622.7h-8.1v-11h8.1zm-7.1-1h6.1v-9.1h-6.1z"/><path class="a" d="m552.7 622.7h-8.1v-11h8.1zm-7.1-1h6.1v-9.1h-6.1z"/><path class="a" d="m540.3 622.7h-8.1v-11h8.1zm-7.1-1h6.1v-9.1h-6.1z"/><path class="a" d="m527.8 622.7h-8.2v-11h8.2zm-7.2-1h6.2v-9.1h-6.2z"/><path class="a" d="m515 622.7h-8.1v-11h8.1zm-7.1-1h6.1v-9.1h-6.1z"/><path class="a" d="m501.7 622.7h-8.1v-11h8.1zm-7.1-1h6.1v-9.1h-6.1z"/><path class="a" d="m488.7 622.7h-8.1v-11h8.1zm-7.1-1h6.1v-9.1h-6.1z"/><path class="a" d="m476.4 622.7h-8.2v-11h8.2zm-7.2-1h6.2v-9.1h-6.2z"/><path class="a" d="m463.8 622.7h-8.1v-11h8.1zm-7.1-1h6.1v-9.1h-6.1z"/><path class="a" d="m579 562.3h-8.1v-11h8.1zm-7.1-1h6.1v-9h-6.1z"/><path class="a" d="m565.7 562.3h-8.1v-11h8.1zm-7.1-1h6.1v-9h-6.1z"/><path class="a" d="m552.7 562.3h-8.1v-11h8.1zm-7.1-1h6.1v-9h-6.1z"/><path class="a" d="m540.3 562.3h-8.1v-11h8.1zm-7.1-1h6.1v-9h-6.1z"/><path class="a" d="m527.8 562.3h-8.2v-11h8.2zm-7.2-1h6.2v-9h-6.2z"/><path class="a" d="m515 562.3h-8.1v-11h8.1zm-7.1-1h6.1v-9h-6.1z"/><path class="a" d="m501.7 562.3h-8.1v-11h8.1zm-7.1-1h6.1v-9h-6.1z"/><path class="a" d="m488.7 562.3h-8.1v-11h8.1zm-7.1-1h6.1v-9h-6.1z"/><path class="a" d="m579 587h-8.1v-11h8.1zm-7.1-1h6.1v-9.1h-6.1z"/><path class="a" d="m565.7 587h-8.1v-11h8.1zm-7.1-1h6.1v-9.1h-6.1z"/><path class="a" d="m552.7 587h-8.1v-11h8.1zm-7.1-1h6.1v-9.1h-6.1z"/><path class="a" d="m540.3 587h-8.1v-11h8.1zm-7.1-1h6.1v-9.1h-6.1z"/><path class="a" d="m527.8 587h-8.2v-11h8.2zm-7.2-1h6.2v-9.1h-6.2z"/><path class="a" d="m515 587h-8.1v-11h8.1zm-7.1-1h6.1v-9.1h-6.1z"/><path class="a" d="m501.7 587h-8.1v-11h8.1zm-7.1-1h6.1v-9.1h-6.1z"/><path class="a" d="m488.7 587h-8.1v-11h8.1zm-7.1-1h6.1v-9.1h-6.1z"/><path class="a" d="m476.4 587h-8.2v-11h8.2zm-7.2-1h6.2v-9.1h-6.2z"/><path class="a" d="m463.8 587h-8.1v-11h8.1zm-7.1-1h6.1v-9.1h-6.1z"/><path class="a" d="m579 640.1h-8.1v-11h8.1zm-7.1-1h6.1v-9h-6.1z"/><path class="a" d="m565.7 640.1h-8.1v-11h8.1zm-7.1-1h6.1v-9h-6.1z"/><path class="a" d="m552.7 640.1h-8.1v-11h8.1zm-7.1-1h6.1v-9h-6.1z"/><path class="a" d="m540.3 640.1h-8.1v-11h8.1zm-7.1-1h6.1v-9h-6.1z"/><path class="a" d="m527.8 640.1h-8.2v-11h8.2zm-7.2-1h6.2v-9h-6.2z"/><path class="a" d="m515 640.1h-8.1v-11h8.1zm-7.1-1h6.1v-9h-6.1z"/><path class="a" d="m501.7 640.1h-8.1v-11h8.1zm-7.1-1h6.1v-9h-6.1z"/><path class="a" d="m488.7 640.1h-8.1v-11h8.1zm-7.1-1h6.1v-9h-6.1z"/><path class="a" d="m476.4 640.1h-8.2v-11h8.2zm-7.2-1h6.2v-9h-6.2z"/><path class="a" d="m463.8 640.1h-8.1v-11h8.1zm-7.1-1h6.1v-9h-6.1z"/><path class="a" d="m486.8 492l-3-0.5v-23h3zm-2-1.4l1 0.2v-21.4h-1z"/><path class="a" d="m577.9 533.3h-7v-11.3h7zm-6-1h5v-9.4h-5z"/><path class="a" d="m518.5 533.3h-7v-11.3h7zm-6-1h5v-9.4h-5z"/><path class="a" d="m471.2 533.3h-7v-11.3h7zm-6-1h5v-9.4h-5z"/><path class="a" d="m957.7 662.9h-200.5v-117.7h200.5zm-199.5-1h198.5v-115.7h-198.5z"/><path class="a" d="m776.6 574.4h-11.6v-17.2h11.6zm-10.6-1h9.6v-15.3h-9.6z"/><path class="a" d="m795.4 574.4h-11.7v-17.2h11.7zm-10.7-1h9.7v-15.3h-9.7z"/><path class="a" d="m814.3 574.4h-11.7v-17.2h11.7zm-10.7-1h9.7v-15.3h-9.7z"/><path class="a" d="m833 574.4h-11.6v-17.2h11.6zm-10.6-1h9.6v-15.3h-9.6z"/><path class="a" d="m852.3 574.4h-11.6v-17.2h11.6zm-10.6-1h9.6v-15.3h-9.6z"/><path class="a" d="m871.1 574.4h-11.6v-17.2h11.6zm-10.6-1h9.6v-15.3h-9.6z"/><path class="a" d="m890 574.4h-11.6v-17.2h11.6zm-10.6-1h9.6v-15.3h-9.6z"/><path class="a" d="m908.8 574.4h-11.7v-17.2h11.7zm-10.7-1h9.7v-15.3h-9.7z"/><path class="a" d="m928.4 574.4h-11.6v-17.2h11.6zm-10.6-1h9.6v-15.3h-9.6z"/><path class="a" d="m947.2 574.4h-11.7v-17.2h11.7zm-10.7-1h9.7v-15.3h-9.7z"/><path class="a" d="m776.6 598.4h-11.6v-17.2h11.6zm-10.6-1h9.6v-15.3h-9.6z"/><path class="a" d="m795.4 598.4h-11.7v-17.2h11.7zm-10.7-1h9.7v-15.3h-9.7z"/><path class="a" d="m814.3 598.4h-11.7v-17.2h11.7zm-10.7-1h9.7v-15.3h-9.7z"/><path class="a" d="m833 598.4h-11.6v-17.2h11.6zm-10.6-1h9.6v-15.3h-9.6z"/><path class="a" d="m852.3 598.4h-11.6v-17.2h11.6zm-10.6-1h9.6v-15.3h-9.6z"/><path class="a" d="m871.1 598.4h-11.6v-17.2h11.6zm-10.6-1h9.6v-15.3h-9.6z"/><path class="a" d="m890 598.4h-11.6v-17.2h11.6zm-10.6-1h9.6v-15.3h-9.6z"/><path class="a" d="m908.8 598.4h-11.7v-17.2h11.7zm-10.7-1h9.7v-15.3h-9.7z"/><path class="a" d="m928.4 598.4h-11.6v-17.2h11.6zm-10.6-1h9.6v-15.3h-9.6z"/><path class="a" d="m947.2 598.4h-11.7v-17.2h11.7zm-10.7-1h9.7v-15.3h-9.7z"/><path class="a" d="m776.6 624.2h-11.6v-17.2h11.6zm-10.6-1h9.6v-15.3h-9.6z"/><path class="a" d="m795.4 624.2h-11.7v-17.2h11.7zm-10.7-1h9.7v-15.3h-9.7z"/><path class="a" d="m814.3 624.2h-11.7v-17.2h11.7zm-10.7-1h9.7v-15.3h-9.7z"/><path class="a" d="m833 624.2h-11.6v-17.2h11.6zm-10.6-1h9.6v-15.3h-9.6z"/><path class="a" d="m852.3 624.2h-11.6v-17.2h11.6zm-10.6-1h9.6v-15.3h-9.6z"/><path class="a" d="m871.1 624.2h-11.6v-17.2h11.6zm-10.6-1h9.6v-15.3h-9.6z"/><path class="a" d="m890 624.2h-11.6v-17.2h11.6zm-10.6-1h9.6v-15.3h-9.6z"/><path class="a" d="m908.8 624.2h-11.7v-17.2h11.7zm-10.7-1h9.7v-15.3h-9.7z"/><path class="a" d="m928.4 624.2h-11.6v-17.2h11.6zm-10.6-1h9.6v-15.3h-9.6z"/><path class="a" d="m947.2 624.2h-11.7v-17.2h11.7zm-10.7-1h9.7v-15.3h-9.7z"/><path class="a" d="m776.6 648.2h-11.6v-17.2h11.6zm-10.6-1h9.6v-15.2h-9.6z"/><path class="a" d="m795.4 648.2h-11.7v-17.2h11.7zm-10.7-1h9.7v-15.2h-9.7z"/><path class="a" d="m814.3 648.2h-11.7v-17.2h11.7zm-10.7-1h9.7v-15.2h-9.7z"/><path class="a" d="m833 648.2h-11.6v-17.2h11.6zm-10.6-1h9.6v-15.2h-9.6z"/><path class="a" d="m852.3 648.2h-11.6v-17.2h11.6zm-10.6-1h9.6v-15.2h-9.6z"/><path class="a" d="m871.1 648.2h-11.6v-17.2h11.6zm-10.6-1h9.6v-15.2h-9.6z"/><path class="a" d="m890 648.2h-11.6v-17.2h11.6zm-10.6-1h9.6v-15.2h-9.6z"/><path class="a" d="m908.8 648.2h-11.7v-17.2h11.7zm-10.7-1h9.7v-15.2h-9.7z"/><path class="a" d="m928.4 648.2h-11.6v-17.2h11.6zm-10.6-1h9.6v-15.2h-9.6z"/><path class="a" d="m947.2 648.2h-11.7v-17.2h11.7zm-10.7-1h9.7v-15.2h-9.7z"/><path class="a" d="m930.6 546.2h-42.6v-15.9l42.6-16.3zm-41.6-1h40.6v-29.7l-40.6 15.5z"/><path class="a" d="m683.7 663.5h-96.2v-104.9l96.2 33.3zm-95.2-1h94.2v-69.8l-94.2-32.6z"/><path class="a" d="m681.2 598.9h-91.2v-4.2h91.2zm-90.2-1h89.2v-2.2h-89.2z"/><path class="a" d="m681.2 609.2h-91.2v-4.2h91.2zm-90.2-1h89.2v-2.2h-89.2z"/><path class="a" d="m681.2 619.5h-91.2v-4.2h91.2zm-90.2-1h89.2v-2.2h-89.2z"/><path class="a" d="m681.2 629.8h-91.2v-4.2h91.2zm-90.2-1h89.2v-2.2h-89.2z"/><path class="a" d="m681.2 640.1h-91.2v-4.2h91.2zm-90.2-1h89.2v-2.2h-89.2z"/><path class="a" d="m681.2 650.4h-91.2v-4.2h91.2zm-90.2-1h89.2v-2.2h-89.2z"/><path class="a" d="m938.6 546.2h-9v-32h9zm-8-1h7v-29.9h-7z"/><path class="a" d="m921.8 541.4h-17.3v-11.6h17.3zm-16.3-1h15.3v-9.7h-15.3z"/><path class="a" d="m602.5 364.4h-6.5v-47.8h6.5zm-5.5-1h4.5v-45.8h-4.5z"/><path class="a" d="m613.5 364.4h-6.5v-47.8h6.5zm-5.5-1h4.5v-45.8h-4.5z"/><path class="a" d="m624.3 364.4h-6.5v-47.8h6.5zm-5.5-1h4.5v-45.8h-4.5z"/><path class="a" d="m635.5 364.4h-6.5v-47.8h6.5zm-5.5-1h4.5v-45.8h-4.5z"/><path class="l" d="m2252.2 718.4l-34.1 6.1c-3.3 0.6-5.7 3.1-5.3 5.6l122.1 686c0.5 2.5 3.6 4 7 3.4l34.1-6c3.3-0.6 5.7-3.2 5.3-5.7l-122.1-685.9c-0.5-2.5-3.6-4.1-7-3.5z"/><path class="h" d="m2252.2 718.4l-34.1 6.1c-3.3 0.6-5.7 3.1-5.3 5.6l3.8 21.3 46.4-8.3-3.8-21.2c-0.5-2.5-3.6-4.1-7-3.5z"/><path class="h" d="m2334.9 1416.1c0.5 2.5 3.6 4.1 7 3.5l34.1-6.1c3.3-0.6 5.7-3.2 5.3-5.7l-3.3-18.3-46.4 8.3z"/><path class="e" d="m2243.5 766.3c-2 0.4-3.3 1.8-3.1 3.2l107.5 603.9c0.3 1.4 2 2.3 4 1.9 1.9-0.3 3.3-1.8 3-3.2l-107.4-603.8c-0.3-1.4-2.1-2.3-4-2z"/><path class="m" d="m550.3 1397.1l22.4-0.3c0 0-33.6-37.4-44-56.4l-28.4-52.5-37.2 9.2 47.2 66.9z"/><path class="n" d="m340.3 375.5c-8.6-4.9-18.9-5.4-26.1-5 1.9-1.9 5.5-2.6 5.5-2.6-4.4-0.7-14.4 3.7-14.4 3.7-62-23.9-47 66.4-45.7 87.7 1.3 21.2-45.6 29.2-77.9 45.9-61.6 31.9-67 74.7-67 74.7q0.7 0.4 1.5 0.9c3-5.1 9.3-14.9 14.6-16.3-0.2 0.4-6.2 13.3-8.5 20.8 18.2 13.8 52.2 44.4 75.9 66.1-0.2-4.2 0-10.2 1.6-13.4l2.9 17.6c12.7 11.7 21.4 19.9 21.4 19.9-1.5-17.2 77.6-107.7 118.9-134.8 10.1-14.8 13.6-41 13.9-43-1.7 20.7-5.3 32.3-8.5 38.9 35-32.2 14.7-148.2-8.1-161.1z"/><path class="m" d="m340.6 542c0.2 0.1-20 10.6-35.1 6.4-14.3-3.9-23.6-22.3-23.4-22.4 6-1.2 7.8-9.5 7.6-45.1l2.8 0.5 45.9 9.1c0 0-1.1 14.4-1.1 28-0.1 11.5 0.6 22.3 3.3 23.5z"/><path class="o" d="m288.7 390.4c0 0 22.6-24.1 51-1.2 0 0-16.5-2.9-51 1.2z"/><path class="p" d="m338.4 490.5c0 0-1.1 14.4-1.1 28-25.7-0.7-39.3-24.1-44.8-37.1z"/><path class="n" d="m287.7 476.4c0 0-13.4-21.2-16.7-39.4-2.3-13 4.4-61.1 52.7-54.2 0 0 14 1.4 27.2 10.3 10.5 7.1 25.7 22.4 8.7 64.4l-4.4 14.2z"/><path class="h" d="m521.2 1322.1l-24.3 0.7-26.3 0.8c0 0-60.8-67.7-94.9-176.2q-1.2-3.8-2.6-7.7c-18.6-54.4-57.3-122.7-77.7-184.6-3.3-9.8-6.2-19.1-8.8-27.9q-1.3-4.2-2.4-8.3c-15.1-52.2-19.4-86.5-23.4-123.1l130.2 1c0 0 40.8 250.3 130.2 525.3z"/><path class="q" d="m387.4 712.4c1.8 70 10.3 100.1 10.3 100.1 0 0-63 32-138 8.5-0.9-0.3 4.9-289.5 26.1-297.5 4.9 6.1 19.5 12 32.5 11.7 14.9-0.3 19.7-6.7 18.9-13.7 16 8.9 47.8 90.6 50.2 190.9z"/><path class="m" d="m346.9 503.4c0 0-60.7 1-60.8-36.9 0-37.8-7.9-63.2 30.9-65.4 38.8-2.2 46.3 12.2 49.4 24.8 3.1 12.6-3.7 76.2-19.5 77.5z"/><path class="n" d="m364.6 404.9c-9.3-11.4-16.4-8.9-20.4-5.5-13.1-19.6-54.6 8.8-54.6 8.8-20.5 19.4-23.7 42.7-23.7 42.7 0 0 11.1 6.8 36.6 0.2 20.1-5.1 34.7-33.7 40-45.7 3.6 3.2 11.2 10.7 13.5 17.9 3 9.7 4.4 29.5 10.2 28.8 0 0 12.5-30.1-1.6-47.2z"/><path class="m" d="m591.4 566.2c0 0 8.5-30.9 42.5-26.5 3.9 1.2 15.2 5.7 8 17.9-5.4 9-7.7 4.4-16.1 16.4-8.5 12.1-17.6 14.8-28.1 13.4z"/><path class="m" d="m301.4 1394.9c-2.1-11.3-6-31-6-31l0.9-69.8h-42.3l15.8 66.8c0.3 3.1 1.2 15.1-3.3 27.9 0 0-4 18.5 14.2 18.9 18.3 0.3 22.8-1.4 20.7-12.8z"/><path class="g" d="m266.6 1388.8c0 0-3.7 19.6-1.6 28.9 0 0 5.3 0 18.6 0 12.6 0 19.8 0 19.8 0 0 0 0.1-21.3-3.2-29.4 0 0-13 19.4-33.6 0.5z"/><path class="g" d="m573.1 1397q-0.2-0.1-0.4-0.2c-8.9 0.3-18-3-26.1-12.2-24.9-28-38.9-31.2-43.8-31.2-4.2 8.7-8.8 18.4-2.8 29.4l8.9 34.9h9.6l0.1-33c6.3 1.7 12.5 4.7 15.2 10.2 6.7 13.5 11.4 22.8 17.6 22.8 3.6 0 43.2 0 43.2 0 0 0-0.8-11.4-21.5-20.7z"/><path class="d" d="m591.4 566.2c0 0-39.9 22.3-54.1 28.7-8.2 3.7-26.9 12.4-40 18.6-8.4 3.9-18.4 1.8-24.4-5.2-21.6-25.3-77.6-80.1-135.4-86.8l0.1 0.2-0.4-0.2c0 0 35.2 86.8 36.2 104.4 1.1 17.6 4.2 287.4 4.2 287.4 0 0-2.1 12.4 21.7 7.2 23.7-5.2 29.9-10.3 29.9-10.3 0 0-22.7-166.5-16.5-224.3 1.2-11.4 0.1-24.3-2.5-37.5 35.3 21.4 76.9 30.9 76.9 30.9 0 0 31.2-13.6 73.8-44.8 13.3-9.8 36.8-47.1 36.8-47.1z"/><path class="g" d="m496.9 1322.8l-26.3 0.8c0 0-60.8-67.7-94.9-176.2q-1.2-3.8-2.6-7.7c-18.6-54.4-57.3-122.7-77.7-184.6-3.3-9.8-6.2-19.1-8.8-27.9q-1.3-4.2-2.4-8.3l21.7-16.4c0 0 65.1 105.4 85.2 204.6 17.5 86.2 87.7 189.9 105.8 215.7z"/><path class="h" d="m308.1 1116.4c0.4 48.2-2 159.1-8.3 205.1h-23.3c-12.9 0-19.4-0.2-19.4-0.2-15.7-79.9-26.9-145.9-35.1-202.9-6.7-46.7-12.7-86.7-17.2-121.2-4.6-34.7-7.9-63.8-9-88.3q-0.3-5.8-0.4-11.3-0.1-5.5 0-10.7l127.2-12.4c-1.6 84.5-14.7 213.8-14.5 241.9z"/><path class="g" d="m276.5 1321.5c-12.9 0-19.4-0.2-19.4-0.2-15.7-79.9-26.9-145.9-35.1-202.9-6.7-46.7-12.7-86.7-17.2-121.2-4.6-34.7-7.9-63.8-9-88.3l46.7 27.4c0 0-29.8 10.6-18.4 90.1 11.3 79.6 36.5 283.8 52.4 295.1z"/><path class="d" d="m282.5 908.1c0 0-9 32.4-40 28.2-31-4.1-75.1-22.7-75.1-22.7 0 0 13.2-41.9 29.7-96.9 20-66.6 44.7-152.4 56.3-206.6 3.3-15.2 5.5-27.8 6.3-36.9l26.1-49.7c0 0 38 85.9 40.1 107.6 2 21.7-43.4 277-43.4 277z"/><path class="e" d="m281.1 676.6c-1.4 35.1-9.7 103.3-83.4 139.8q-0.3 0.2-0.6 0.3c20-66.6 44.7-152.4 56.3-206.6 13.5 20.3 28.4 47.1 27.7 66.5z"/><path class="m" d="m414.5 657.3c0 4.3-12.2 33.6-33.6 51.2-4.1 3.4-7.5 5-10.1 5.5-34.9 11.9-65.1 18.1-89.7 21.1v-38.9c30.4-1.9 67.7-4 83.1-4.8 2.6-4 5.5-9.7 6.5-15.5 1.9-10.7 7.6-18.6 22.5-20.6 14.9-2 21.3-2.2 21.3 2z"/><path class="d" d="m285.8 523.5c0 0-63.3 4.2-78.4 38-15.2 33.7-20 146.1-0.7 179.1 0 0 26.5 7.6 73.5-1.2q0.9-0.1 1.7-0.3c0 0 15-36.7 1.6-43.9 0 0-39.6 2-35.5-11.1 4.1-13.1 37.8-160.6 37.8-160.6z"/><path class="a" d="m1620.3 853.7l-37.1-0.5q-0.6-0.2-1.3-0.2-0.6 0-1.2 0.2c-4.8 1.5-8.7 12.1-8.8 24.9q0 1 0 2c0.1 5.7 1 10.8 2.4 14.8 1.4 4.3 3.4 7.3 5.8 8.1q0 0.1 0.1 0.1 0.6 0.2 1.3 0.2 0.6 0 1.3-0.2l324.7 4.4 0.4-24.8 0.3-25.1z"/><path class="r" d="m1762 900.9c-68.4 5.7-109.7-24.9-141.7-47.2l-37.1-0.5q-0.6-0.2-1.3-0.2-0.6 0-1.2 0.2c-4.8 1.5-8.7 12.1-8.8 24.9q0 1 0 2c0.1 5.7 1 10.8 2.4 14.8 2.4 4.6 4.6 7.6 5.8 8.1q0 0.1 0.1 0.1 0.6 0.2 1.3 0.2 0.6 0 1.3-0.2l324.7 4.4 0.4-24.8c-4.8 1.3-37 9.1-145.9 18.2z"/><path class="s" d="m1908.7 857.3c-5.4 0-9.9 11.2-10 25.1-0.1 13.9 4.2 25.2 9.6 25.2 5.4 0.1 9.9-11.1 10.1-25 0.1-13.9-4.2-25.2-9.7-25.3z"/><path class="d" d="m300.1 357c-12.5 3.1-21.9 8.1-28.8 14.2q-1.1 0.9-2.1 1.8c-25.8 24.7-15.5 63.9-15.5 63.9 0 0 3.4 10 5.8 13.8 2.4 3.9 36.7-0.6 38.5-8 1.8-7.4 8.6-15.1 8.6-15.1 0 0 36.2-2.5 38.6-2.6 8.2-0.6 31.5-8.8 31.5-8.8-0.2-2.3-13.4-75.1-76.6-59.2z"/><path class="e" d="m398.2 408.5c-4.4-1-11.8-2.2-24-2.6 0 0-23.6 9.2-43.9 15.6-9.6-12-23.5-41.8-59-50.3q-0.2-0.1-0.4-0.1c-0.7 0.9-1.1 1.3-1.7 1.9q-0.2 0.3-0.5 0.7c28.9 5 44.3 38.6 53.7 50.7-8.1 2-5.3 2.5-15.8 3.2 0 0 63.3 1.2 92.2-14 2.2-1.2 1.8-4.5-0.6-5.1z"/><path class="e" d="m1359 404.3c24.7-44.8 91.4-39.4 91.4-39.4-68-16.2-101.8 37.1-101.8 37.1l-2.9-1-15.4 4.2 137.6 27.7z"/><path fill-rule="evenodd" class="j" d="m1197.5 921.8h25.3v497.9h-25.3z"/><path fill-rule="evenodd" class="j" d="m2146.9 921.8h25.3v497.9h-25.3z"/><path fill-rule="evenodd" class="j" d="m2243.1 902.5v25.3h-1123.9v-25.3z"/><path fill-rule="evenodd" class="k" d="m1197.5 927.8h25.3v19h-25.3z"/><path fill-rule="evenodd" class="k" d="m2146.9 927.8h25.3v19h-25.3z"/><path class="d" d="m2214.9 856.4c0 0-3.4-4.8-9.7-10.1q-1.5-1.3-3.2-2.6c-11.5-8.9-29.9-17.5-52.2-8.4-6 2.5-11.1 5.9-15.3 9.8q-1.5 1.4-2.8 2.9c-19.4 21.3-18 54.9-18 54.9l111.4-0.6c0.6-31.1-10.2-45.9-10.2-45.9z"/><path class="e" d="m2193.8 902.5c-0.2-4.7-2.2-43.2 11.4-56.2-1-0.9-0.7-0.7-1.9-1.6-14.5 15-15.6 52.9-15.6 57.8l-35.6 0.2c-0.9-27.3-15.8-54.5-17.6-57.6-1 1-1.1 1.1-2 2.1 2.6 4.6 12.2 31 13.1 55.5l-31.8 0.2c0 0 29.6 7.8 51.9 7.7 22.4-0.2 59.4-8.3 59.4-8.3z"/><path class="a" d="m1841.1 853v25 24.9l-324.8 0.1q-0.6 0.2-1.3 0.2-0.6 0-1.3-0.2c-4.5-1.5-8.2-11-8.6-22.9q0-0.9 0-2c-0.1-12.8 3.6-23.4 8.5-25q0.6-0.2 1.2-0.2 0.6 0 1.2 0.2z"/><path class="r" d="m1841.1 878v24.9l-324.8 0.1q-0.6 0.2-1.3 0.2-0.6 0-1.3-0.2c-4.5-1.5-8.2-11-8.6-22.9 15 5.5 98.9 24.7 187.6 0.2 105.3-29.1 143.7-0.9 148.4-2.3z"/><path class="s" d="m1841.6 852.7c-5.4 0-9.8 11.3-9.7 25.2 0.1 13.9 4.6 25.1 10 25.1 5.4 0 9.7-11.3 9.7-25.2-0.1-13.9-4.6-25.1-10-25.1z"/><path class="t" d="m1453.6 524.4c0 0 79.5 82 83.3 112.9 3.8 31-37.8 79.3-37.8 79.3z"/><path class="n" d="m1419.6 1375.4c0 0-2.7 43.6-11.1 44.2-1.1 0.1-42.8 0.1-42.8 0.1l-53.2-0.3c0 0 0.3-12.8 15.9-15.6 15.5-2.7 41.6-13.6 51-34.1 9.9-21.7 40.2 5.7 40.2 5.7z"/><path class="n" d="m1538.1 1375.4c0 0-2.7 43.6-11.1 44.2-1.2 0.1-42.8 0.1-42.8 0.1l-53.4-0.2c0 0 0.5-12.9 16.1-15.7 15.5-2.7 41.5-13.6 51-34.1 9.9-21.7 40.2 5.7 40.2 5.7z"/><path class="g" d="m1360.7 907.7c0 0 13.9 89 65.8 246.9 51.9 158 59 226.4 59 226.4 0 0 14 2 28.9 2 9.3 0 26.8-3.6 26.8-3.6 0 0 0.4-172.6-23.5-252-23.9-79.5-5.1-286.4-5.1-286.4z"/><path class="h" d="m1333.6 845.9c0 0-2 134.1 21.2 298.7 23.2 164.7 15.4 234.5 15.4 234.5 0 0 19.1 3.5 25.8 3.7 7.2 0.2 29.7-1.8 29.7-1.8 0 0 33.2-164.7 23.7-247.1-9.5-82.4 45.5-282.8 45.5-282.8z"/><path class="u" d="m1441.2 532.1l-26.2 19.4-37.9-8c0.5-3.4 3-17.7 5.3-30.7q0.2-1.1 0.4-2.3c1.9-11 3.6-20.5 3.6-20.5l35.4-17.6 13.2-6.6c0 0.2-1 12.3-1.2 14-2.4 31.2 7.4 52.3 7.4 52.3z"/><path class="t" d="m1379.7 522.3c0.9-0.3 51.6-15.3 57.1-13.5 5.5 1.8 8.7 12.5 8.7 12.5l-82.9 18.7c0 0 6.5-13.2 17.1-17.7z"/><path class="i" d="m1516.2 862.4c-8.5 39.2-151.6 43.9-188.4 8.3-4.2-4-4.4-22.9-2.8-48.4 3.1-49.7 13-124.4 13.4-162.6 0.2-18.5 2.7-37.4 6.1-54.5 7.2-36.5 18.1-65.2 18.1-65.2 0 0 69.9-22.5 82.9-18.7 63 18.5 79.3 301.9 70.7 341.1z"/><path class="t" d="m1325 822.3c3.1-49.7 13-124.4 13.4-162.6 0.2-18.5 2.7-37.4 6.1-54.5l42-7.4c0 0 41.1 167.8-61.5 224.5z"/><path class="u" d="m1347.7 753.1c0 0 2.9 6.8-3.1 11.4-6 4.6-9.9 12-8.6 17.5 1.4 5.4 14.6 14.3 19.2 12.9 4.6-1.5 13.9-8.6 12.9-11.5-1-2.9 6.2-25.2-4.9-33.8-11.2-8.6-15.5 3.5-15.5 3.5z"/><path class="i" d="m1394.7 530c0 0-41 7.6-73.6 55.8-32.7 48.1-54.2 83.9-48.1 101.2 6 17.3 60.8 77.5 70.2 77.5 9.5 0 24.8-6.9 25.6-22.3 0 0-38.6-57.9-31-66.6 3.3-3.7 50.1-41.7 56.8-24.5 11.1 28.4 0.1-121.1 0.1-121.1z"/><path class="v" d="m1431.2 480.4c-7.8 14.8-36.7 27.7-48.8 32.4q0.2-1.1 0.4-2.3c1.9-11 3.6-20.5 3.6-20.5l35.4-17.6c7.8-0.1 12.6 1.8 9.4 8z"/><path class="u" d="m1375.2 493.7c0 0 62.4 7.2 66.3-31.8 3.9-39 14.5-64.3-25.2-70.5-39.7-6.3-48.9 7.8-53.4 20.5-4.5 12.7-3.9 78.9 12.3 81.8z"/><path class="g" d="m1364.5 407.9c0 0 12 42.3 20.5 38.7 8.5-3.5 16.3-6.5 17.5 6.7 1.1 13.2-8.3 30.5 19.5 27.6 27.8-2.9 53.7-81 43.6-92.9-29-34.5-141.4-21.1-101.1 19.9z"/><path class="d" d="m1467.9 432.9l-137.6-27.7 15.4-4.2c0 0 14.1-58.2 83.8-44.3 58 11.6 38.4 76.2 38.4 76.2z"/><path class="w" d="m2478.3 1425.4h-2460.6c-2.5 0-4.5-2-4.5-4.5 0-2.4 2-4.4 4.5-4.4h2460.6c2.5 0 4.5 2 4.5 4.4 0 2.5-2 4.5-4.5 4.5z"/></svg>