<svg version="1.2" xmlns="http://www.w3.org/2000/svg" viewBox="0 0 3054 1095" width="3054" height="1095"><style>.a{fill:#fff}.b{fill:#e9f3fe}.c{fill:#c3dafc}.d{fill:#d4e4f8}.e{fill:#618dc1}.f{fill:#2a4e96}.g{fill:#2b478b}.h{fill:#ed823a}.i{fill:#ff9e55}.j{fill:#dd732c}.k{fill:#ffb27d}.l{fill:#aec3ff}.m{fill:#dde7fe}.n{fill:#060633}.o{fill:#9dc3f3}.p{fill:#e3f0ff}.q{fill:#a9c8ed}.r{fill:#99b9ff}.s{fill:#d2e0ff}.t{fill:#c1d4f7}.u{fill:#699dee}.v{fill:#82b378}.w{fill:#a8d29f}.x{fill:#8aa8ed}.y{fill:#759cea}.z{fill:#8db0ff}.A{fill:#2e3552}.B{fill:#233862}.C{fill:#ff9843}.D{fill:#e27830}.E{fill:#ed975d}.F{fill:#f9ddbf}.G{fill:#192e4f}</style><path fill-rule="evenodd" class="a" d="m-78-444h3200v2000h-3200z"/><path class="b" d="m3017.2 957.8q-5.8 17.7-13.4 34.9-1.5 3.4-3.1 6.8c-12.7 27.5-28.9 53.7-48.7 77.9q-0.3 0.4-0.6 0.8-0.9 1.2-1.8 2.3-1.3 1.5-2.6 3-0.4 0.5-0.8 0.9l-674.6-0.9-2108.1-2.8c0 0-0.6-1.1-1.8-3.3-22.3-40.9-237.5-454.1 36.7-696.5 247.9-219.2 249.5-1.5 551.2-278.2 106.1-97.3 293.4-86.2 440.5 38.4 133.4 113 335.4 23.9 455.3-23.6 145.6-57.7 351-114.8 560.4-74.7 242 46.4 201.2 367.7 379.5 318.8 194-53.3 359.6 95.1 424.4 284.5q1.9 5.4 3.6 10.8 4.8 15 8.7 30.3 1.5 5.6 2.8 11.3c20.3 85.9 19.8 176.8-7.6 259.3z"/><path fill-rule="evenodd" class="c" d="m2929.3 728.4l-123.5 56.1-46.2-101.8 123.4-56.1z"/><path fill-rule="evenodd" class="d" d="m2991 700.3l-123.4 56.1-46.3-101.8 123.5-56.1z"/><path fill-rule="evenodd" class="e" d="m2835.6 686.3l19.6-8.9-4.3-4.8v-4.7l-19.6 8.9z"/><path fill-rule="evenodd" class="f" d="m2831.3 676.8l-19.5 8.9 4.2 4.7v4.7l19.6-8.8z"/><path fill-rule="evenodd" class="e" d="m2979.8 675.7l-19.6 8.9 4.2 4.7 0.1 4.7 19.6-8.8z"/><path fill-rule="evenodd" class="a" d="m2904.2 625.5l35.6-16.1 6.3 13.8-35.6 16.1z"/><path class="g" d="m3033.4 1078.2c0.6 0.5 1 1.3 1 2.2v0.1h-229.5l-0.2-2.3-0.1-0.8-8.4-77.9-0.7-6.8-20.7-193.5-0.2-1.5 247.4-110.5q1.5 5.6 2.8 11.3c20.3 85.9 19.8 176.8-7.6 259.3q-5.8 17.7-13.4 34.9-1.5 3.4-3.1 6.8c-12.7 27.5-28.9 53.7-48.7 77.9h79.4c0.8 0 1.4 0.3 2 0.8z"/><path fill-rule="evenodd" class="h" d="m2218.4 552.4h140.5v115.8h-140.5z"/><path fill-rule="evenodd" class="i" d="m2148.2 552.4h140.4v115.8h-140.4z"/><path fill-rule="evenodd" class="j" d="m2358.8 638.8h-22.3l2-6.2-2-4.5h22.3z"/><path fill-rule="evenodd" class="k" d="m2288.6 588.2h-22.2l1.9-6.2-1.9-4.5h22.2z"/><path fill-rule="evenodd" class="j" d="m2288.6 577.5h22.3l-2 6.3 2 4.4h-22.3z"/><path fill-rule="evenodd" class="k" d="m2148.2 640.1h22.2l-1.9 6.2 1.9 4.5h-22.2z"/><path fill-rule="evenodd" class="a" d="m2197.8 576h-40.4v-15.8h40.4z"/><path class="g" d="m2363.9 237.4c-20.1 0-41.3-3.2-53-9.9-18.6-10.8-42.3-6.2-42.5-6.2l-0.6-2.8c1-0.2 25-4.9 44.6 6.5 19.3 11.1 67.4 12.1 89.1 4.7 21.4-7.3 49.9-15.1 61.7-15.1v2.9c-11.5 0-39.6 7.7-60.8 15-9.6 3.2-23.8 4.9-38.5 4.9z"/><path fill-rule="evenodd" class="g" d="m2238.9 445.6h9.2v60.1h-9.2z"/><path fill-rule="evenodd" class="g" d="m2257.2 445.6h9.2v60.1h-9.2z"/><path class="g" d="m2363.9 231c-20.1 0-41.3-3.2-53-10-18.6-10.8-42.3-6.2-42.5-6.1l-0.6-2.9c1-0.2 25-4.8 44.6 6.5 19.3 11.1 67.4 12.1 89.1 4.7 21.4-7.3 49.9-15.1 61.7-15.1v2.9c-11.5 0-39.6 7.8-60.8 15-9.6 3.3-23.8 5-38.5 5z"/><path class="g" d="m2756.2 803.8h-2.9c0-24.9-20.2-45.2-45.1-45.2h-62.7c-12.9 0-23.4-10.5-23.4-23.4 0-41.7-34-75.6-75.7-75.6v-2.9c43.3 0 78.6 35.2 78.6 78.5 0 11.3 9.2 20.5 20.5 20.5h62.7c26.5 0 48 21.6 48 48.1z"/><path class="g" d="m2756.2 824.2h-2.9c0-24.9-20.2-45.1-45.1-45.1h-62.7c-12.9 0-23.4-10.5-23.4-23.4 0-41.7-34-75.7-75.7-75.7v-2.9c43.3 0 78.6 35.3 78.6 78.6 0 11.3 9.2 20.5 20.5 20.5h62.7c26.5 0 48 21.5 48 48z"/><path class="g" d="m2557.9 582.2h-3.8v-2.9h3.8c17.7 0 32.1-14.4 32.1-32.1v-332.6c0-17.7-14.4-32.1-32.1-32.1h-28.4v-2.9h28.4c19.3 0 35 15.7 35 35v332.6c0 19.3-15.7 35-35 35z"/><path class="g" d="m2554.1 554.1v-3c12.3 0 22.3-10 22.3-22.3v-309.1c0-12-9.7-21.7-21.6-21.7h-22.5v-2.9h22.5c13.5 0 24.5 11 24.5 24.6v309.1c0 13.9-11.3 25.3-25.2 25.3z"/><path class="l" d="m2291.2 459h-79.6c-11.4 0-20.5-9.2-20.5-20.5v-177.8c0-11.3 9.1-20.5 20.5-20.5h79.6c11.3 0 20.5 9.2 20.5 20.5v177.8c0 11.3-9.2 20.5-20.5 20.5z"/><path class="m" d="m2213.6 271.3c0-5.8 4.7-10.5 10.5-10.5 5.8 0 10.5 4.7 10.5 10.5 0 5.8-4.7 10.5-10.5 10.5-5.8 0-10.5-4.7-10.5-10.5z"/><path class="m" d="m2213.6 420.9c0-5.8 4.7-10.5 10.5-10.5 5.8 0 10.5 4.7 10.5 10.5 0 5.8-4.7 10.5-10.5 10.5-5.8 0-10.5-4.7-10.5-10.5z"/><path class="m" d="m2268.1 271.3c0-5.8 4.7-10.5 10.5-10.5 5.8 0 10.5 4.7 10.5 10.5 0 5.8-4.7 10.5-10.5 10.5-5.8 0-10.5-4.7-10.5-10.5z"/><path class="m" d="m2268.1 420.9c0-5.8 4.7-10.5 10.5-10.5 5.8 0 10.5 4.7 10.5 10.5 0 5.8-4.7 10.5-10.5 10.5-5.8 0-10.5-4.7-10.5-10.5z"/><path class="i" d="m2296.1 516c0 2.2-0.4 4.3-1.3 6.3h-82.4c-0.9-2-1.4-4.1-1.4-6.3 0-13.6 19-24.7 42.6-24.7 23.5 0 42.5 11.1 42.5 24.7z"/><path class="g" d="m2367.5 544.2v112c0 9-4.4 17.4-11.8 22.5l-34.1 23.6c-2.5 1.7-5.8 1.1-7.5-1.4-1.7-2.4-1.1-5.8 1.3-7.5l34.2-23.5c4.5-3.1 7.2-8.2 7.2-13.7v-112c0-12.1-9.9-21.9-22-21.9h-162.5c-12.1 0-21.9 9.8-21.9 21.9v111.4c0 5.7 2.9 11 7.8 14l38.1 23.9c2.5 1.6 3.3 4.9 1.7 7.4-1.5 2.5-4.9 3.3-7.4 1.7l-38.2-23.8c-8-5.1-12.8-13.7-12.8-23.2v-111.4c0-18 14.6-32.7 32.7-32.7h162.5c18.1 0 32.7 14.7 32.7 32.7z"/><path fill-rule="evenodd" class="n" d="m2248.1 172.8h223.9v6.8h-223.9z"/><path fill-rule="evenodd" class="n" d="m2248.1 191.7h223.9v6.7h-223.9z"/><path class="i" d="m2280.4 240.2h-66.8v-46.9c0-19 15.5-34.4 34.5-34.4 19 0 34.5 15.4 34.5 34.4v44.7c0 1.2-1 2.2-2.2 2.2z"/><path class="l" d="m2517.4 158.9h-34c-16 0-29 12.9-29 28.9v607.4c0 16 13 29 29 29h34c16.1 0 29-13 29-29v-607.4c0-16-12.9-28.9-29-28.9z"/><path class="n" d="m2495.1 191.2c0-3 2.4-5.4 5.3-5.4 3 0 5.4 2.4 5.4 5.4 0 2.9-2.4 5.3-5.4 5.3-2.9 0-5.3-2.4-5.3-5.3z"/><path class="h" d="m2539.9 696.4h-82.3c-7.8 0-14.2-6.3-14.2-14.1v-415.5c0-7.9 6.4-14.2 14.2-14.2h82.3c7.8 0 14.2 6.3 14.2 14.2v415.5c0 7.8-6.4 14.1-14.2 14.1z"/><path fill-rule="evenodd" class="g" d="m2443.4 720.7h117.1v74.7h-117.1z"/><path fill-rule="evenodd" class="i" d="m2537.5 568.3c-3.7 21.4-24 35.7-45.4 32-21.4-3.7-35.7-24-32-45.4 3.7-21.3 24-35.6 45.4-31.9 21.4 3.7 35.7 24 32 45.3z"/><path class="g" d="m2498.8 602c-22.4 0-40.5-18.1-40.5-40.5 0-22.3 18.1-40.4 40.5-40.4 22.3 0 40.4 18.1 40.4 40.4 0 22.4-18.1 40.5-40.4 40.5zm0-78.5c-21 0-38.1 17.1-38.1 38 0 21 17.1 38.1 38.1 38.1 20.9 0 38-17.1 38-38.1 0-20.9-17.1-38-38-38z"/><path class="k" d="m2474.8 561.5c0-13.2 10.7-23.9 24-23.9 13.2 0 23.9 10.7 23.9 23.9 0 13.3-10.7 24-23.9 24-13.3 0-24-10.7-24-24z"/><path class="i" d="m2227.7 191.7c0-11.2 9.1-20.4 20.4-20.4 11.3 0 20.4 9.2 20.4 20.4 0 11.3-9.1 20.4-20.4 20.4-11.3 0-20.4-9.1-20.4-20.4z"/><path class="g" d="m2248.1 212.7c-11.6 0-21-9.4-21-21 0-11.6 9.4-21 21-21 11.6 0 21 9.4 21 21 0 11.6-9.4 21-21 21zm0-40.7c-10.9 0-19.7 8.8-19.7 19.7 0 10.9 8.8 19.8 19.7 19.8 10.9 0 19.7-8.9 19.7-19.8 0-10.9-8.8-19.7-19.7-19.7z"/><path class="h" d="m2235.7 191.7c0-6.9 5.5-12.4 12.4-12.4 6.9 0 12.4 5.5 12.4 12.4 0 6.9-5.5 12.4-12.4 12.4-6.9 0-12.4-5.5-12.4-12.4z"/><g style="opacity:.2"><path fill-rule="evenodd" class="c" d="m840 442h-139.2v-114.8h139.2z"/><path fill-rule="evenodd" class="d" d="m909.6 442h-139.2v-114.8h139.2z"/><path fill-rule="evenodd" class="o" d="m700.9 412.9h22l-1.9-6.3 1.9-4.4h-22z"/><path fill-rule="evenodd" class="p" d="m770.4 362.7h22l-1.9-6.2 1.9-4.4h-22z"/><path fill-rule="evenodd" class="o" d="m770.4 352.1h-22.1l2 6.2-2 4.4h22.1z"/><path fill-rule="evenodd" class="p" d="m909.6 414.1h-22.1l2 6.2-2 4.4h22.1z"/><path fill-rule="evenodd" class="a" d="m860.4 335h40.1v15.6h-40.1z"/><path fill-rule="evenodd" class="c" d="m594.2 442h-139.2v-114.8h139.2z"/><path fill-rule="evenodd" class="d" d="m663.8 442h-139.2v-114.8h139.2z"/><path fill-rule="evenodd" class="o" d="m455.1 412.9h22l-1.9-6.3 1.9-4.4h-22z"/><path fill-rule="evenodd" class="p" d="m524.6 362.7h22l-1.9-6.2 1.9-4.4h-22z"/><path fill-rule="evenodd" class="o" d="m524.6 352.1h-22.1l2 6.2-2 4.4h22.1z"/><path fill-rule="evenodd" class="p" d="m663.8 414.1h-22.1l2 6.2-2 4.4h22.1z"/><path fill-rule="evenodd" class="a" d="m614.6 335h40.1v15.6h-40.1z"/><path fill-rule="evenodd" class="c" d="m365 442h53.5v638.5h-53.5z"/><path fill-rule="evenodd" class="c" d="m951.9 442h44.5v638.5h-44.5z"/><path fill-rule="evenodd" class="c" d="m418.5 442h577.9v16.6h-577.9z"/><path fill-rule="evenodd" class="c" d="m418.5 744.6h577.9v16.6h-577.9z"/><path fill-rule="evenodd" class="c" d="m418.5 998.4h577.9v16.6h-577.9z"/><path fill-rule="evenodd" class="q" d="m854.3 744.6h-143.9v-118.7h143.9z"/><path fill-rule="evenodd" class="d" d="m926.3 744.6h-143.9v-118.7h143.9z"/><path fill-rule="evenodd" class="o" d="m710.5 714.5h22.8l-2-6.4 2-4.6h-22.8z"/><path fill-rule="evenodd" class="p" d="m782.4 662.7h22.8l-2-6.4 2-4.6h-22.8z"/><path fill-rule="evenodd" class="o" d="m782.4 651.7h-22.8l2 6.4-2 4.6h22.8z"/><path fill-rule="evenodd" class="p" d="m926.3 715.8h-22.8l2 6.4-2 4.6h22.8z"/><path fill-rule="evenodd" class="a" d="m875.4 634h41.5v16.1h-41.5z"/><path fill-rule="evenodd" class="c" d="m669.7 744.6h-143.9v-118.7h143.9z"/><path fill-rule="evenodd" class="d" d="m741.6 744.6h-143.9v-118.7h143.9z"/><path fill-rule="evenodd" class="o" d="m525.8 714.5h22.8l-2-6.4 2-4.6h-22.8z"/><path fill-rule="evenodd" class="p" d="m597.7 662.7h22.8l-2-6.4 2-4.6h-22.8z"/><path fill-rule="evenodd" class="o" d="m597.7 651.7h-22.8l2 6.4-2 4.6h22.8z"/><path fill-rule="evenodd" class="p" d="m741.6 715.8h-22.8l2 6.4-2 4.6h22.8z"/><path fill-rule="evenodd" class="p" d="m741.6 650.1h-22.8l2 6.4-2 4.6h22.8z"/><path fill-rule="evenodd" class="a" d="m612.2 705.6h67.5v26.3h-67.5z"/><path fill-rule="evenodd" class="c" d="m834.8 998h-124.4v-102.5h124.4z"/><path fill-rule="evenodd" class="d" d="m897 998h-124.4v-102.5h124.4z"/><path fill-rule="evenodd" class="o" d="m710.5 972h19.7l-1.7-5.5 1.7-4h-19.7z"/><path fill-rule="evenodd" class="p" d="m772.6 927.2h19.7l-1.7-5.5 1.7-4h-19.7z"/><path fill-rule="evenodd" class="o" d="m772.6 917.7h-19.7l1.7 5.6-1.7 3.9h19.7z"/><path fill-rule="evenodd" class="p" d="m897 973.1h-19.7l1.7 5.6-1.7 3.9h19.7z"/><path fill-rule="evenodd" class="a" d="m853.1 902.4h35.7v14h-35.7z"/><path fill-rule="evenodd" class="c" d="m618.1 998h-143.9v-118.6h143.9z"/><path fill-rule="evenodd" class="d" d="m690.1 998h-143.9v-118.6h143.9z"/><path fill-rule="evenodd" class="f" d="m474.3 968h22.8l-2-6.5 2-4.5h-22.8z"/><path fill-rule="evenodd" class="e" d="m546.2 916.1h22.8l-2-6.4 2-4.6h-22.8z"/><path fill-rule="evenodd" class="f" d="m546.2 905.1h-22.8l2 6.4-2 4.6h22.8z"/><path fill-rule="evenodd" class="e" d="m690.1 969.2h-22.8l2 6.4-2 4.6h22.8z"/><path fill-rule="evenodd" class="a" d="m639.2 887.4h41.4v16.1h-41.4z"/><path fill-rule="evenodd" class="c" d="m624.7 625.4h-110v-90.7h110z"/><path fill-rule="evenodd" class="d" d="m679.7 625.4h-110v-90.7h110z"/><path fill-rule="evenodd" class="o" d="m514.8 602.4h17.4l-1.5-4.9 1.5-3.5h-17.4z"/><path fill-rule="evenodd" class="p" d="m569.7 562.8h17.5l-1.6-4.9 1.6-3.5h-17.5z"/><path fill-rule="evenodd" class="o" d="m569.7 554.4h-17.4l1.5 4.9-1.5 3.5h17.4z"/><path fill-rule="evenodd" class="p" d="m679.7 603.4h-17.4l1.5 4.9-1.5 3.5h17.4z"/><path fill-rule="evenodd" class="a" d="m640.9 540.8h31.6v12.4h-31.6z"/><path fill-rule="evenodd" class="c" d="m821.3 625.4h-110v-90.7h110z"/><path fill-rule="evenodd" class="d" d="m876.3 625.4h-110v-90.7h110z"/><path fill-rule="evenodd" class="o" d="m711.3 602.4h17.5l-1.6-4.9 1.6-3.5h-17.5z"/><path fill-rule="evenodd" class="p" d="m766.3 562.8h17.4l-1.5-4.9 1.5-3.5h-17.4z"/><path fill-rule="evenodd" class="o" d="m766.3 554.4h-17.5l1.6 4.9-1.6 3.5h17.5z"/><path fill-rule="evenodd" class="p" d="m876.3 603.4h-17.4l1.5 4.9-1.5 3.5h17.4z"/><path fill-rule="evenodd" class="a" d="m837.4 540.8h31.7v12.4h-31.7z"/></g><g style="opacity:.4"><path fill-rule="evenodd" class="c" d="m1958.5 420.5h-143.9v-118.6h143.9z"/><path fill-rule="evenodd" class="d" d="m2030.4 420.5h-143.8v-118.6h143.8z"/><path fill-rule="evenodd" class="o" d="m1814.7 390.5h22.8l-2-6.4 2-4.6h-22.8z"/><path fill-rule="evenodd" class="p" d="m1886.6 338.6h22.7l-2-6.4 2-4.6h-22.7z"/><path fill-rule="evenodd" class="o" d="m1886.6 327.6h-22.8l2 6.5-2 4.5h22.8z"/><path fill-rule="evenodd" class="p" d="m2030.4 391.7h-22.8l2 6.5-2 4.5h22.8z"/><path fill-rule="evenodd" class="a" d="m1979.6 310h41.4v16.1h-41.4z"/><path fill-rule="evenodd" class="c" d="m1704.4 420.5h-143.8v-118.6h143.8z"/><path fill-rule="evenodd" class="d" d="m1776.4 420.5h-143.9v-118.6h143.9z"/><path fill-rule="evenodd" class="o" d="m1560.7 390.5h22.8l-2-6.4 2-4.6h-22.8z"/><path fill-rule="evenodd" class="p" d="m1632.5 338.6h22.8l-2-6.4 2-4.6h-22.8z"/><path fill-rule="evenodd" class="o" d="m1632.5 327.6h-22.8l2 6.5-2 4.5h22.8z"/><path fill-rule="evenodd" class="p" d="m1776.4 391.7h-22.8l2 6.5-2 4.5h22.8z"/><path fill-rule="evenodd" class="a" d="m1725.5 310h41.4v16.1h-41.4z"/><path fill-rule="evenodd" class="c" d="m1467.5 420.5h55.4v660h-55.4z"/><path fill-rule="evenodd" class="c" d="m2074.1 420.5h46v660h-46z"/><path fill-rule="evenodd" class="c" d="m1522.9 420.5h597.2v17.2h-597.2z"/><path fill-rule="evenodd" class="c" d="m1522.9 733.3h597.2v17.2h-597.2z"/><path fill-rule="evenodd" class="c" d="m1522.9 995.7h597.2v17.2h-597.2z"/><path fill-rule="evenodd" class="q" d="m1973.3 733.3h-148.7v-122.6h148.7z"/><path fill-rule="evenodd" class="d" d="m2047.7 733.3h-148.8v-122.6h148.8z"/><path fill-rule="evenodd" class="o" d="m1824.7 702.2h23.5l-2-6.6 2-4.7h-23.5z"/><path fill-rule="evenodd" class="p" d="m1898.9 648.7h23.6l-2.1-6.7 2.1-4.7h-23.6z"/><path fill-rule="evenodd" class="o" d="m1898.9 637.3h-23.5l2.1 6.6-2.1 4.8h23.5z"/><path fill-rule="evenodd" class="p" d="m2047.7 703.6h-23.6l2.1 6.6-2.1 4.7h23.6z"/><path fill-rule="evenodd" class="a" d="m1995.1 619h42.8v16.7h-42.8z"/><path fill-rule="evenodd" class="c" d="m1782.4 733.3h-148.7v-122.6h148.7z"/><path fill-rule="evenodd" class="d" d="m1856.8 733.3h-148.7v-122.6h148.7z"/><path fill-rule="evenodd" class="o" d="m1633.8 702.2h23.6l-2.1-6.6 2.1-4.7h-23.6z"/><path fill-rule="evenodd" class="p" d="m1708.1 648.7h23.6l-2.1-6.7 2.1-4.7h-23.6z"/><path fill-rule="evenodd" class="o" d="m1708.1 637.3h-23.6l2.1 6.6-2.1 4.8h23.6z"/><path fill-rule="evenodd" class="p" d="m1856.8 703.6h-23.6l2.1 6.6-2.1 4.7h23.6z"/><path fill-rule="evenodd" class="p" d="m1856.8 635.7h-23.6l2.1 6.6-2.1 4.7h23.6z"/><path fill-rule="evenodd" class="a" d="m1723.1 693.1h69.8v27.1h-69.8z"/><path fill-rule="evenodd" class="c" d="m1953.1 995.3h-128.5v-106h128.5z"/><path fill-rule="evenodd" class="d" d="m2017.4 995.3h-128.5v-106h128.5z"/><path fill-rule="evenodd" class="o" d="m1824.7 968.4h20.3l-1.8-5.7 1.8-4.1h-20.3z"/><path fill-rule="evenodd" class="p" d="m1888.9 922.1h20.3l-1.8-5.7 1.8-4.1h-20.3z"/><path fill-rule="evenodd" class="o" d="m1888.9 912.3h-20.4l1.8 5.7-1.8 4.1h20.4z"/><path fill-rule="evenodd" class="p" d="m2017.4 969.5h-20.4l1.8 5.8-1.8 4.1h20.4z"/><path fill-rule="evenodd" class="a" d="m1972 896.5h37v14.4h-37z"/><path fill-rule="evenodd" class="c" d="m1729.2 995.3h-148.7v-122.6h148.7z"/><path fill-rule="evenodd" class="d" d="m1803.5 995.3h-148.7v-122.6h148.7z"/><path fill-rule="evenodd" class="f" d="m1580.5 964.2h23.6l-2.1-6.6 2.1-4.8h-23.6z"/><path fill-rule="evenodd" class="e" d="m1654.8 910.6h23.6l-2.1-6.6 2.1-4.8h-23.6z"/><path fill-rule="evenodd" class="f" d="m1654.8 899.2h-23.5l2 6.7-2 4.7h23.5z"/><path fill-rule="evenodd" class="e" d="m1803.5 965.5h-23.5l2.1 6.6-2.1 4.8h23.5z"/><path fill-rule="evenodd" class="a" d="m1751 881h42.8v16.6h-42.8z"/><path fill-rule="evenodd" class="c" d="m1736 610.1h-113.7v-93.7h113.7z"/><path fill-rule="evenodd" class="d" d="m1792.9 610.1h-113.7v-93.7h113.7z"/><path fill-rule="evenodd" class="o" d="m1622.4 586.4h18l-1.6-5.1 1.6-3.6h-18z"/><path fill-rule="evenodd" class="p" d="m1679.2 545.4h18l-1.6-5.1 1.6-3.6h-18z"/><path fill-rule="evenodd" class="o" d="m1679.2 536.7h-18.1l1.6 5.1-1.6 3.6h18.1z"/><path fill-rule="evenodd" class="p" d="m1792.9 587.4h-18.1l1.6 5-1.6 3.7h18.1z"/><path fill-rule="evenodd" class="a" d="m1752.7 522.7h32.7v12.8h-32.7z"/><path fill-rule="evenodd" class="c" d="m1939.2 610.1h-113.7v-93.7h113.7z"/><path fill-rule="evenodd" class="d" d="m1996 610.1h-113.7v-93.7h113.7z"/><path fill-rule="evenodd" class="o" d="m1825.5 586.4h18l-1.5-5.1 1.5-3.6h-18z"/><path fill-rule="evenodd" class="p" d="m1882.3 545.4h18l-1.6-5.1 1.6-3.6h-18z"/><path fill-rule="evenodd" class="o" d="m1882.3 536.7h-18l1.6 5.1-1.6 3.6h18z"/><path fill-rule="evenodd" class="p" d="m1996 587.4h-18l1.6 5-1.6 3.7h18z"/><path fill-rule="evenodd" class="a" d="m1955.8 522.7h32.8v12.8h-32.8z"/></g><path class="r" d="m3017.2 957.8q-5.8 17.7-13.4 34.9-1.5 3.4-3.1 6.8h-189.9l-0.7-6.8-18.7-189.6 8.7-3.9 224.7-100.7c20.3 85.9 19.8 176.8-7.6 259.3z"/><path fill-rule="evenodd" class="c" d="m1253.7 1077.1h-191v-157.5h191z"/><path fill-rule="evenodd" class="d" d="m1349.2 1077.1h-191v-157.5h191z"/><path fill-rule="evenodd" class="o" d="m1062.9 1037.2h30.2l-2.6-8.6 2.6-6h-30.2z"/><path fill-rule="evenodd" class="p" d="m1158.2 968.4h30.3l-2.7-8.6 2.7-6h-30.3z"/><path fill-rule="evenodd" class="o" d="m1158.2 953.8h-30.2l2.6 8.5-2.6 6.1h30.2z"/><path fill-rule="evenodd" class="p" d="m1349.2 1038.9h-30.2l2.6 8.5-2.6 6.1h30.2z"/><path fill-rule="evenodd" class="a" d="m1281.8 930.3h54.9v21.4h-54.9z"/><path fill-rule="evenodd" class="c" d="m1271.2 918.9h-191v-157.4h191z"/><path fill-rule="evenodd" class="d" d="m1366.7 918.9h-191v-157.4h191z"/><path fill-rule="evenodd" class="o" d="m1080.3 879h30.3l-2.7-8.5 2.7-6.1h-30.3z"/><path fill-rule="evenodd" class="p" d="m1175.7 810.2h30.3l-2.7-8.5 2.7-6.1h-30.3z"/><path fill-rule="evenodd" class="o" d="m1175.7 795.6h-30.2l2.6 8.5-2.6 6.1h30.2z"/><path fill-rule="evenodd" class="p" d="m1366.7 880.7h-30.3l2.7 8.5-2.7 6.1h30.3z"/><path fill-rule="evenodd" class="a" d="m1299.2 772.1h55v21.4h-55z"/><path fill-rule="evenodd" class="h" d="m1460.7 672.1h148.5v122.4h-148.5z"/><path fill-rule="evenodd" class="i" d="m1386.5 672.1h148.5v122.4h-148.5z"/><path fill-rule="evenodd" class="j" d="m1609.1 763.5h-23.5l2-6.6-2-4.7h23.5z"/><path fill-rule="evenodd" class="k" d="m1535 710h-23.6l2.1-6.6-2.1-4.7h23.6z"/><path fill-rule="evenodd" class="j" d="m1535 698.7h23.5l-2.1 6.6 2.1 4.7h-23.5z"/><path fill-rule="evenodd" class="k" d="m1386.5 764.8h23.5l-2.1 6.6 2.1 4.8h-23.5z"/><path fill-rule="evenodd" class="a" d="m1438.9 697h-42.7v-16.6h42.7z"/><path fill-rule="evenodd" class="h" d="m1998.6 675.3h148.5v122.4h-148.5z"/><path fill-rule="evenodd" class="i" d="m1924.4 675.3h148.5v122.4h-148.5z"/><path fill-rule="evenodd" class="j" d="m2147 766.7h-23.5l2.1-6.6-2.1-4.8h23.5z"/><path fill-rule="evenodd" class="k" d="m2072.9 713.2h-23.6l2.1-6.6-2.1-4.8h23.6z"/><path fill-rule="evenodd" class="j" d="m2072.9 701.8h23.5l-2.1 6.7 2.1 4.7h-23.5z"/><path fill-rule="evenodd" class="k" d="m1924.4 768h23.5l-2.1 6.6 2.1 4.7h-23.5z"/><path fill-rule="evenodd" class="a" d="m1976.8 700.2h-42.7v-16.6h42.7z"/><path fill-rule="evenodd" class="l" d="m325.4 491.3h-52.2v586.9h88.5v-289.5l-36.3-148.7z"/><path fill-rule="evenodd" class="s" d="m325.4 491.3h289.4v148.7h-289.4z"/><path fill-rule="evenodd" class="s" d="m361.7 788.7h289.4v289.5h-289.4z"/><path fill-rule="evenodd" class="t" d="m651.1 788.7h-289.4l-36.3-148.7h289.4z"/><path fill-rule="evenodd" class="l" d="m366.5 669.6h-7.6l-2.9-10.8h7.6z"/><path fill-rule="evenodd" class="l" d="m383.7 669.6h-7.6l-2.9-10.8h7.6z"/><path fill-rule="evenodd" class="l" d="m400.9 669.6h-7.6l-2.9-10.8h7.6z"/><path fill-rule="evenodd" class="l" d="m418.1 669.6h-7.5l-2.9-10.8h7.5z"/><path fill-rule="evenodd" class="l" d="m435.3 669.6h-7.5l-2.9-10.8h7.5z"/><path fill-rule="evenodd" class="l" d="m452.6 669.6h-7.6l-2.9-10.8h7.6z"/><path fill-rule="evenodd" class="l" d="m371.9 689.7h-7.6l-2.9-10.8h7.6z"/><path fill-rule="evenodd" class="l" d="m389.1 689.7h-7.6l-2.9-10.8h7.6z"/><path fill-rule="evenodd" class="l" d="m406.3 689.7h-7.6l-2.8-10.8h7.5z"/><path fill-rule="evenodd" class="l" d="m423.5 689.7h-7.5l-2.9-10.8h7.5z"/><path fill-rule="evenodd" class="l" d="m440.7 689.7h-7.5l-2.9-10.8h7.5z"/><path fill-rule="evenodd" class="l" d="m458 689.7h-7.6l-2.9-10.8h7.6z"/><path fill-rule="evenodd" class="l" d="m377.5 710.5h-7.6l-2.9-10.8h7.6z"/><path fill-rule="evenodd" class="l" d="m394.7 710.5h-7.6l-2.9-10.8h7.6z"/><path fill-rule="evenodd" class="l" d="m411.9 710.5h-7.6l-2.9-10.8h7.6z"/><path fill-rule="evenodd" class="l" d="m429.1 710.5h-7.5l-2.9-10.8h7.5z"/><path fill-rule="evenodd" class="l" d="m446.3 710.5h-7.5l-2.9-10.8h7.5z"/><path fill-rule="evenodd" class="l" d="m463.6 710.5h-7.6l-2.9-10.8h7.6z"/><path fill-rule="evenodd" class="l" d="m382.9 730.6h-7.6l-2.9-10.7h7.6z"/><path fill-rule="evenodd" class="l" d="m400.1 730.6h-7.6l-2.9-10.7h7.6z"/><path fill-rule="evenodd" class="l" d="m417.3 730.6h-7.6l-2.8-10.7h7.5z"/><path fill-rule="evenodd" class="l" d="m434.5 730.6h-7.5l-2.9-10.7h7.5z"/><path fill-rule="evenodd" class="l" d="m451.7 730.6h-7.5l-2.9-10.7h7.5z"/><path fill-rule="evenodd" class="l" d="m469 730.6h-7.6l-2.9-10.7h7.6z"/><path fill-rule="evenodd" class="l" d="m486.3 669.6h-7.6l-2.9-10.8h7.6z"/><path fill-rule="evenodd" class="l" d="m503.5 669.6h-7.6l-2.9-10.8h7.6z"/><path fill-rule="evenodd" class="l" d="m520.7 669.6h-7.6l-2.8-10.8h7.5z"/><path fill-rule="evenodd" class="l" d="m537.9 669.6h-7.5l-2.9-10.8h7.5z"/><path fill-rule="evenodd" class="l" d="m555.1 669.6h-7.5l-2.9-10.8h7.6z"/><path fill-rule="evenodd" class="l" d="m572.4 669.6h-7.6l-2.9-10.8h7.6z"/><path fill-rule="evenodd" class="l" d="m491.7 689.7h-7.6l-2.9-10.8h7.6z"/><path fill-rule="evenodd" class="l" d="m508.9 689.7h-7.6l-2.9-10.8h7.6z"/><path fill-rule="evenodd" class="l" d="m526.1 689.7h-7.5l-2.9-10.8h7.5z"/><path fill-rule="evenodd" class="l" d="m543.3 689.7h-7.5l-2.9-10.8h7.5z"/><path fill-rule="evenodd" class="l" d="m560.5 689.7h-7.5l-2.9-10.8h7.6z"/><path fill-rule="evenodd" class="l" d="m577.8 689.7h-7.6l-2.9-10.8h7.6z"/><path fill-rule="evenodd" class="l" d="m497.3 710.5h-7.6l-2.9-10.8h7.6z"/><path fill-rule="evenodd" class="l" d="m514.5 710.5h-7.6l-2.9-10.8h7.6z"/><path fill-rule="evenodd" class="l" d="m531.7 710.5h-7.6l-2.8-10.8h7.5z"/><path fill-rule="evenodd" class="l" d="m548.9 710.5h-7.5l-2.9-10.8h7.5z"/><path fill-rule="evenodd" class="l" d="m566.1 710.5h-7.5l-2.9-10.8h7.5z"/><path fill-rule="evenodd" class="l" d="m583.4 710.5h-7.6l-2.9-10.8h7.6z"/><path fill-rule="evenodd" class="l" d="m502.7 730.6h-7.6l-2.9-10.7h7.6z"/><path fill-rule="evenodd" class="l" d="m519.9 730.6h-7.6l-2.9-10.7h7.6z"/><path fill-rule="evenodd" class="l" d="m537.1 730.6h-7.6l-2.8-10.7h7.5z"/><path fill-rule="evenodd" class="l" d="m554.3 730.6h-7.5l-2.9-10.7h7.5z"/><path fill-rule="evenodd" class="l" d="m571.5 730.6h-7.5l-2.9-10.7h7.6z"/><path fill-rule="evenodd" class="l" d="m588.8 730.6h-7.6l-2.9-10.7h7.6z"/><path fill-rule="evenodd" class="g" d="m347.6 538.8h107.5v86.6h-107.5z"/><path fill-rule="evenodd" class="u" d="m447.5 538.8h7.7v86.6h-7.7z"/><path class="l" d="m640.9 1048.6h-258.9v-106.4h258.9c0 0 0 106.4 0 106.4zm-257.2-1.6h255.5v-103.1h-255.5z"/><path class="a" d="m521 516.2c0 3.2-1.8 5.8-4.1 5.8-2.2 0-4.1-2.6-4.1-5.8 0-3.2 1.9-5.9 4.1-5.9 2.3 0 4.1 2.7 4.1 5.9z"/><path class="i" d="m540.2 516.2c0 3.2-1.8 5.8-4.1 5.8-2.2 0-4.1-2.6-4.1-5.8 0-3.2 1.9-5.9 4.1-5.9 2.3 0 4.1 2.7 4.1 5.9z"/><path class="u" d="m559.4 516.2c0 3.2-1.8 5.8-4.1 5.8-2.2 0-4.1-2.6-4.1-5.8 0-3.2 1.9-5.9 4.1-5.9 2.3 0 4.1 2.7 4.1 5.9z"/><path class="a" d="m578.6 516.2c0 3.2-1.8 5.8-4.1 5.8-2.3 0-4.1-2.6-4.1-5.8 0-3.2 1.8-5.9 4.1-5.9 2.3 0 4.1 2.7 4.1 5.9z"/><path class="i" d="m597.8 516.2c0 3.2-1.8 5.8-4.1 5.8-2.3 0-4.1-2.6-4.1-5.8 0-3.2 1.8-5.9 4.1-5.9 2.3 0 4.1 2.7 4.1 5.9z"/><path class="l" d="m598.6 609.5h-84.9v-71.5h84.9zm-83.3-1.7h81.6v-68.2h-81.6z"/><path fill-rule="evenodd" class="b" d="m377 548.1h13.2v2.4h-13.2z"/><path fill-rule="evenodd" class="b" d="m351.6 548.1h20.6v2.4h-20.6z"/><path fill-rule="evenodd" class="b" d="m351.6 554.5h31.2v2.5h-31.2z"/><path fill-rule="evenodd" class="b" d="m387.1 554.5h20.7v2.5h-20.7z"/><path fill-rule="evenodd" class="b" d="m393 548.1h22.7v2.4h-22.7z"/><path fill-rule="evenodd" class="b" d="m351.6 565.7h20.6v2.4h-20.6z"/><path fill-rule="evenodd" class="b" d="m351.6 572.1h31.2v2.5h-31.2z"/><path fill-rule="evenodd" class="b" d="m387.1 572.1h20.7v2.5h-20.7z"/><path fill-rule="evenodd" class="b" d="m377 565.7h13.2v2.4h-13.2z"/><path fill-rule="evenodd" class="b" d="m393 565.7h22.7v2.4h-22.7z"/><path fill-rule="evenodd" class="b" d="m351.6 585.1h20.6v2.4h-20.6z"/><path fill-rule="evenodd" class="b" d="m351.6 591.5h31.2v2.5h-31.2z"/><path fill-rule="evenodd" class="b" d="m387.1 591.5h20.7v2.5h-20.7z"/><path fill-rule="evenodd" class="b" d="m377 585.1h13.2v2.4h-13.2z"/><path fill-rule="evenodd" class="b" d="m393 585.1h22.7v2.4h-22.7z"/><path fill-rule="evenodd" class="b" d="m351.6 603.8h20.6v2.4h-20.6z"/><path fill-rule="evenodd" class="b" d="m351.6 610.2h31.2v2.4h-31.2z"/><path fill-rule="evenodd" class="b" d="m387.1 610.2h20.7v2.4h-20.7z"/><path fill-rule="evenodd" class="b" d="m377 603.8h13.2v2.4h-13.2z"/><path fill-rule="evenodd" class="b" d="m393 603.8h22.7v2.4h-22.7z"/><path class="v" d="m236.3 978.8c0 0 16-18.6 1-30.4 0 0-10.9-6.6-19.8-6.1 0 0 12.6 21.2 8.5 23.3-4.1 2.1-12.4-24.6-12.4-24.6 0 0-24.8-2.4-32.8 1.4 0 0 21.2 17.4 16.8 18.4-4.5 1.1-27.5-16-27.5-16 0 0-23.1 3.9-21.9 18.1 1.2 14.1 9.2 18.4 12.7 18.1 3.5-0.4 24-8.2 24.5-5.4 0.4 2.9-11.9 12.3-20.6 12.7 0 0 16.3 18 27.2 12.8 10.8-5.1 11.8-13.4 18.5-16.5 6.8-3.1 12.6-3.1 9.8 0.1-2.8 3.1-15.1 6.2-18.9 13-3.9 6.9-7.4 11.5 3.9 9.8 11.2-1.7 29.4-9.9 30.2-19.3 0.8-9.4 0.8-9.4 0.8-9.4z"/><path class="v" d="m159.6 963.2c0 0 62.8-2.4 76.7 15.6 0 0 3.1 9.2 12.6 17.6l1.4 4c0 0-10.9-11.5-14.8-12.2 0 0 6.1-22.3-75.9-25z"/><path class="v" d="m248.9 996.4c0 0 13.5 10 14.4 27.8l-2.5 0.2c0 0-4.3-18.4-12.1-25.6-7.8-7.3 0.2-2.4 0.2-2.4z"/><path class="v" d="m292.1 955.4c0 0-25.4-14.2-13.5-33.5 0 0 9.4-11.8 19.6-14.9 0 0-5.4 28.8 0 29.5 5.4 0.6 3.7-32.5 3.7-32.5 0 0 26.7-12.9 37.2-11.9 0 0-16.6 28.1-11.1 27.4 5.4-0.6 24-29 24-29 0 0 27.4-5.1 31.8 11.1 4.4 16.3-2.7 24.4-6.8 25.4-4.1 1-30.1 0.7-29.4 4 0.6 3.4 18.2 8.8 28 5.8 0 0-10.8 26.7-25 25.4-14.2-1.4-18.6-10.2-27.4-10.9-8.8-0.6-15.2 1.7-10.8 4.1 4.4 2.4 19.3 0.8 26.4 6.8 7.1 6.1 12.8 9.8-0.4 12.5-13.2 2.7-36.8 1-41.6-9.1-4.7-10.2-4.7-10.2-4.7-10.2z"/><path class="v" d="m371.3 906.7c-0.1 0-71.1 23-79.2 48.7 0 0 0.3 11.5-6.8 24.7v5.1c0 0 7.5-17.3 11.5-19.6 0 0-15.9-22.4 74.4-58.9z"/><path class="v" d="m285.3 980.1c0 0-10.9 16.6-4.7 36.9l2.8-0.8c0 0-2.7-22.3 3-33.5 5.8-11.2-1.1-2.6-1.1-2.6z"/><path class="w" d="m251.7 935.8c0 0 33.5-18.7 17.9-44.1 0 0-12.5-15.6-25.9-19.7 0 0 7.1 37.9 0 38.8-7.1 0.9-4.9-42.8-4.9-42.8 0 0-35.2-16.9-49-15.6 0 0 21.8 37 14.7 36.1-7.2-0.8-31.7-38.3-31.7-38.3 0 0-36.1-6.7-41.9 14.7-5.8 21.4 3.6 32.1 8.9 33.5 5.4 1.3 39.7 0.8 38.8 5.3-0.9 4.5-24.1 11.6-37 7.6 0 0 14.3 35.2 33 33.4 18.7-1.8 24.5-13.3 36.1-14.2 11.6-0.9 20.1 2.2 14.3 5.3-5.8 3.1-25.4 1-34.8 9-9.4 8-16.9 12.9 0.4 16.4 17.4 3.6 48.7 1.4 54.9-12 6.2-13.4 6.2-13.4 6.2-13.4z"/><path class="v" d="m147.4 871.6c0 0 93.6 30.3 104.3 64.2 0 0-0.4 15.2 9 32.6v6.7c0 0-9.9-22.8-15.2-25.9 0 0 20.9-29.4-98.1-77.6z"/><path class="v" d="m260.7 968.4c0 0 14.4 21.9 6.2 48.6l-3.8-1c0 0 3.7-29.4-3.9-44.2-7.6-14.8 1.5-3.4 1.5-3.4z"/><path class="h" d="m252.9 1074.9c-36.2 0-65.5-29.4-65.5-65.5h131c0 36.1-29.4 65.5-65.5 65.5z"/><path class="i" d="m236.7 1074.4q4 0.5 8.2 0.5c36.2 0 65.5-29.4 65.5-65.5h-16.3c0 33.4-25 61-57.4 65z"/><path class="h" d="m186.4 1078.2h132.9c0-4.5-3.6-8.1-8.1-8.1h-116.7c-4.4 0-8.1 3.6-8.1 8.1z"/><path fill-rule="evenodd" class="h" d="m320.5 1011.4h-134.6v-2h134.6z"/><path class="x" d="m2810.8 999.5h-1467.7c-55.3 0-100.1-44.8-100.1-100.1 0-55.3 44.8-100.2 100.1-100.2h1467.7c55.3 0 100.1 44.9 100.1 100.2 0 55.3-44.8 100.1-100.1 100.1z"/><path class="l" d="m1446.6 893.8l-10.4-4.8c-0.9-0.5-1.5-1.3-1.5-2.3q0-1.8-0.2-3.7-0.4-3.4-1.3-6.6c-0.2-1 0.1-2.1 0.9-2.7l9.6-7.3c1-0.7 1.3-2.2 0.6-3.3l-5.9-9.2c-0.7-1.1-2-1.5-3.1-0.9l-9.9 4.8c-1 0.5-2.2 0.3-2.9-0.5-3.3-3.3-7.1-6.2-11.2-8.4-1-0.5-1.5-1.7-1.3-2.8l1.6-6.5c0.3-1.3-0.3-2.6-1.5-3l-10.3-3.7q-0.3-0.1-0.6-0.2c-1-0.1-2 0.5-2.5 1.5l-3.6 7.7-0.9 1.9q-3-0.1-6.2 0.3c-2.8 0.3-5.5 0.8-8.1 1.6-1 0.3-2 0-2.7-0.8l-5.8-7.7c-0.8-1.1-2.3-1.3-3.4-0.6l-7.1 4.4-2 1.3c-1.1 0.7-1.5 2.2-1 3.3l4.1 8.3c0.5 1 0.3 2.1-0.4 2.9-2.3 2.2-4.2 4.7-5.9 7.4q-0.2 0.3-0.4 0.6-0.1 0.1-0.2 0.2c-0.6 0.8-1.6 1.2-2.6 0.9l-10.6-2.5q-0.2-0.1-0.4-0.1c-1.1-0.1-2.2 0.6-2.6 1.6l-3.7 10.2c-0.4 1.3 0.1 2.6 1.3 3.2l10.9 5c0.9 0.5 1.5 1.4 1.4 2.4q-0.1 3.4 0.2 6.8 0.2 1.9 0.6 3.6c0.2 1-0.2 2-1 2.6l-9.2 7c-1 0.7-1.2 2.2-0.6 3.2l5.9 9.2c0.7 1.1 2.1 1.5 3.3 0.9l7.8-3.8c1.1-0.5 2.3-0.3 3.1 0.6 2.9 3.6 6.4 6.6 10.2 9.1 0.9 0.5 1.4 1.7 1.1 2.7l-2.3 9.6c-0.3 1.2 0.4 2.6 1.6 3l10.2 3.7c1.2 0.5 2.5-0.1 3.1-1.3l0.2-0.4 4.2-9.1c0.4-0.9 1.4-1.5 2.5-1.4q3.8 0.2 7.8-0.2 2.1-0.2 4.2-0.6c0.9-0.2 1.9 0.1 2.5 0.9l5.9 7.8c0.8 1.1 2.3 1.3 3.4 0.6l9.2-5.8q0.3-0.2 0.6-0.6c0.6-0.7 0.7-1.7 0.3-2.6l-3.3-6.6c-0.4-0.9-0.3-1.8 0.2-2.6q0.2-0.2 0.5-0.5c4.5-3.7 8.2-8.4 10.9-13.6 0.4-0.9 1.4-1.4 2.3-1.3q0.2 0 0.5 0l8.5 2.1c1.3 0.3 2.6-0.3 3-1.5l0.1-0.3 3.6-9.9c0.5-1.3-0.1-2.7-1.3-3.2zm-79.2-10.3q0.4-2.6 1.4-5.3c1.2-3.4 4.8-7.9 7.9-9.8q0.5-0.3 1-0.6c20.3-11.9 43.2 6.8 35.1 29.3-1 2.9-3.7 6.5-6.4 8.9-0.6 0.5-1.2 1-1.8 1.4-2.9 1.7-5.7 2.9-8.6 3.5-16.3 3.6-31.5-10-28.6-27.4z"/><path class="s" d="m1517.1 938.6l-7.5-3.5c-0.6-0.3-1-0.9-1.1-1.6q0-1.3-0.1-2.6-0.3-2.5-0.9-4.8c-0.2-0.7 0-1.5 0.6-1.9l6.9-5.3c0.7-0.5 0.9-1.5 0.4-2.3l-4.2-6.7c-0.5-0.8-1.4-1-2.2-0.6l-7.2 3.5c-0.7 0.3-1.5 0.2-2.1-0.4-2.3-2.4-5-4.5-8-6.1-0.7-0.3-1.1-1.2-0.9-2l1.2-4.7c0.2-0.9-0.3-1.8-1.2-2.1l-7.3-2.7q-0.3-0.1-0.5-0.1c-0.7-0.1-1.5 0.3-1.8 1l-2.6 5.6-0.6 1.4q-2.2-0.1-4.5 0.2-3 0.3-5.8 1.1c-0.7 0.3-1.5 0-1.9-0.6l-4.2-5.5c-0.6-0.8-1.7-1-2.5-0.4l-5.1 3.2-1.4 0.9c-0.8 0.5-1.1 1.5-0.7 2.4l2.9 6c0.4 0.6 0.2 1.5-0.3 2q-2.4 2.4-4.2 5.3-0.2 0.2-0.3 0.5-0.1 0.1-0.1 0.1c-0.5 0.6-1.2 0.9-1.9 0.7l-7.7-1.9q-0.1 0-0.2 0c-0.8-0.1-1.6 0.4-1.9 1.2l-2.7 7.3c-0.3 0.9 0.1 1.9 1 2.3l7.8 3.6c0.7 0.3 1.1 1 1 1.7q-0.1 2.4 0.2 4.9 0.1 1.3 0.4 2.6c0.1 0.7-0.2 1.4-0.7 1.8l-6.6 5.1c-0.7 0.5-0.9 1.5-0.4 2.3l4.1 6.6c0.5 0.8 1.6 1.1 2.4 0.7l5.7-2.8c0.7-0.4 1.6-0.2 2.2 0.5 2.1 2.5 4.6 4.7 7.3 6.5 0.7 0.4 1 1.2 0.8 1.9l-1.7 6.9c-0.2 0.9 0.3 1.9 1.2 2.2l7.3 2.7c0.9 0.3 1.9-0.1 2.3-1l0.1-0.3 3-6.5c0.4-0.7 1.1-1.1 1.8-1q2.8 0.2 5.6-0.1 1.6-0.2 3-0.5c0.7-0.2 1.4 0.1 1.8 0.6l4.3 5.7c0.6 0.7 1.7 0.9 2.5 0.4l6.5-4.2q0.3-0.1 0.5-0.4c0.4-0.5 0.5-1.3 0.2-1.9l-2.3-4.7c-0.3-0.6-0.3-1.3 0.1-1.9q0.1-0.2 0.3-0.3c3.3-2.7 5.9-6.1 7.9-9.8 0.3-0.7 1-1 1.7-1q0.1 0 0.3 0.1l6.1 1.5c0.9 0.2 1.9-0.3 2.2-1.2v-0.1l2.6-7.2c0.4-0.9 0-1.9-0.9-2.3zm-57-7.4q0.3-1.8 1-3.8c0.9-2.4 3.5-5.6 5.7-7.1q0.4-0.2 0.7-0.4c14.6-8.6 31.1 4.9 25.3 21.1-0.8 2.1-2.7 4.7-4.6 6.4q-0.7 0.6-1.3 1c-2.1 1.2-4.1 2.1-6.2 2.5-11.7 2.6-22.6-7.2-20.6-19.7z"/><path class="l" d="m1622 884.2l-11.3-2c-0.9-0.2-1.7-0.9-2-1.8q-0.5-1.7-1.2-3.5-1.2-3.2-2.9-6.1c-0.5-0.9-0.4-2 0.2-2.8l7.4-9.5c0.8-1 0.7-2.4-0.3-3.3l-8-7.5c-0.9-0.8-2.3-0.8-3.3 0l-8.3 7.2c-0.8 0.7-2 0.8-2.9 0.2-4-2.4-8.4-4.2-13-5.2-1.1-0.3-1.9-1.3-1.9-2.4l-0.1-6.7c-0.1-1.3-1.1-2.4-2.3-2.5l-10.9-1q-0.3 0-0.6 0c-1.1 0.2-1.9 1-2.1 2.1l-1.5 8.4-0.3 2.1q-3 0.6-6 1.8c-2.6 1-5.1 2.2-7.4 3.6-0.9 0.6-2 0.5-2.8-0.1l-7.6-5.9c-1.1-0.8-2.6-0.7-3.4 0.2l-5.7 6.2-1.7 1.8c-0.9 0.9-0.9 2.4 0 3.4l6 7c0.7 0.8 0.9 1.9 0.3 2.8-1.6 2.8-2.8 5.7-3.8 8.7q-0.1 0.3-0.2 0.7-0.1 0.1-0.1 0.3c-0.4 0.9-1.3 1.5-2.3 1.5l-10.9 0.2q-0.2 0-0.4 0.1c-1.1 0.1-2 1.1-2.1 2.2l-1 10.8c-0.1 1.3 0.8 2.5 2.1 2.8l11.8 2c1 0.2 1.8 1 2 2q0.7 3.2 2 6.5 0.6 1.7 1.4 3.3c0.4 0.9 0.3 2-0.3 2.7l-7.1 9.2c-0.7 1-0.6 2.4 0.3 3.3l8 7.3c0.9 0.9 2.4 1 3.4 0.1l6.6-5.7c0.9-0.8 2.2-0.9 3.2-0.2 3.7 2.7 7.8 4.7 12.1 6.1 1.1 0.3 1.8 1.3 1.8 2.4l0.2 9.8c0 1.3 1 2.4 2.4 2.6l10.7 0.9c1.3 0.1 2.5-0.8 2.7-2l0.1-0.5 1.7-9.8c0.2-1.1 1-1.9 2.1-2.1q3.8-0.7 7.5-2.1 2-0.8 3.8-1.7c0.9-0.5 1.9-0.4 2.7 0.2l7.7 6.1c1.1 0.8 2.6 0.7 3.5-0.3l7.4-8q0.3-0.3 0.4-0.7c0.4-0.9 0.3-1.9-0.4-2.6l-4.8-5.6c-0.6-0.7-0.8-1.6-0.5-2.5q0.1-0.3 0.3-0.6c3.4-4.8 5.8-10.2 7.1-16 0.2-0.9 1-1.7 1.9-1.9q0.2 0 0.4 0l8.9-0.2c1.3 0 2.3-1 2.4-2.3l0.1-0.2 0.9-10.5c0.1-1.4-0.8-2.6-2.1-2.8zm-79.2 10.4q-0.2-2.6 0-5.5c0.4-3.6 2.7-8.9 5.2-11.5q0.3-0.5 0.8-0.9c16.5-16.7 43.4-4.5 41.4 19.3-0.2 3.1-1.9 7.3-3.9 10.3-0.5 0.7-0.9 1.3-1.4 1.8-2.3 2.4-4.8 4.3-7.4 5.6-14.8 7.7-33-1.6-34.7-19.1z"/><path class="s" d="m2289.4 944.8l-7.8-2.7c-0.6-0.2-1.1-0.8-1.2-1.5q-0.2-1.3-0.5-2.6-0.5-2.4-1.4-4.6c-0.2-0.7-0.1-1.5 0.5-2l6.2-6c0.7-0.6 0.8-1.6 0.2-2.4l-5-6.1c-0.5-0.7-1.5-0.9-2.3-0.4l-6.7 4.2c-0.6 0.5-1.5 0.4-2.1-0.1-2.6-2.2-5.5-3.9-8.6-5.1-0.8-0.3-1.2-1.1-1.1-2l0.6-4.7c0.1-1-0.5-1.8-1.4-2.1l-7.6-1.8q-0.2-0.1-0.5 0c-0.7 0-1.4 0.4-1.6 1.2l-2 5.8-0.5 1.4q-2.2 0.2-4.4 0.7-2.9 0.7-5.6 1.8c-0.7 0.3-1.5 0.2-2-0.4l-4.8-5c-0.7-0.7-1.7-0.8-2.5-0.2l-4.7 3.8-1.3 1.1c-0.8 0.5-1 1.6-0.5 2.4l3.6 5.6c0.4 0.6 0.4 1.5-0.1 2.1q-2.1 2.6-3.6 5.7-0.1 0.3-0.3 0.5 0 0.1 0 0.2c-0.4 0.6-1.1 0.9-1.9 0.8l-7.7-1q-0.2 0-0.3 0c-0.8 0-1.5 0.6-1.7 1.4l-1.9 7.6c-0.2 0.9 0.3 1.8 1.2 2.1l8.2 2.8c0.7 0.2 1.1 0.8 1.2 1.6q0.1 2.4 0.7 4.8 0.3 1.3 0.7 2.5c0.2 0.7 0 1.5-0.5 1.9l-6 5.8c-0.7 0.6-0.8 1.6-0.2 2.4l4.9 6c0.6 0.8 1.6 1 2.4 0.5l5.3-3.4c0.7-0.5 1.7-0.4 2.3 0.2 2.3 2.3 5 4.2 8 5.7 0.7 0.3 1.1 1 1 1.8l-0.9 7c-0.2 1 0.5 1.9 1.4 2.1l7.5 1.8c0.9 0.3 1.9-0.3 2.2-1.1l0.1-0.4 2.3-6.8c0.2-0.7 0.9-1.2 1.6-1.2q2.8-0.1 5.6-0.7 1.5-0.4 2.9-0.8c0.7-0.3 1.4-0.1 1.9 0.4l4.9 5.1c0.6 0.7 1.7 0.8 2.5 0.2l6-4.8q0.3-0.3 0.4-0.5c0.4-0.6 0.4-1.3 0-1.9l-2.8-4.5c-0.4-0.6-0.4-1.3-0.1-1.8q0.1-0.2 0.3-0.4c2.9-3.1 5.2-6.7 6.7-10.6 0.3-0.7 0.9-1.1 1.6-1.2q0.2 0 0.3 0l6.3 0.9c0.9 0.1 1.8-0.5 2-1.4l0.1-0.2 1.8-7.4c0.2-0.9-0.3-1.8-1.3-2.1zm-57.4-1.1q0.1-1.9 0.6-3.9c0.6-2.6 2.8-6 4.9-7.7q0.3-0.3 0.6-0.5c13.6-10.1 31.4 1.5 27.5 18.2-0.5 2.2-2.2 4.9-3.9 6.8q-0.6 0.7-1.2 1.2c-1.9 1.5-3.9 2.5-5.9 3.2-11.3 3.9-23.2-4.7-22.6-17.3z"/><path class="l" d="m2387.8 879.2l-11.5-0.8c-0.9 0-1.8-0.7-2.1-1.5q-0.7-1.7-1.6-3.4-1.6-3.1-3.6-5.7c-0.6-0.9-0.6-2-0.1-2.9l6.3-10.2c0.7-1.1 0.4-2.5-0.6-3.3l-8.9-6.5c-1-0.8-2.3-0.6-3.2 0.3l-7.5 8.1c-0.7 0.8-1.9 1-2.9 0.6-4.2-2-8.8-3.3-13.4-3.9-1.2-0.1-2.1-1-2.2-2.1l-0.9-6.7c-0.1-1.3-1.2-2.2-2.5-2.2l-10.9 0.2q-0.3 0-0.6 0.1c-1 0.3-1.8 1.2-1.8 2.2l-0.6 8.6-0.1 2.1q-2.9 1-5.7 2.4c-2.5 1.3-4.9 2.8-7 4.5-0.8 0.6-1.9 0.7-2.8 0.2l-8.3-5.1c-1.1-0.7-2.5-0.4-3.3 0.7l-5 6.7-1.4 1.9c-0.8 1.1-0.7 2.6 0.3 3.5l6.8 6.2c0.7 0.7 1 1.9 0.6 2.8-1.3 2.9-2.2 6-2.9 9q-0.1 0.4-0.1 0.8 0 0.1-0.1 0.3c-0.3 0.9-1.1 1.6-2.1 1.8l-10.8 1.4q-0.2 0-0.4 0c-1.1 0.3-1.8 1.4-1.8 2.5l0.2 10.9c0 1.3 1 2.4 2.4 2.4l11.9 0.8c1 0.1 1.9 0.8 2.2 1.7q1.1 3.2 2.7 6.3 0.8 1.6 1.8 3.2c0.5 0.8 0.5 1.9 0 2.7l-6 9.8c-0.7 1.1-0.4 2.5 0.6 3.3l8.7 6.4c1.1 0.8 2.5 0.7 3.4-0.3l6-6.4c0.8-0.9 2-1.1 3.1-0.5 4 2.2 8.3 3.8 12.8 4.7 1 0.2 1.8 1.1 2 2.2l1.2 9.7c0.2 1.4 1.3 2.3 2.7 2.3l10.8-0.2c1.3 0 2.3-1.1 2.4-2.3v-0.5l0.7-10c0.1-1.1 0.8-1.9 1.8-2.3q3.7-1.1 7.2-2.9 1.9-1 3.7-2.1c0.8-0.6 1.8-0.6 2.6-0.1l8.4 5.2c1.1 0.7 2.6 0.4 3.4-0.7l6.5-8.7q0.2-0.3 0.3-0.8c0.3-0.9 0.1-1.9-0.7-2.5l-5.4-5c-0.6-0.6-0.9-1.6-0.7-2.4q0-0.4 0.2-0.7c2.9-5.1 4.6-10.8 5.3-16.6 0.1-1 0.8-1.8 1.7-2.1q0.2-0.1 0.4-0.1l8.8-1.1c1.3-0.2 2.2-1.3 2.2-2.6v-0.2l-0.2-10.6c-0.1-1.4-1.1-2.4-2.4-2.5zm-77.6 19q-0.6-2.6-0.6-5.5c-0.1-3.6 1.7-9.1 3.8-12q0.4-0.5 0.7-1c14.7-18.4 42.8-9.2 43.4 14.7 0.1 3.1-1.1 7.4-2.8 10.6-0.4 0.7-0.8 1.4-1.2 2-2 2.6-4.3 4.8-6.7 6.4-13.9 9.2-33 2-36.6-15.2z"/><path class="s" d="m2469.7 895.6l-8.2-0.6c-0.7 0-1.3-0.5-1.6-1.1q-0.5-1.2-1.1-2.4-1.2-2.2-2.6-4.1c-0.4-0.6-0.5-1.4-0.1-2.1l4.6-7.3c0.4-0.8 0.2-1.8-0.5-2.4l-6.4-4.7c-0.7-0.5-1.7-0.4-2.3 0.2l-5.4 5.9c-0.5 0.5-1.3 0.7-2 0.4-3.1-1.5-6.4-2.4-9.7-2.8-0.8-0.1-1.5-0.7-1.6-1.6l-0.6-4.8c-0.1-0.9-0.9-1.6-1.8-1.5l-7.9 0.1q-0.2 0-0.4 0.1c-0.7 0.2-1.3 0.8-1.3 1.6l-0.4 6.2-0.1 1.5q-2.1 0.7-4.1 1.7-2.7 1.4-5 3.2c-0.6 0.5-1.4 0.5-2.1 0.1l-5.9-3.6c-0.8-0.5-1.8-0.3-2.4 0.5l-3.6 4.8-1 1.4c-0.6 0.8-0.5 1.8 0.2 2.5l4.9 4.5c0.6 0.5 0.7 1.3 0.4 2q-1.3 3.1-2 6.5-0.1 0.3-0.1 0.5 0 0.1-0.1 0.2c-0.2 0.7-0.8 1.2-1.5 1.3l-7.8 1q-0.1 0-0.2 0.1c-0.8 0.2-1.4 0.9-1.4 1.8l0.2 7.8c0 0.9 0.8 1.7 1.7 1.7l8.6 0.6c0.7 0 1.3 0.5 1.6 1.2q0.7 2.3 1.9 4.5 0.6 1.2 1.3 2.3c0.4 0.6 0.4 1.4 0 2l-4.3 7c-0.5 0.8-0.3 1.8 0.4 2.4l6.3 4.6c0.7 0.6 1.8 0.5 2.5-0.2l4.2-4.6c0.6-0.6 1.5-0.8 2.2-0.4 2.9 1.6 6 2.8 9.2 3.4 0.8 0.2 1.4 0.8 1.5 1.6l0.9 7c0.1 0.9 0.9 1.6 1.9 1.6l7.8-0.1c0.9 0 1.7-0.8 1.7-1.7v-0.4l0.5-7.1c0.1-0.8 0.6-1.4 1.3-1.6q2.7-0.9 5.2-2.2 1.4-0.7 2.6-1.5c0.6-0.4 1.4-0.4 2 0l6 3.7c0.8 0.5 1.9 0.3 2.4-0.5l4.7-6.2q0.1-0.3 0.2-0.6c0.2-0.7 0-1.4-0.5-1.9l-3.9-3.6c-0.5-0.4-0.7-1.1-0.5-1.7q0-0.2 0.2-0.5c2-3.7 3.3-7.7 3.7-11.9 0.1-0.7 0.6-1.3 1.3-1.5q0.1-0.1 0.3-0.1l6.3-0.8c0.9-0.1 1.6-0.9 1.6-1.8v-0.2l-0.2-7.6c0-1-0.7-1.8-1.7-1.8zm-55.8 13.6q-0.4-1.8-0.4-3.9c-0.1-2.6 1.2-6.5 2.7-8.7q0.3-0.3 0.5-0.6c10.6-13.3 30.8-6.6 31.2 10.5 0.1 2.3-0.8 5.4-2 7.6q-0.4 0.8-0.9 1.5c-1.4 1.9-3 3.4-4.8 4.6-10 6.6-23.7 1.4-26.3-11z"/><path fill-rule="evenodd" class="y" d="m1693.7 799.2h414.2v200.3h-414.2z"/><path class="l" d="m2910.9 899.4c0 27.6-11.2 52.6-29.3 70.8-18.1 18.1-43.1 29.3-70.8 29.3h-248.9c-5.3 0-9.6-4.3-9.6-9.7v-180.9c0-5.3 4.3-9.7 9.6-9.7h248.9c55.3 0 100.1 44.9 100.1 100.2z"/><path fill-rule="evenodd" class="c" d="m1018.1 1077.1h-191.4v-157.8h191.4z"/><path fill-rule="evenodd" class="d" d="m1113.8 1077.1h-191.4v-157.8h191.4z"/><path fill-rule="evenodd" class="e" d="m922.4 968.1h30.3l-2.7-8.5 2.7-6.1h-30.3z"/><path fill-rule="evenodd" class="f" d="m922.4 953.5h-30.3l2.6 8.5-2.6 6.1h30.3z"/><path fill-rule="evenodd" class="e" d="m1113.8 1038.8h-30.4l2.7 8.5-2.7 6.1h30.4z"/><path fill-rule="evenodd" class="a" d="m1046.2 930h55v21.4h-55z"/><path fill-rule="evenodd" class="c" d="m1230.2 761.4h-191.4v-157.8h191.4z"/><path fill-rule="evenodd" class="d" d="m1325.9 761.4h-191.4v-157.8h191.4z"/><path fill-rule="evenodd" class="f" d="m1038.9 721.4h30.4l-2.7-8.5 2.7-6.1h-30.4z"/><path fill-rule="evenodd" class="e" d="m1134.5 652.5h30.3l-2.6-8.6 2.6-6.1h-30.3z"/><path fill-rule="evenodd" class="f" d="m1134.5 637.8h-30.3l2.7 8.6-2.7 6.1h30.3z"/><path fill-rule="evenodd" class="e" d="m1325.9 723.1h-30.3l2.6 8.5-2.6 6.1h30.3z"/><path fill-rule="evenodd" class="a" d="m1258.3 614.3h55v21.5h-55z"/><path fill-rule="evenodd" class="z" d="m1803.4 794.5h-146.4v-120.6h146.4z"/><path fill-rule="evenodd" class="l" d="m1876.6 794.5h-146.4v-120.6h146.4z"/><path fill-rule="evenodd" class="f" d="m1657.1 763.9h23.2l-2.1-6.5 2.1-4.7h-23.2z"/><path fill-rule="evenodd" class="e" d="m1730.2 711.2h23.2l-2.1-6.5 2.1-4.7h-23.2z"/><path fill-rule="evenodd" class="f" d="m1730.2 700h-23.2l2 6.5-2 4.7h23.2z"/><path fill-rule="evenodd" class="e" d="m1876.6 765.2h-23.2l2 6.6-2 4.6h23.2z"/><path fill-rule="evenodd" class="a" d="m1824.9 682h42.1v16.4h-42.1z"/><path fill-rule="evenodd" class="c" d="m1050.6 918.9h-191v-157.4h191z"/><path fill-rule="evenodd" class="d" d="m1146.1 918.9h-191v-157.4h191z"/><path fill-rule="evenodd" class="o" d="m859.7 879h30.3l-2.7-8.5 2.7-6.1h-30.3z"/><path fill-rule="evenodd" class="p" d="m955.1 810.2h30.3l-2.7-8.5 2.7-6.1h-30.3z"/><path fill-rule="evenodd" class="o" d="m955.1 795.6h-30.3l2.7 8.5-2.7 6.1h30.3z"/><path fill-rule="evenodd" class="p" d="m1146.1 880.7h-30.3l2.7 8.5-2.7 6.1h30.3z"/><path fill-rule="evenodd" class="a" d="m1078.6 772.1h55v21.4h-55z"/><path fill-rule="evenodd" class="h" d="m1018.6 761.4h-128.1v-105.5h128.1z"/><path fill-rule="evenodd" class="i" d="m1082.6 761.4h-128.1v-105.5h128.1z"/><path fill-rule="evenodd" class="j" d="m890.6 734.7h20.3l-1.8-5.7 1.8-4.1h-20.3z"/><path fill-rule="evenodd" class="k" d="m954.5 688.5h20.3l-1.8-5.7 1.8-4.1h-20.3z"/><path fill-rule="evenodd" class="j" d="m954.5 678.7h-20.3l1.8 5.8-1.8 4h20.3z"/><path fill-rule="evenodd" class="k" d="m1082.6 735.8h-20.3l1.8 5.7-1.8 4.1h20.3z"/><path fill-rule="evenodd" class="a" d="m1037.4 663h36.8v14.3h-36.8z"/><path fill-rule="evenodd" class="h" d="m1230.6 603.7h-128v-105.6h128z"/><path fill-rule="evenodd" class="i" d="m1294.7 603.7h-128.1v-105.6h128.1z"/><path fill-rule="evenodd" class="j" d="m1102.6 577h20.3l-1.7-5.8 1.7-4h-20.3z"/><path fill-rule="evenodd" class="k" d="m1166.6 530.8h20.3l-1.8-5.7 1.8-4.1h-20.3z"/><path fill-rule="evenodd" class="j" d="m1166.6 521h-20.3l1.8 5.7-1.8 4.1h20.3z"/><path fill-rule="evenodd" class="k" d="m1294.7 578.1h-20.3l1.8 5.7-1.8 4.1h20.3z"/><path fill-rule="evenodd" class="a" d="m1249.4 505.3h36.9v14.3h-36.9z"/><path class="r" d="m3031.4 1077.5c0.8 0 1.4 0.3 2 0.7h-1700.3v-82.5h1670.7q-1.5 3.3-3.1 6.5c-12.7 26.6-28.9 51.8-48.7 75.3z"/><path class="A" d="m3034.4 1080.4v0.2c0 1.6-1.4 2.9-3 2.9h-3007.9c-1.6 0-3-1.3-3-2.9v-0.2c0-1.6 1.4-3 3-3h3007.9c0.8 0 1.4 0.3 2 0.8 0.6 0.5 1 1.3 1 2.2z"/><path class="g" d="m2810.8 1004h-1467.7c-57.7 0-104.6-47-104.6-104.6 0-28 10.8-54.3 30.6-74 19.8-19.8 46-30.7 74-30.7h1467.7c57.7 0 104.6 47 104.6 104.6 0 28-10.9 54.3-30.6 74-19.8 19.8-46 30.7-74 30.7zm-1467.7-200.3c-25.6 0-49.6 10-67.6 28-18.1 18.1-28.1 42.1-28.1 67.7 0 52.7 42.9 95.6 95.7 95.6h1467.7c25.6 0 49.6-10 67.6-28 18.1-18.1 28-42.1 28-67.6 0-52.8-42.9-95.7-95.6-95.7z"/><path class="k" d="m795.5 625.1c0 0 7.7 43.6 16.1 89.2 9.1 49.5 19.1 101.4 20.9 102 3.7 1.3 9.1-5.9 11.5-11.9 2-4.8 6-42.3 4-68.1-0.5-6.3-1.1-11.5-1.8-14.7-3.4-16.3-3.9-74.1-14.7-83.2-10.8-9.2-36-13.3-36-13.3z"/><path class="k" d="m845.5 797.1c0 0-1.9 7.1 0.9 14.1 2.7 7 3.2 9-1.8 12.9-5 3.9-10.4 9.5-14.2 7.8-3.7-1.6-1.4-33.6-1.4-33.6z"/><path class="B" d="m830.3 1078.2c-4.7-2.8-2-24-2-24 0 0 21.7-17.4 24.6-4.1 3 13.3 20.6 19.2 30.7 20.9 6.9 1.1 9.1 4.9 9.7 7.2 0 0-63 0-63 0z"/><path class="B" d="m734 1078.2c-4.7-2.8-2.1-24-2.1-24 0 0 21.7-17.4 24.7-4.1 3 13.3 20.6 19.2 30.7 20.9 6.9 1.1 9 4.9 9.7 7.2 0 0-63 0-63 0z"/><path class="C" d="m764.1 832.2c7.7 32.6 17.4 69.8 21.2 90.8q0.7 3.7 1.1 6.7 0.4 2.9 0.5 5.1c2.1 39.3 33.1 129.2 38.7 131.3 8.6 3.3 22.2-3.6 29.3-5.9 2.9-0.9 4.9-3.9 4.2-6.9-15.4-70.8-24.9-172.1-26.9-232.4-1.1-30.4-2.5-52.1-2.5-52.1 0 0-75.8-20.2-76.2 5.4-0.2 9.9 4.6 32.5 10.6 58z"/><path class="D" d="m764.1 832.2c7.7 32.6 17.4 69.8 21.2 90.8 0.5 2.5 2.8 23.1 3.1 25.1l13.3-150.9-18.9 1.8z"/><path class="k" d="m787.2 587.4v3.7c0 0 1 11.7-13.3 13.3-14.3 1.7-25.1-4.5-24.8-13.4 1.3-7 2.8-11.7 2.8-17.5 0.1-2.1-0.1-4.4-0.5-6.9l27.7-0.6 8.2 1.4z"/><path class="E" d="m787.3 567.4l-0.1 20c-3 1.4-6.3 2.2-10 2.2-12.7 0-21-9.3-25.3-16.1 0.1-2.1-0.1-4.4-0.5-6.9l27.7-0.6z"/><path class="C" d="m793.9 783l-26.7 279.5c0 0-19.8 6.5-37.7 1.5 0 0-10.4-152.8-9.4-190.2 0.9-37.3-8.5-100 2.1-106.9 10.6-6.9 71.7 16.1 71.7 16.1z"/><path class="k" d="m788.9 577.1c0 0-35.5 7.2-39.6-15-4.1-22.1-11.5-36.1 11-41.7 22.5-5.5 28.5 2.2 31.6 9.2 3.2 7.1 6.1 45.1-3 47.5z"/><path class="B" d="m750.9 567c0 0-12.3 2.8-13.5-19.6-0.4-8.7-2.6-39 22.1-38 24.7 1.1 36 15.5 38.2 18 16.9 19.1-24.1 4.9-29.6 9.3-5.4 4.4-0.2 11.7-6.5 14.3-6.2 2.6-11.2 2.6-10.1 8.3 1 5.7-0.6 7.7-0.6 7.7z"/><path class="i" d="m801 527.9c0 0-13.2 4.6-17.8 4.9-1.4 0.1-21.9 1.5-21.9 1.5l-29.9 5.3c0 0-5.9-22.2 8.8-36.2q0.5-0.5 1.1-1c4-3.5 9.3-6.3 16.3-8.1 35.9-9 43.3 32.3 43.4 33.6z"/><path class="D" d="m783.6 532.2l-5.7 0.7c-4.4-5.8-20.8-26.1-38-29.1q0.1-0.2 0.3-0.4c0.3-0.4 0.5-0.6 0.9-1.1q0.1 0 0.2 0.1c22.1 5.2 38.6 24.6 42.3 29.8z"/><path class="i" d="m761.3 534.3c0 0-3.8 4.4-4.8 8.6-1.1 4.2-20.5 6.7-21.8 4.5-1.4-2.2-3.3-7.8-3.3-7.8z"/><path class="D" d="m761.3 534.3c0 0 35.8 0.7 52.2-7.9 1.3-0.7 1.1-2.6-0.3-2.9-2.5-0.6-6.7-1.3-13.6-1.5 0 0-12.8 10.6-38.3 12.3z"/><path class="F" d="m685.5 648.4c0 0 13.6-36 24-43.7 6.1-4.4 18.4-7.9 27.7-10.2 2.9-0.7 5.6-1.2 7.6-1.7 2.7-0.5 4.4-0.8 4.4-0.8q0 0 0 0c0 0 0.4 1 0.9 2.8 3.1 4.7 13.6 8.4 22.5 7.8 8.8-0.6 14.6-7.3 14.6-11 0 0 0.7 0.2 2 0.6 1.8 0.6 4.8 1.6 8.5 3 11 4.1 21.7 6.4 28.9 18.1 10.7 17.2 15.1 39.6 15.1 39.6 0 0-9.8 8.6-20.3 12.6-0.5 0.2-1 0.1-1.6 0.1 0.7 94.2 5 108.7 3 108.7 0 0-11.4 12.5-41 12.1-11.6-0.1-21.7-0.9-30.2-2.2-23.8-3.6-30.5-8.5-30.4-10.9 0-2.3 1.3-61.9 1.5-65 1.4-14.8 1.8-17.9 0.7-40.3-22.3-5.5-37.9-19.6-37.9-19.6z"/><path class="C" d="m829.7 768.8l-9-112.8c-0.5-6.5-6.1-11.4-12.6-11.1l-61.7 2.4c-5.1 0.2-9.2 4.2-9.5 9.3-0.7 14.8-3.6 43.6-14.2 51.7l-5.6 81.6 69 62.5c0 0 7.8-45.8 18.6-58.5 6-7.1 25-25.1 25-25.1z"/><path class="C" d="m737.2 594.5l8.1 56.8 7.7-1.1-8.2-57.4c-2 0.5-4.7 1-7.6 1.7z"/><path class="C" d="m789.1 592.2l10.7 52.3 0.8 3.9 0.9-0.1 6.8-1.4-10.6-51.7c-3.7-1.4-6.7-2.4-8.6-3z"/><path class="k" d="m681 717.5c0 0 41.4 23.6 74.5 28.9 0 0 6.5-8.5 4.5-12.2-1.5-2.8-48.2-32.8-48.4-33.7-0.6-2.3 7.3-16.4 11.8-32.5-13.4-3.4-30.8-13.6-36-17.9-5.7 20.2-13.8 51.4-6.4 67.4z"/><path class="k" d="m762.2 729.1c0 0 5-3.8 8.8-4.4 3.8-0.5 10.3-2.9 9.2-0.7-1 2.3-8.1 5.8-8.1 5.8z"/><path class="B" d="m771.8 754.2l19.4 2.4c2.1 0.2 4.1-1.1 4.8-3.1l13.2-44.1c0.8-2.6-0.9-5.3-3.7-5.7l-19.4-2.3c-2.1-0.3-4.1 1-4.8 3.1l-13.3 44c-0.7 2.7 1 5.4 3.8 5.7z"/><path class="G" d="m778.6 755l19.4 2.4c2.2 0.3 4.2-1 4.8-3.1l13.3-44c0.8-2.7-1-5.4-3.7-5.7l-19.4-2.4c-2.2-0.3-4.2 1.1-4.8 3.1l-13.3 44.1c-0.8 2.6 1 5.3 3.7 5.6z"/><path class="G" d="m792.4 710.7c0.5 0 1.1-0.4 1.3-0.9l13-38.6c0.2-0.6-0.1-1.1-0.7-1.2-0.5 0-1.1 0.4-1.3 0.9l-13 38.6c-0.2 0.6 0.1 1.1 0.7 1.2z"/><path class="k" d="m752.5 728.3c0 0 3.5 2.2 5.9 1.5 2.1-0.5 3.8-0.7 6.2-2.3 2.5-1.7 7.9 0.6 9.5 1.6 4.6 3.1 19.8 2.9 19.8 5.9 0 3.1-6.6 11.5-14.6 14.1-8.1 2.5-23.8-2.7-23.8-2.7z"/><path class="g" d="m1806 911.2c-23.6 0-42.8-19.2-42.8-42.9 0-23.6 19.2-42.8 42.8-42.8 23.7 0 42.9 19.2 42.9 42.8 0 23.7-19.2 42.9-42.9 42.9zm0-76.7c-18.6 0-33.8 15.2-33.8 33.8 0 18.7 15.2 33.9 33.8 33.9 18.7 0 33.9-15.2 33.9-33.9 0-18.6-15.2-33.8-33.9-33.8z"/><path class="g" d="m1806 907.9c-21.8 0-39.5-17.8-39.5-39.6 0-21.8 17.7-39.5 39.5-39.5 21.8 0 39.6 17.7 39.6 39.5 0 21.8-17.8 39.6-39.6 39.6zm0-76.7c-20.5 0-37.1 16.6-37.1 37.1 0 20.5 16.6 37.2 37.1 37.2 20.5 0 37.2-16.7 37.2-37.2 0-20.5-16.7-37.1-37.2-37.1z"/><path class="l" d="m1782.6 868.3c0-12.9 10.5-23.4 23.4-23.4 13 0 23.5 10.5 23.5 23.4 0 13-10.5 23.5-23.5 23.5-12.9 0-23.4-10.5-23.4-23.5z"/><path fill-rule="evenodd" class="i" d="m2057.7 848.5c-2.1 13.3-14.7 22.3-28 20.2-13.3-2.2-22.3-14.7-20.2-28 2.2-13.4 14.7-22.4 28-20.2 13.4 2.1 22.4 14.6 20.2 28z"/><path class="g" d="m2033.6 869.7c-13.9 0-25.2-11.2-25.2-25.1 0-13.9 11.3-25.2 25.2-25.2 13.8 0 25.1 11.3 25.1 25.2 0 13.9-11.3 25.1-25.1 25.1zm0-48.8c-13.1 0-23.7 10.6-23.7 23.7 0 13 10.6 23.6 23.7 23.6 13 0 23.6-10.6 23.6-23.6 0-13.1-10.6-23.7-23.6-23.7z"/><path class="h" d="m2018.7 844.6c0-8.3 6.6-14.9 14.9-14.9 8.2 0 14.9 6.6 14.9 14.9 0 8.2-6.7 14.9-14.9 14.9-8.3 0-14.9-6.7-14.9-14.9z"/><path fill-rule="evenodd" class="i" d="m1952.4 934.9c-4.5 27.3-30.1 45.8-57.4 41.3-27.3-4.4-45.7-30-41.3-57.3 4.4-27.3 30.1-45.8 57.3-41.3 27.3 4.4 45.8 30 41.4 57.3z"/><path class="g" d="m1903 978.4c-28.4 0-51.6-23.1-51.6-51.5 0-28.4 23.2-51.5 51.6-51.5 28.4 0 51.5 23.1 51.5 51.5 0 28.4-23.1 51.5-51.5 51.5zm0-99.9c-26.7 0-48.5 21.7-48.5 48.4 0 26.7 21.8 48.4 48.5 48.4 26.7 0 48.4-21.7 48.4-48.4 0-26.7-21.7-48.4-48.4-48.4z"/><path fill-rule="evenodd" class="h" d="m1932.7 934.1c-3.9 16.4-20.3 26.5-36.7 22.6-16.4-3.8-26.6-20.2-22.7-36.7 3.9-16.4 20.3-26.5 36.7-22.6 16.4 3.8 26.6 20.2 22.7 36.7z"/><path fill-rule="evenodd" class="a" d="m549.1 802.9h90.1v19h-90.1z"/></svg>