<svg version="1.2" xmlns="http://www.w3.org/2000/svg" viewBox="0 0 2260 1440" width="2260" height="1440"><defs><linearGradient id="P" gradientUnits="userSpaceOnUse"/><linearGradient id="g1" x2="1" href="#P" gradientTransform="matrix(2225.524,-1616.155,1314.856,1810.622,-65.571,1714.147)"><stop stop-color="#dae3fe"/><stop offset="1" stop-color="#e9effd"/></linearGradient><linearGradient id="g2" x2="1" href="#P" gradientTransform="matrix(-162.017,363.037,-525.493,-234.517,1759.904,956.75)"><stop stop-color="#4042e2"/><stop offset="1" stop-color="#4f52ff"/></linearGradient><linearGradient id="g3" x2="1" href="#P" gradientTransform="matrix(-408.041,474.048,-456.721,-393.126,1939.394,1003.921)"><stop stop-color="#4042e2"/><stop offset="1" stop-color="#4f52ff"/></linearGradient><linearGradient id="g4" x2="1" href="#P" gradientTransform="matrix(-408.04,474.048,-430.707,-370.734,1799.757,883.727)"><stop stop-color="#4042e2"/><stop offset="1" stop-color="#4f52ff"/></linearGradient><linearGradient id="g5" x2="1" href="#P" gradientTransform="matrix(-408.04,474.047,-428.66,-368.972,1896.259,966.792)"><stop stop-color="#4042e2"/><stop offset="1" stop-color="#4f52ff"/></linearGradient><linearGradient id="g6" x2="1" href="#P" gradientTransform="matrix(-162.016,363.037,-525.493,-234.517,2040.76,1082.091)"><stop stop-color="#4042e2"/><stop offset="1" stop-color="#4f52ff"/></linearGradient><linearGradient id="g7" x2="1" href="#P" gradientTransform="matrix(-591.059,627.063,-627.661,-591.622,2365.889,931.202)"><stop stop-color="#4042e2"/><stop offset="1" stop-color="#4f52ff"/></linearGradient><linearGradient id="g8" x2="1" href="#P" gradientTransform="matrix(-591.058,627.062,-592.312,-558.303,2230.337,803.434)"><stop stop-color="#4042e2"/><stop offset="1" stop-color="#4f52ff"/></linearGradient><linearGradient id="g9" x2="1" href="#P" gradientTransform="matrix(-591.058,627.062,-592.312,-558.303,2318.769,886.789)"><stop stop-color="#4042e2"/><stop offset="1" stop-color="#4f52ff"/></linearGradient><linearGradient id="g10" x2="1" href="#P" gradientTransform="matrix(309.03,1305.13,-433.455,102.634,344.882,977.125)"><stop stop-color="#4042e2"/><stop offset="1" stop-color="#4f52ff"/></linearGradient><linearGradient id="g11" x2="1" href="#P" gradientTransform="matrix(309.03,1305.13,-433.455,102.634,394.122,965.466)"><stop stop-color="#4042e2"/><stop offset="1" stop-color="#4f52ff"/></linearGradient><linearGradient id="g12" x2="1" href="#P" gradientTransform="matrix(309.029,1305.13,-433.455,102.634,447.149,952.91)"><stop stop-color="#4042e2"/><stop offset="1" stop-color="#4f52ff"/></linearGradient><linearGradient id="g13" x2="1" href="#P" gradientTransform="matrix(309.029,1305.13,-433.455,102.634,498.282,940.802)"><stop stop-color="#4042e2"/><stop offset="1" stop-color="#4f52ff"/></linearGradient><linearGradient id="g14" x2="1" href="#P" gradientTransform="matrix(309.029,1305.13,-433.455,102.634,547.521,929.144)"><stop stop-color="#4042e2"/><stop offset="1" stop-color="#4f52ff"/></linearGradient><linearGradient id="g15" x2="1" href="#P" gradientTransform="matrix(309.029,1305.13,-433.455,102.634,601.495,916.363)"><stop stop-color="#4042e2"/><stop offset="1" stop-color="#4f52ff"/></linearGradient><linearGradient id="g16" x2="1" href="#P" gradientTransform="matrix(309.029,1305.13,-433.455,102.634,650.735,904.705)"><stop stop-color="#4042e2"/><stop offset="1" stop-color="#4f52ff"/></linearGradient><linearGradient id="g17" x2="1" href="#P" gradientTransform="matrix(309.03,1305.13,-433.455,102.634,703.761,892.148)"><stop stop-color="#4042e2"/><stop offset="1" stop-color="#4f52ff"/></linearGradient><linearGradient id="g18" x2="1" href="#P" gradientTransform="matrix(309.029,1305.13,-433.455,102.634,755.842,879.817)"><stop stop-color="#4042e2"/><stop offset="1" stop-color="#4f52ff"/></linearGradient><linearGradient id="g19" x2="1" href="#P" gradientTransform="matrix(309.03,1305.13,-433.455,102.634,806.975,867.709)"><stop stop-color="#4042e2"/><stop offset="1" stop-color="#4f52ff"/></linearGradient><linearGradient id="g20" x2="1" href="#P" gradientTransform="matrix(309.03,1305.13,-433.455,102.634,858.108,855.602)"><stop stop-color="#4042e2"/><stop offset="1" stop-color="#4f52ff"/></linearGradient><linearGradient id="g21" x2="1" href="#P" gradientTransform="matrix(309.029,1305.13,-433.455,102.634,911.135,843.046)"><stop stop-color="#4042e2"/><stop offset="1" stop-color="#4f52ff"/></linearGradient><linearGradient id="g22" x2="1" href="#P" gradientTransform="matrix(309.029,1305.13,-433.455,102.634,960.374,831.387)"><stop stop-color="#4042e2"/><stop offset="1" stop-color="#4f52ff"/></linearGradient><linearGradient id="g23" x2="1" href="#P" gradientTransform="matrix(309.03,1305.13,-325.87,77.16,494.848,941.615)"><stop stop-color="#4042e2"/><stop offset="1" stop-color="#4f52ff"/></linearGradient><linearGradient id="g24" x2="1" href="#P" gradientTransform="matrix(309.03,1305.13,-325.87,77.16,673.923,899.214)"><stop stop-color="#4042e2"/><stop offset="1" stop-color="#4f52ff"/></linearGradient><linearGradient id="g25" x2="1" href="#P" gradientTransform="matrix(123.252,1335.476,-333.503,30.779,230.586,-92.672)"><stop stop-color="#4042e2"/><stop offset="1" stop-color="#4f52ff"/></linearGradient><linearGradient id="g26" x2="1" href="#P" gradientTransform="matrix(-123.252,1335.476,-333.499,-30.779,1095.315,-1255.927)"><stop stop-color="#4042e2"/><stop offset="1" stop-color="#4f52ff"/></linearGradient><linearGradient id="g27" x2="1" href="#P" gradientTransform="matrix(309.029,1305.127,-5087.914,1204.72,662.124,902.007)"><stop stop-color="#4042e2"/><stop offset="1" stop-color="#4f52ff"/></linearGradient><linearGradient id="g28" x2="1" href="#P" gradientTransform="matrix(309.029,1305.127,-5117.937,1211.828,644.418,906.199)"><stop stop-color="#4042e2"/><stop offset="1" stop-color="#4f52ff"/></linearGradient><linearGradient id="g29" x2="1" href="#P" gradientTransform="matrix(309.029,1305.127,-5078.37,1202.46,560.75,926.012)"><stop stop-color="#4042e2"/><stop offset="1" stop-color="#4f52ff"/></linearGradient><linearGradient id="g30" x2="1" href="#P" gradientTransform="matrix(4.208,0,0,5.334,488.968,387.331)"><stop stop-color="#dae3fe"/><stop offset="1" stop-color="#e9effd"/></linearGradient><linearGradient id="g31" x2="1" href="#P" gradientTransform="matrix(244.661,0,0,309.848,281.846,553.966)"><stop stop-color="#dae3fe"/><stop offset="1" stop-color="#e9effd"/></linearGradient><linearGradient id="g32" x2="1" href="#P" gradientTransform="matrix(5.873,0,0,2.987,265.251,701.561)"><stop stop-color="#dae3fe"/><stop offset="1" stop-color="#e9effd"/></linearGradient><linearGradient id="g33" x2="1" href="#P" gradientTransform="matrix(67.241,0,0,67.243,284.893,499.909)"><stop stop-color="#dae3fe"/><stop offset="1" stop-color="#e9effd"/></linearGradient><linearGradient id="g34" x2="1" href="#P" gradientTransform="matrix(177.608,0,0,177.328,230.01,499.058)"><stop stop-color="#dae3fe"/><stop offset="1" stop-color="#e9effd"/></linearGradient><linearGradient id="g35" x2="1" href="#P" gradientTransform="matrix(38.988,0,0,38.987,436.445,264.906)"><stop stop-color="#dae3fe"/><stop offset="1" stop-color="#e9effd"/></linearGradient><linearGradient id="g36" x2="1" href="#P" gradientTransform="matrix(100.831,0,0,100.17,405.669,264.176)"><stop stop-color="#dae3fe"/><stop offset="1" stop-color="#e9effd"/></linearGradient><linearGradient id="g37" x2="1" href="#P" gradientTransform="matrix(29.727,0,0,29.727,1857.734,777.67)"><stop stop-color="#dae3fe"/><stop offset="1" stop-color="#e9effd"/></linearGradient><linearGradient id="g38" x2="1" href="#P" gradientTransform="matrix(75.632,0,0,75.513,1834.904,777.313)"><stop stop-color="#dae3fe"/><stop offset="1" stop-color="#e9effd"/></linearGradient><linearGradient id="g39" x2="1" href="#P" gradientTransform="matrix(17.978,0,0,17.965,1920.773,679.887)"><stop stop-color="#dae3fe"/><stop offset="1" stop-color="#e9effd"/></linearGradient><linearGradient id="g40" x2="1" href="#P" gradientTransform="matrix(43.714,0,0,43.417,1907.962,679.579)"><stop stop-color="#dae3fe"/><stop offset="1" stop-color="#e9effd"/></linearGradient><linearGradient id="g41" x2="1" href="#P" gradientTransform="matrix(-103,104.5,-117.965,-116.272,251.423,924.481)"><stop stop-color="#4042e2"/><stop offset="1" stop-color="#4f52ff"/></linearGradient><linearGradient id="g42" x2="1" href="#P" gradientTransform="matrix(61.335,19.056,-8.045,25.893,221.276,1280.874)"><stop stop-color="#09005d"/><stop offset="1" stop-color="#1a0f91"/></linearGradient><linearGradient id="g43" x2="1" href="#P" gradientTransform="matrix(-84.875,333.862,-1602.559,-407.406,635.193,-219.609)"><stop stop-color="#4042e2"/><stop offset="1" stop-color="#4f52ff"/></linearGradient><linearGradient id="g44" x2="1" href="#P" gradientTransform="matrix(15.532,4.825,-7.648,24.617,230.88,1260.978)"><stop stop-color="#ff928e"/><stop offset="1" stop-color="#feb3b1"/></linearGradient><linearGradient id="g45" x2="1" href="#P" gradientTransform="matrix(64.227,.34,-0.143,26.904,55.098,1370.113)"><stop stop-color="#09005d"/><stop offset="1" stop-color="#1a0f91"/></linearGradient><linearGradient id="g46" x2="1" href="#P" gradientTransform="matrix(16.177,344.096,-1652.094,77.669,83.426,1302.638)"><stop stop-color="#4042e2"/><stop offset="1" stop-color="#4f52ff"/></linearGradient><linearGradient id="g47" x2="1" href="#P" gradientTransform="matrix(20.447,.108,-0.127,23.876,62.714,1350.856)"><stop stop-color="#ff928e"/><stop offset="1" stop-color="#feb3b1"/></linearGradient><linearGradient id="g48" x2="1" href="#P" gradientTransform="matrix(-73,105,-63.41,-44.085,351.538,963.403)"><stop stop-color="#09005d"/><stop offset="1" stop-color="#1a0f91"/></linearGradient><linearGradient id="g49" x2="1" href="#P" gradientTransform="matrix(-167.999,130.999,-31.467,-40.354,228.962,1108.822)"><stop stop-color="#09005d"/><stop offset="1" stop-color="#1a0f91"/></linearGradient><linearGradient id="g50" x2="1" href="#P" gradientTransform="matrix(-25.5,104,-89.96,-22.058,228.593,879.013)"><stop stop-color="#ff928e"/><stop offset="1" stop-color="#feb3b1"/></linearGradient><linearGradient id="g51" x2="1" href="#P" gradientTransform="matrix(25,58,-46.041,19.845,82.335,543.947)"><stop stop-color="#ff928e"/><stop offset="1" stop-color="#feb3b1"/></linearGradient><linearGradient id="g52" x2="1" href="#P" gradientTransform="matrix(46.931,60.424,-109.541,85.08,203.66,839.939)"><stop stop-color="#09005d"/><stop offset="1" stop-color="#1a0f91"/></linearGradient><linearGradient id="g53" x2="1" href="#P" gradientTransform="matrix(25,58,-30.021,12.94,65.739,551.103)"><stop stop-color="#ff928e"/><stop offset="1" stop-color="#feb3b1"/></linearGradient><linearGradient id="g54" x2="1" href="#P" gradientTransform="matrix(-54.33,243.635,-332.1,-74.058,154.94,1039.18)"><stop stop-color="#fe7062"/><stop offset="1" stop-color="#ff928e"/></linearGradient><linearGradient id="g55" x2="1" href="#P" gradientTransform="matrix(-103,104.5,-49.74,-49.026,225.765,899.192)"><stop stop-color="#4042e2"/><stop offset="1" stop-color="#4f52ff"/></linearGradient><linearGradient id="g56" x2="1" href="#P" gradientTransform="matrix(6,76.496,-27.416,2.15,94.525,846.969)"><stop stop-color="#ff928e"/><stop offset="1" stop-color="#feb3b1"/></linearGradient><linearGradient id="g57" x2="1" href="#P" gradientTransform="matrix(960.092,1281.123,-1213.121,909.13,528.641,38.805)"><stop stop-color="#09005d"/><stop offset="1" stop-color="#1a0f91"/></linearGradient><linearGradient id="g58" x2="1" href="#P" gradientTransform="matrix(880.977,-1299.75,1265.298,857.625,547.539,1642.909)"><stop stop-color="#4042e2"/><stop offset="1" stop-color="#4f52ff"/></linearGradient><linearGradient id="g59" x2="1" href="#P" gradientTransform="matrix(-116,1032.002,-696.713,-78.313,1131.379,801.143)"><stop stop-color="#fe7062"/><stop offset="1" stop-color="#ff928e"/></linearGradient><linearGradient id="g60" x2="1" href="#P" gradientTransform="matrix(-116,1031.999,-696.719,-78.313,1144.194,802.584)"><stop stop-color="#fe7062"/><stop offset="1" stop-color="#ff928e"/></linearGradient><linearGradient id="g61" x2="1" href="#P" gradientTransform="matrix(-116,1031.999,-696.72,-78.314,1157.009,804.024)"><stop stop-color="#fe7062"/><stop offset="1" stop-color="#ff928e"/></linearGradient><linearGradient id="g62" x2="1" href="#P" gradientTransform="matrix(-116,1032,-696.716,-78.313,1169.824,805.465)"><stop stop-color="#fe7062"/><stop offset="1" stop-color="#ff928e"/></linearGradient><linearGradient id="g63" x2="1" href="#P" gradientTransform="matrix(-347.446,457.057,-472.377,-359.092,1245.378,-79.622)"><stop stop-color="#09005d"/><stop offset="1" stop-color="#1a0f91"/></linearGradient><linearGradient id="g64" x2="1" href="#P" gradientTransform="matrix(-347.446,457.056,-580.336,-441.16,1283.49,-50.65)"><stop stop-color="#09005d"/><stop offset="1" stop-color="#1a0f91"/></linearGradient><linearGradient id="g65" x2="1" href="#P" gradientTransform="matrix(-239.904,440.512,-718.932,-391.532,1239.706,-22.693)"><stop stop-color="#4042e2"/><stop offset="1" stop-color="#4f52ff"/></linearGradient><linearGradient id="g66" x2="1" href="#P" gradientTransform="matrix(-142.678,105.491,-128.24,-173.447,1042.2,373.019)"><stop stop-color="#4042e2"/><stop offset="1" stop-color="#4f52ff"/></linearGradient><linearGradient id="g67" x2="1" href="#P" gradientTransform="matrix(-160.492,331.483,-661.051,-320.056,1502.712,1561.274)"><stop stop-color="#09005d"/><stop offset="1" stop-color="#1a0f91"/></linearGradient><linearGradient id="g68" x2="1" href="#P" gradientTransform="matrix(-6.534,-51.081,41.655,-5.328,1559.1,1378.171)"><stop stop-color="#ff928e"/><stop offset="1" stop-color="#feb3b1"/></linearGradient><linearGradient id="g69" x2="1" href="#P" gradientTransform="matrix(-160.492,331.483,-350.701,-169.796,1375.742,1499.799)"><stop stop-color="#09005d"/><stop offset="1" stop-color="#1a0f91"/></linearGradient><linearGradient id="g70" x2="1" href="#P" gradientTransform="matrix(-6.367,-49.777,45.591,-5.831,1416.299,1395.678)"><stop stop-color="#ff928e"/><stop offset="1" stop-color="#feb3b1"/></linearGradient><linearGradient id="g71" x2="1" href="#P" gradientTransform="matrix(-557.973,395.981,-588.451,-829.18,1775.483,981.673)"><stop stop-color="#09005d"/><stop offset="1" stop-color="#1a0f91"/></linearGradient><linearGradient id="g72" x2="1" href="#P" gradientTransform="matrix(-235.489,173.992,-181.755,-245.996,1525.498,1058.724)"><stop stop-color="#020039"/><stop offset="1" stop-color="#090056"/></linearGradient><linearGradient id="g73" x2="1" href="#P" gradientTransform="matrix(-122.356,363.504,-260.305,-87.619,1529.744,877.038)"><stop stop-color="#fe7062"/><stop offset="1" stop-color="#ff928e"/></linearGradient><linearGradient id="g74" x2="1" href="#P" gradientTransform="matrix(-349.483,214.49,-222.997,-363.344,1652.117,872.061)"><stop stop-color="#e1473d"/><stop offset="1" stop-color="#e9605a"/></linearGradient><linearGradient id="g75" x2="1" href="#P" gradientTransform="matrix(-61.333,-186,107.713,-35.518,1535.276,1165.527)"><stop stop-color="#ff928e"/><stop offset="1" stop-color="#feb3b1"/></linearGradient><linearGradient id="g76" x2="1" href="#P" gradientTransform="matrix(-82,104.667,-42.657,-33.42,1716.529,866.641)"><stop stop-color="#ff928e"/><stop offset="1" stop-color="#feb3b1"/></linearGradient><linearGradient id="g77" x2="1" href="#P" gradientTransform="matrix(57.995,-59.501,54.148,52.778,1486.658,863.428)"><stop stop-color="#ff928e"/><stop offset="1" stop-color="#feb3b1"/></linearGradient><linearGradient id="g78" x2="1" href="#P" gradientTransform="matrix(-131.333,16.667,-20.459,-161.218,1665.313,775.962)"><stop stop-color="#ff928e"/><stop offset="1" stop-color="#feb3b1"/></linearGradient><linearGradient id="g79" x2="1" href="#P" gradientTransform="matrix(-119.333,130,-104.544,-95.966,1536.219,800.486)"><stop stop-color="#09005d"/><stop offset="1" stop-color="#1a0f91"/></linearGradient><linearGradient id="g80" x2="1" href="#P" gradientTransform="matrix(57.995,-59.501,60.827,59.287,1464.866,842.188)"><stop stop-color="#ff928e"/><stop offset="1" stop-color="#feb3b1"/></linearGradient><linearGradient id="g81" x2="1" href="#P" gradientTransform="matrix(-349.482,214.49,-348.461,-567.771,1641.754,855.174)"><stop stop-color="#e1473d"/><stop offset="1" stop-color="#e9605a"/></linearGradient><linearGradient id="g82" x2="1" href="#P" gradientTransform="matrix(27.619,-173.734,43.052,6.844,1889.242,1378.692)"><stop stop-color="#4042e2"/><stop offset="1" stop-color="#4f52ff"/></linearGradient><linearGradient id="g83" x2="1" href="#P" gradientTransform="matrix(27.62,-173.735,782.453,124.391,1900.274,1380.445)"><stop stop-color="#4042e2"/><stop offset="1" stop-color="#4f52ff"/></linearGradient><linearGradient id="g84" x2="1" href="#P" gradientTransform="matrix(27.619,-173.735,426.586,67.817,1878.977,1377.061)"><stop stop-color="#4042e2"/><stop offset="1" stop-color="#4f52ff"/></linearGradient><linearGradient id="g85" x2="1" href="#P" gradientTransform="matrix(90.86,0,0,226.745,1759.762,1268.075)"><stop stop-color="#ff928e"/><stop offset="1" stop-color="#feb3b1"/></linearGradient><linearGradient id="g86" x2="1" href="#P" gradientTransform="matrix(0,76,-77.617,0,1813.29,1150)"><stop stop-color="#09005d"/><stop offset="1" stop-color="#1a0f91"/></linearGradient><linearGradient id="g87" x2="1" href="#P" gradientTransform="matrix(-12,59.333,-36.641,-7.411,1794.942,1072.273)"><stop stop-color="#ff928e"/><stop offset="1" stop-color="#feb3b1"/></linearGradient><linearGradient id="g88" x2="1" href="#P" gradientTransform="matrix(-48,116.667,-193.89,-79.772,1881.272,1174.981)"><stop stop-color="#fe7062"/><stop offset="1" stop-color="#ff928e"/></linearGradient><linearGradient id="g89" x2="1" href="#P" gradientTransform="matrix(0,76,-262.95,0,1681.877,1149.999)"><stop stop-color="#09005d"/><stop offset="1" stop-color="#1a0f91"/></linearGradient><linearGradient id="g90" x2="1" href="#P" gradientTransform="matrix(-73.423,71.827,-91.803,-93.843,1988.641,909.377)"><stop stop-color="#09005d"/><stop offset="1" stop-color="#1a0f91"/></linearGradient><linearGradient id="g91" x2="1" href="#P" gradientTransform="matrix(101.88,221.739,-169.918,78.07,1897.388,1064.767)"><stop stop-color="#fe7062"/><stop offset="1" stop-color="#ff928e"/></linearGradient><linearGradient id="g92" x2="1" href="#P" gradientTransform="matrix(13.333,71.333,-65.69,12.278,1856.923,940.432)"><stop stop-color="#ff928e"/><stop offset="1" stop-color="#feb3b1"/></linearGradient><linearGradient id="g93" x2="1" href="#P" gradientTransform="matrix(-55.333,62,-46.762,-41.734,1895.22,868.196)"><stop stop-color="#ff928e"/><stop offset="1" stop-color="#feb3b1"/></linearGradient><linearGradient id="g94" x2="1" href="#P" gradientTransform="matrix(-73.524,71.926,-107.583,-109.974,1924.056,843.289)"><stop stop-color="#09005d"/><stop offset="1" stop-color="#1a0f91"/></linearGradient><linearGradient id="g95" x2="1" href="#P" gradientTransform="matrix(-55.333,62,-34.612,-30.89,1911.277,882.527)"><stop stop-color="#ff928e"/><stop offset="1" stop-color="#feb3b1"/></linearGradient><linearGradient id="g96" x2="1" href="#P" gradientTransform="matrix(-52,60,-60.741,-52.642,2008.618,1001.402)"><stop stop-color="#ff928e"/><stop offset="1" stop-color="#feb3b1"/></linearGradient><linearGradient id="g97" x2="1" href="#P" gradientTransform="matrix(-111.71,36.639,-14.183,-43.245,1926.911,1099.135)"><stop stop-color="#09005d"/><stop offset="1" stop-color="#1a0f91"/></linearGradient><linearGradient id="g98" x2="1" href="#P" gradientTransform="matrix(-80.449,85.03,-128.955,-122.008,1773.455,1025.889)"><stop stop-color="#09005d"/><stop offset="1" stop-color="#1a0f91"/></linearGradient><linearGradient id="g99" x2="1" href="#P" gradientTransform="matrix(-0.593,-35.612,240.273,-4.004,1548.057,1203.731)"><stop stop-color="#4042e2"/><stop offset="1" stop-color="#4f52ff"/></linearGradient></defs><style>.a{fill:#fff}.b{fill:url(#g1)}.c{fill:#bdd0fb}.d{fill:#dce5fe}.e{fill:#7d97f4}.f{fill:url(#g2)}.g{fill:url(#g3)}.h{fill:url(#g4)}.i{fill:url(#g5)}.j{fill:url(#g6)}.k{fill:url(#g7)}.l{fill:url(#g8)}.m{fill:url(#g9)}.n{fill:#91b3fa}.o{fill:url(#g10)}.p{fill:url(#g11)}.q{fill:url(#g12)}.r{fill:url(#g13)}.s{fill:url(#g14)}.t{fill:url(#g15)}.u{fill:url(#g16)}.v{fill:url(#g17)}.w{fill:url(#g18)}.x{fill:url(#g19)}.y{fill:url(#g20)}.z{fill:url(#g21)}.A{fill:url(#g22)}.B{fill:url(#g23)}.C{fill:url(#g24)}.D{fill:url(#g25)}.E{fill:url(#g26)}.F{fill:url(#g27)}.G{fill:url(#g28)}.H{fill:url(#g29)}.I{fill:url(#g30)}.J{fill:url(#g31)}.K{fill:url(#g32)}.L{fill:url(#g33)}.M{fill:url(#g34)}.N{fill:url(#g35)}.O{fill:url(#g36)}.P{fill:url(#g37)}.Q{fill:url(#g38)}.R{fill:url(#g39)}.S{fill:url(#g40)}.T{fill:url(#g41)}.U{fill:url(#g42)}.V{fill:url(#g43)}.W{fill:url(#g44)}.X{fill:url(#g45)}.Y{fill:url(#g46)}.Z{fill:url(#g47)}.a0{fill:url(#g48)}.a1{fill:url(#g49)}.a2{fill:url(#g50)}.a3{fill:url(#g51)}.a4{fill:url(#g52)}.a5{fill:url(#g53)}.a6{fill:url(#g54)}.a7{fill:url(#g55)}.a8{fill:url(#g56)}.a9{fill:url(#g57)}.aa{fill:url(#g58)}.ab{opacity:.78;fill:#fff}.ac{opacity:.6;fill:#fff}.ad{fill:url(#g59)}.ae{fill:url(#g60)}.af{fill:url(#g61)}.ag{fill:url(#g62)}.ah{fill:url(#g63)}.ai{fill:url(#g64)}.aj{fill:url(#g65)}.ak{fill:url(#g66)}.al{fill:url(#g67)}.am{fill:url(#g68)}.an{fill:url(#g69)}.ao{fill:url(#g70)}.ap{fill:url(#g71)}.aq{fill:url(#g72)}.ar{fill:url(#g73)}.as{fill:url(#g74)}.at{fill:url(#g75)}.au{fill:url(#g76)}.av{fill:url(#g77)}.aw{fill:url(#g78)}.ax{fill:url(#g79)}.ay{fill:url(#g80)}.az{fill:url(#g81)}.aA{fill:url(#g82)}.aB{fill:url(#g83)}.aC{fill:url(#g84)}.aD{fill:url(#g85)}.aE{fill:url(#g86)}.aF{fill:url(#g87)}.aG{fill:url(#g88)}.aH{fill:url(#g89)}.aI{fill:url(#g90)}.aJ{fill:url(#g91)}.aK{fill:url(#g92)}.aL{fill:url(#g93)}.aM{fill:url(#g94)}.aN{fill:url(#g95)}.aO{fill:url(#g96)}.aP{fill:url(#g97)}.aQ{fill:url(#g98)}.aR{fill:url(#g99)}</style><path fill-rule="evenodd" class="a" d="m-116-80h2475v1650h-2475z"/><path class="b" d="m2197.8 667.4c-58.9-79.4-183.5-121.9-186.8-241-2.1-77.3 34.2-119.2-23.8-185.2-140.5-159.6-356.8-178.3-541.6-111.6-184.7 66.6-332.3 200.2-537.6 192.1-111.9-4.4-215.7-55.7-326.4-65.3-34.1-3-66-0.4-95.8 6.9-111.7 27.7-210.3 131.6-247.5 247-30.1 93.6 8.4 186-38.9 277.6-50.3 97.7-149.6 165.5-174.6 278.3-30 135.3 84.7 253 207.8 256.7 78.4 2.3 223.7-9.8 290.2-56.6 81.1-56.9 160.8-60.6 255.3-58.5 179.9 4.2 359.8 43.3 537.3 71.2 152.2 23.9 302.1 59.2 456.3 63.7 113.2 3.3 209.3 4.8 270.6-114.1 73.2-142.2 278.8-394.6 155.5-561.2z"/><path class="c" d="m2095.5 1089.4c0 0 146.4-158.5 131.7-410-0.1-1.6-2.8-2.6-3.4-1.3-50.8 122.2-92.6 261.3-128.3 411.3z"/><path class="d" d="m2097.3 1084.6q-0.2 0-0.3-0.1c-0.2-0.1-0.3-0.4-0.1-0.7 59.2-91 118.9-344.4 119.5-347 0.1-0.3 0.4-0.4 0.6-0.4 0.3 0.1 0.5 0.4 0.4 0.6-0.6 2.6-60.4 256.2-119.7 347.4q-0.2 0.2-0.4 0.2z"/><path class="c" d="m2105.8 1043.4c0 0 75.4-253.1-20.4-562.6-0.6-2.1-3.3-2.4-3.3-0.4-4.1 172 5.4 361.8 23.7 563z"/><path class="d" d="m2105.7 1036.6q-0.1 0-0.1 0c-0.3 0-0.5-0.3-0.4-0.5 21.6-136.2-10-476-10.3-479.4 0-0.3 0.2-0.6 0.5-0.6 0.3 0 0.5 0.2 0.5 0.5 0.3 3.4 31.9 343.4 10.2 479.6 0 0.3-0.2 0.4-0.4 0.4z"/><path class="c" d="m2071.5 1071c0 0 63.9-187-43-411-0.7-1.5-3.3-1.6-3.3-0.2 3 125.9 20.1 264.4 46.3 411.2z"/><path class="d" d="m2071 1066.1q0 0 0 0c-0.3 0-0.5-0.3-0.5-0.5 15.8-100.1-29.1-347.8-29.5-350.3-0.1-0.3 0.1-0.5 0.4-0.6 0.2 0 0.5 0.1 0.5 0.4 0.5 2.5 45.4 250.4 29.6 350.6 0 0.3-0.2 0.4-0.5 0.4z"/><path fill-rule="evenodd" class="e" d="m1569.6 1000.6l121.8-174.9 179.3 255.6-20.3 268.7h-269.4z"/><path fill-rule="evenodd" class="f" d="m1569.6 1017.1l123.4-154.5 189.6 246.9 11.1-16.8-210.7-293.7-137.5 202.4z"/><path fill-rule="evenodd" class="g" d="m1674.4 1350l5.3-175h62.6l11.7 175z"/><path fill-rule="evenodd" class="h" d="m1607 1053.5v73.5h30v-76.8z"/><path fill-rule="evenodd" class="i" d="m1776 1053.5v73.5h28v-76.8z"/><path fill-rule="evenodd" class="e" d="m1906.4 1000.6l121.8-174.9 179.3 255.6-20.3 268.7h-269.4z"/><path fill-rule="evenodd" class="j" d="m1906.4 1017.1l123.4-154.5 189.6 246.9 11.1-16.8-210.7-293.7-137.5 202.4z"/><path fill-rule="evenodd" class="k" d="m2011.2 1350l5.3-175h62.6l11.7 175z"/><path fill-rule="evenodd" class="l" d="m1945 1053.5v73.5h30v-76.8z"/><path fill-rule="evenodd" class="m" d="m2112 1053.5v73.5h30v-76.8z"/><path class="n" d="m802.9 323h-398.2c-40.1 0-72.7 32.1-72.7 72.2v359.8h543v-359.8c0-40.1-32-72.2-72.1-72.2z"/><path class="o" d="m289 756c0 2.8-2.2 5-5 5-2.8 0-5-2.2-5-5v-72c0-2.8 2.2-5 5-5 2.8 0 5 2.2 5 5z"/><path class="p" d="m341 756c0 2.8-2.2 5-5 5-2.8 0-5-2.2-5-5v-72c0-2.8 2.2-5 5-5 2.8 0 5 2.2 5 5z"/><path class="q" d="m397 756c0 2.8-2.2 5-5 5-2.8 0-5-2.2-5-5v-72c0-2.8 2.2-5 5-5 2.8 0 5 2.2 5 5z"/><path class="r" d="m451 756c0 2.8-2.2 5-5 5-2.8 0-5-2.2-5-5v-72c0-2.8 2.2-5 5-5 2.8 0 5 2.2 5 5z"/><path class="s" d="m503 756c0 2.8-2.2 5-5 5-2.8 0-5-2.2-5-5v-72c0-2.8 2.2-5 5-5 2.8 0 5 2.2 5 5z"/><path class="t" d="m560 756c0 2.8-2.2 5-5 5-2.8 0-5-2.2-5-5v-72c0-2.8 2.2-5 5-5 2.8 0 5 2.2 5 5z"/><path class="u" d="m612 756c0 2.8-2.2 5-5 5-2.8 0-5-2.2-5-5v-72c0-2.8 2.2-5 5-5 2.8 0 5 2.2 5 5z"/><path class="v" d="m668 756c0 2.8-2.2 5-5 5-2.8 0-5-2.2-5-5v-72c0-2.8 2.2-5 5-5 2.8 0 5 2.2 5 5z"/><path class="w" d="m723 756c0 2.8-2.2 5-5 5-2.8 0-5-2.2-5-5v-72c0-2.8 2.2-5 5-5 2.8 0 5 2.2 5 5z"/><path class="x" d="m777 756c0 2.8-2.2 5-5 5-2.8 0-5-2.2-5-5v-72c0-2.8 2.2-5 5-5 2.8 0 5 2.2 5 5z"/><path class="y" d="m831 756c0 2.8-2.2 5-5 5-2.8 0-5-2.2-5-5v-72c0-2.8 2.2-5 5-5 2.8 0 5 2.2 5 5z"/><path class="z" d="m887 756c0 2.8-2.2 5-5 5-2.8 0-5-2.2-5-5v-72c0-2.8 2.2-5 5-5 2.8 0 5 2.2 5 5z"/><path class="A" d="m939 756c0 2.8-2.2 5-5 5-2.8 0-5-2.2-5-5v-72c0-2.8 2.2-5 5-5 2.8 0 5 2.2 5 5z"/><path class="B" d="m527 1385.6c-2.8 0-5.1-2.2-5.1-5v-606.6c0-2.8 2.3-5.1 5.1-5.1 2.8 0 5 2.3 5 5.1v606.6c0 2.8-2.2 5-5 5z"/><path class="C" d="m716.1 1385.6c-2.8 0-5.1-2.2-5.1-5v-606.6c0-2.8 2.3-5.1 5.1-5.1 2.8 0 5.1 2.3 5.1 5.1v606.6c0 2.8-2.3 5-5.1 5z"/><path class="D" d="m295.4 1382.6c-2.8-0.4-4.7-3-4.3-5.7l84.9-600.7c0.4-2.7 3-4.7 5.7-4.3 2.8 0.4 4.8 3 4.4 5.8l-85 600.6c-0.4 2.8-3 4.7-5.7 4.3z"/><path class="E" d="m923.2 1382.6c2.7-0.4 4.7-3 4.3-5.7l-85-600.7c-0.4-2.7-2.9-4.7-5.7-4.3-2.8 0.4-4.7 3-4.3 5.8l84.9 600.6c0.4 2.8 3 4.7 5.8 4.3z"/><path class="e" d="m74 1389.5q-1 0-2-0.4c-2.6-1.1-3.8-4.1-2.7-6.7l259.5-610.4c1.1-2.6 4.1-3.8 6.7-2.7 2.5 1.1 3.8 4.1 2.7 6.7l-259.6 610.4c-0.8 1.9-2.7 3.1-4.6 3.1z"/><path class="e" d="m234.3 1389.5q-1 0-2-0.4c-2.6-1.1-3.8-4.1-2.7-6.7l259.5-610.4c1.1-2.6 4.1-3.8 6.7-2.7 2.5 1.1 3.8 4.1 2.7 6.7l-259.6 610.4c-0.8 1.9-2.7 3.1-4.6 3.1z"/><path class="e" d="m454.6 872.4h-160.8c-2.8 0-5.1-2.3-5.1-5.1 0-2.8 2.3-5.1 5.1-5.1h160.8c2.8 0 5.1 2.3 5.1 5.1 0 2.8-2.3 5.1-5.1 5.1z"/><path fill-rule="evenodd" class="e" d="m244.5 977.7h160.7v10.1h-160.7z"/><path fill-rule="evenodd" class="e" d="m196.7 1093.1h160.8v10.2h-160.8z"/><path class="e" d="m307.4 1218.7h-160.8c-2.8 0-5-2.2-5-5 0-2.8 2.2-5.1 5-5.1h160.8c2.8 0 5.1 2.3 5.1 5.1 0 2.8-2.3 5-5.1 5z"/><path class="e" d="m268.4 1316.9h-160.8c-2.8 0-5.1-2.3-5.1-5.1 0-2.8 2.3-5.1 5.1-5.1h160.8c2.8 0 5 2.3 5 5.1 0 2.8-2.2 5.1-5 5.1z"/><path class="e" d="m902 776.8c0 4-3.2 7.2-7.2 7.2h-567.6c-4 0-7.2-3.2-7.2-7.2v-1.6c0-4 3.2-7.2 7.2-7.2h567.6c4 0 7.2 3.2 7.2 7.2z"/><path class="F" d="m955 672h-689c-4.4 0-7.8 4.4-7.8 8.7 0 4.1 3.3 8.3 7.4 8.3h689.4c4.1 0 6-4.5 6-8.6v-0.4c0-4.1-1.9-8-6-8z"/><path class="G" d="m955 752h-689c-4.4 0-7.8 3.9-7.8 8.2 0 4.1 3.3 7.8 7.4 7.8h689.4c4.1 0 6-5.2 6-9.3v-0.4c0-4.1-1.9-6.3-6-6.3z"/><path class="H" d="m911.1 1146h-595.1c-3.8 0-6.8 4.4-6.8 8.2 0 3.5 2.9 7.8 6.4 7.8h595.5c3.6 0 8.9-5.8 8.9-9.3v-0.4c0-3.5-5.3-6.3-8.9-6.3z"/><path class="c" d="m832 394.1c0 2.7-2.2 4.9-4.9 4.9h-466.2c-2.7 0-4.9-2.2-4.9-4.9v-1.2c0-2.7 2.2-4.9 4.9-4.9h466.2c2.7 0 4.9 2.2 4.9 4.9z"/><path class="c" d="m832 466.1c0 2.7-2.2 4.9-4.9 4.9h-466.2c-2.7 0-4.9-2.2-4.9-4.9v-1.2c0-2.7 2.2-4.9 4.9-4.9h466.2c2.7 0 4.9 2.2 4.9 4.9z"/><path class="c" d="m832 537.1c0 2.7-2.2 4.9-4.9 4.9h-466.2c-2.7 0-4.9-2.2-4.9-4.9v-1.2c0-2.7 2.2-4.9 4.9-4.9h466.2c2.7 0 4.9 2.2 4.9 4.9z"/><path class="c" d="m832 609.1c0 2.7-2.2 4.9-4.9 4.9h-466.2c-2.7 0-4.9-2.2-4.9-4.9v-1.2c0-2.7 2.2-4.9 4.9-4.9h466.2c2.7 0 4.9 2.2 4.9 4.9z"/><path class="n" d="m158.5 632.3c-0.3 0-0.6-0.1-0.8-0.4q-1.3-1.5-2.5-3.1c-0.3-0.4-0.3-1.1 0.2-1.4 0.4-0.3 1-0.3 1.4 0.2q1.2 1.5 2.4 3.1c0.4 0.4 0.3 1-0.1 1.4q-0.3 0.2-0.6 0.2z"/><path class="n" d="m148.3 618.6c-0.3 0-0.7-0.2-0.9-0.5-1.5-2.2-3-4.5-4.4-6.8-0.3-0.4-0.1-1 0.3-1.3 0.5-0.3 1.1-0.2 1.4 0.3 1.4 2.2 2.9 4.5 4.4 6.7 0.3 0.5 0.2 1.1-0.3 1.4q-0.2 0.2-0.5 0.2zm-11-18.1c-0.4 0-0.7-0.2-0.9-0.6-1.3-2.3-2.5-4.8-3.7-7.2-0.2-0.5 0-1.1 0.5-1.3 0.5-0.3 1.1-0.1 1.3 0.4 1.2 2.4 2.4 4.8 3.7 7.2 0.2 0.5 0.1 1.1-0.4 1.3q-0.3 0.2-0.5 0.2zm-9.1-19.2c-0.4 0-0.7-0.2-0.9-0.6-1-2.5-2-5-2.9-7.6-0.2-0.5 0-1 0.6-1.2 0.5-0.2 1.1 0 1.2 0.6 1 2.5 1.9 5 3 7.4 0.2 0.6-0.1 1.1-0.6 1.3q-0.2 0.1-0.4 0.1zm-7-19.9c-0.5 0-0.9-0.3-1-0.8-0.8-2.6-1.5-5.2-2.2-7.8-0.1-0.5 0.2-1.1 0.8-1.2 0.5-0.1 1 0.2 1.2 0.7 0.6 2.6 1.4 5.2 2.1 7.8 0.2 0.5-0.1 1.1-0.6 1.2q-0.2 0.1-0.3 0.1zm-5-20.6c-0.5 0-0.9-0.4-1-0.8-0.5-2.7-1-5.4-1.4-8-0.1-0.6 0.3-1.1 0.9-1.2 0.5 0 1 0.3 1.1 0.9 0.4 2.6 0.8 5.3 1.3 7.9 0.1 0.5-0.2 1.1-0.8 1.2q-0.1 0-0.1 0zm-2.9-21c-0.5 0-1-0.4-1-0.9-0.3-2.7-0.4-5.4-0.6-8.1 0-0.6 0.5-1 1-1.1 0.5 0 1 0.4 1 1 0.2 2.7 0.3 5.3 0.6 8 0 0.6-0.4 1-0.9 1.1q-0.1 0-0.1 0zm-0.7-21.2q0 0 0 0c-0.6 0-1-0.4-1-1 0-2.7 0.1-5.4 0.3-8.1 0-0.6 0.5-1 1-1 0.6 0.1 1 0.5 1 1.1-0.2 2.7-0.3 5.4-0.3 8 0 0.6-0.5 1-1 1zm1.5-21.1q-0.1 0-0.2 0c-0.5-0.1-0.9-0.6-0.8-1.1 0.3-2.7 0.7-5.4 1.1-8.1 0.1-0.5 0.6-0.9 1.2-0.8 0.5 0.1 0.9 0.6 0.8 1.1-0.4 2.7-0.8 5.4-1.1 8-0.1 0.5-0.5 0.9-1 0.9zm3.6-20.9q-0.1 0-0.2 0c-0.5-0.1-0.9-0.7-0.7-1.2 0.6-2.7 1.2-5.3 1.9-7.9 0.2-0.5 0.7-0.8 1.2-0.7 0.6 0.1 0.9 0.7 0.7 1.2-0.6 2.6-1.3 5.2-1.9 7.8-0.1 0.5-0.5 0.8-1 0.8zm5.8-20.4q-0.2 0-0.3 0c-0.5-0.2-0.8-0.8-0.6-1.3 0.8-2.6 1.8-5.1 2.7-7.6 0.2-0.5 0.8-0.8 1.3-0.6 0.5 0.2 0.8 0.8 0.6 1.3-1 2.5-1.9 5-2.7 7.5-0.2 0.5-0.6 0.7-1 0.7zm7.8-19.7q-0.2 0-0.4-0.1c-0.5-0.2-0.7-0.8-0.5-1.3 1.1-2.4 2.3-4.9 3.5-7.3 0.3-0.5 0.9-0.7 1.4-0.4 0.5 0.2 0.7 0.8 0.4 1.3-1.2 2.4-2.4 4.8-3.5 7.3-0.1 0.3-0.5 0.5-0.9 0.5zm9.8-18.7q-0.2 0-0.5-0.2c-0.5-0.3-0.6-0.9-0.3-1.3 1.3-2.4 2.8-4.7 4.2-7 0.3-0.4 0.9-0.6 1.4-0.3 0.4 0.3 0.6 1 0.3 1.4-1.4 2.3-2.9 4.6-4.2 6.9-0.2 0.3-0.5 0.5-0.9 0.5zm11.7-17.7q-0.3 0-0.6-0.2c-0.5-0.3-0.6-1-0.2-1.4 1.6-2.2 3.2-4.3 4.9-6.4 0.3-0.5 1-0.5 1.4-0.2 0.4 0.3 0.5 1 0.2 1.4-1.7 2.1-3.4 4.2-4.9 6.4-0.2 0.2-0.5 0.4-0.8 0.4zm13.4-16.4q-0.4 0-0.7-0.3c-0.4-0.3-0.5-1-0.1-1.4 1.8-2 3.7-4 5.6-5.9 0.4-0.4 1-0.4 1.4 0 0.4 0.4 0.4 1 0 1.4-1.9 1.9-3.7 3.9-5.5 5.9-0.2 0.2-0.5 0.3-0.7 0.3zm15-14.9c-0.3 0-0.6-0.1-0.8-0.4-0.4-0.4-0.3-1 0.1-1.4 2-1.8 4.1-3.6 6.1-5.3 0.4-0.3 1.1-0.3 1.4 0.2 0.4 0.4 0.3 1-0.1 1.4-2.1 1.7-4.1 3.4-6.1 5.2q-0.3 0.3-0.6 0.3zm16.4-13.3c-0.3 0-0.6-0.2-0.8-0.4-0.3-0.5-0.2-1.1 0.2-1.4 2.2-1.6 4.4-3.2 6.7-4.7 0.4-0.3 1-0.2 1.4 0.3 0.3 0.5 0.1 1.1-0.3 1.4-2.2 1.5-4.5 3-6.6 4.6q-0.3 0.2-0.6 0.2zm17.8-11.6c-0.4 0-0.7-0.2-0.9-0.5-0.3-0.5-0.1-1.1 0.4-1.3 2.3-1.4 4.7-2.7 7-4 0.5-0.2 1.1 0 1.4 0.4 0.3 0.5 0.1 1.1-0.4 1.4-2.4 1.2-4.7 2.5-7 3.9q-0.3 0.1-0.5 0.1zm18.8-9.6c-0.4 0-0.7-0.3-0.9-0.6-0.2-0.5 0-1.1 0.5-1.3 2.4-1.1 4.9-2.2 7.4-3.2 0.6-0.2 1.1 0 1.3 0.5 0.3 0.5 0 1.1-0.5 1.3-2.5 1-5 2.1-7.4 3.2q-0.2 0.1-0.4 0.1zm19.7-7.7c-0.4 0-0.8-0.3-0.9-0.7-0.2-0.5 0.1-1.1 0.6-1.3 2.6-0.8 5.2-1.6 7.8-2.4 0.5-0.1 1 0.2 1.2 0.7 0.2 0.5-0.2 1.1-0.7 1.2-2.5 0.8-5.1 1.6-7.7 2.4q-0.1 0.1-0.3 0.1zm20.4-5.7c-0.4 0-0.8-0.3-0.9-0.8-0.2-0.5 0.2-1 0.7-1.2 2.7-0.5 5.3-1.1 8-1.6 0.5-0.1 1 0.3 1.1 0.8 0.1 0.6-0.2 1.1-0.8 1.2-2.6 0.5-5.2 1-7.8 1.6q-0.1 0-0.3 0zm71.2-3.2q0 0-0.1 0c-2.6-0.3-5.3-0.6-8-0.9-0.5 0-0.9-0.5-0.9-1.1 0.1-0.5 0.6-0.9 1.1-0.9 2.7 0.3 5.4 0.6 8.1 0.9 0.5 0.1 0.9 0.6 0.8 1.1 0 0.5-0.5 0.9-1 0.9zm-50.3-0.3c-0.5 0-0.9-0.4-1-0.9 0-0.6 0.4-1 0.9-1.1 2.7-0.3 5.4-0.6 8.1-0.8 0.5 0 1 0.4 1.1 0.9 0 0.6-0.4 1.1-1 1.1-2.6 0.2-5.3 0.5-8 0.8q0 0-0.1 0zm29.2-1.3q0 0 0 0c-2.6-0.1-5.3-0.1-8-0.1q0 0 0 0c-0.6 0-1-0.4-1-1 0-0.5 0.4-1 0.9-1 2.8 0 5.5 0 8.2 0.1 0.5 0 0.9 0.4 0.9 1 0 0.5-0.4 1-1 1z"/><path class="n" d="m362.5 300.6q-0.1 0-0.2 0-2-0.4-3.9-0.8c-0.6-0.1-0.9-0.6-0.8-1.2 0.1-0.5 0.6-0.9 1.2-0.7q1.9 0.3 3.9 0.8c0.5 0.1 0.9 0.6 0.8 1.2-0.1 0.4-0.5 0.7-1 0.7z"/><path class="I" d="m492.2 390c-0.4 0-0.7-0.2-0.9-0.5q-1-1.6-2.2-3.3c-0.3-0.4-0.2-1.1 0.3-1.4 0.5-0.3 1.1-0.2 1.4 0.3q1.1 1.7 2.2 3.4c0.3 0.4 0.2 1-0.3 1.3q-0.2 0.2-0.5 0.2z"/><path class="J" d="m324.4 708.9c-0.6 0-1-0.4-1-1 0-0.5 0.4-1 0.9-1 2.7-0.1 5.3-0.2 7.9-0.4 0.6 0 1.1 0.4 1.1 1 0 0.5-0.4 1-0.9 1-2.7 0.2-5.3 0.3-8 0.4q0 0 0 0zm-12.9-0.1q-0.1 0-0.1 0c-2.6-0.1-5.3-0.2-7.9-0.4-0.6-0.1-1-0.5-1-1.1 0.1-0.6 0.6-1 1.1-0.9 2.6 0.2 5.3 0.3 7.9 0.4 0.5 0 1 0.5 1 1.1-0.1 0.5-0.5 0.9-1 0.9zm33.6-1.5c-0.4 0-0.9-0.4-0.9-0.9-0.1-0.5 0.3-1 0.8-1.1 2.6-0.3 5.3-0.7 7.8-1.2 0.6-0.1 1.1 0.3 1.2 0.9 0.1 0.5-0.3 1-0.8 1.1-2.6 0.4-5.3 0.8-7.9 1.2q-0.1 0-0.2 0zm-54.4-0.3q-0.1 0-0.1 0c-2.7-0.4-5.3-0.8-7.9-1.3-0.6-0.1-0.9-0.6-0.8-1.1 0.1-0.6 0.6-0.9 1.1-0.8 2.6 0.4 5.2 0.8 7.8 1.2 0.6 0.1 1 0.6 0.9 1.1-0.1 0.5-0.5 0.9-1 0.9zm75-3.4c-0.5 0-0.9-0.3-1-0.8-0.1-0.5 0.2-1.1 0.7-1.2 2.6-0.6 5.2-1.2 7.7-1.9 0.5-0.2 1.1 0.1 1.2 0.7 0.2 0.5-0.1 1-0.7 1.2-2.5 0.7-5.1 1.4-7.7 2q-0.1 0-0.2 0zm20-5.8c-0.4 0-0.8-0.2-0.9-0.6-0.2-0.6 0.1-1.1 0.6-1.3 2.5-0.9 5-1.8 7.4-2.7 0.5-0.2 1.1 0.1 1.3 0.6 0.2 0.5-0.1 1.1-0.6 1.3-2.4 0.9-5 1.8-7.5 2.7q-0.1 0-0.3 0zm19.4-7.7c-0.4 0-0.8-0.2-0.9-0.5-0.3-0.6-0.1-1.1 0.5-1.4 2.3-1.1 4.7-2.2 7.1-3.4 0.5-0.2 1.1 0 1.3 0.4 0.3 0.5 0.1 1.1-0.4 1.4-2.4 1.2-4.8 2.3-7.2 3.4q-0.2 0.1-0.4 0.1zm18.5-9.6c-0.4 0-0.7-0.2-0.9-0.5-0.3-0.4-0.1-1.1 0.4-1.3 2.2-1.4 4.5-2.8 6.7-4.2 0.5-0.3 1.1-0.1 1.4 0.3 0.3 0.5 0.1 1.1-0.3 1.4-2.3 1.4-4.6 2.9-6.8 4.2q-0.3 0.1-0.5 0.1zm17.4-11.4c-0.3 0-0.6-0.2-0.8-0.4-0.3-0.5-0.3-1.1 0.2-1.4 2.1-1.6 4.2-3.2 6.3-4.8 0.4-0.3 1-0.3 1.4 0.2 0.3 0.4 0.2 1-0.2 1.4-2.1 1.6-4.2 3.2-6.3 4.8q-0.3 0.2-0.6 0.2zm16.1-13.1c-0.2 0-0.5-0.1-0.7-0.4-0.4-0.4-0.3-1 0.1-1.4 1.9-1.7 3.8-3.5 5.7-5.4 0.4-0.4 1.1-0.4 1.4 0 0.4 0.4 0.4 1.1 0 1.5-1.9 1.8-3.8 3.6-5.8 5.4q-0.3 0.3-0.7 0.3zm14.8-14.7q-0.4 0-0.7-0.3c-0.4-0.4-0.4-1-0.1-1.4 1.8-2 3.5-4 5.2-6 0.4-0.4 1-0.4 1.4-0.1 0.5 0.4 0.5 1 0.2 1.4-1.7 2-3.5 4.1-5.3 6-0.2 0.2-0.4 0.4-0.7 0.4zm13.2-16.2q-0.3 0-0.6-0.2c-0.5-0.3-0.6-0.9-0.2-1.4 1.5-2.1 3.1-4.2 4.5-6.4 0.3-0.5 1-0.6 1.4-0.3 0.5 0.3 0.6 1 0.3 1.4-1.5 2.2-3.1 4.4-4.6 6.5-0.2 0.3-0.5 0.4-0.8 0.4zm11.5-17.3q-0.3 0-0.5-0.2c-0.5-0.3-0.7-0.9-0.4-1.3 1.4-2.3 2.7-4.6 3.9-6.9 0.3-0.5 0.9-0.7 1.4-0.4 0.5 0.2 0.6 0.9 0.4 1.3-1.3 2.4-2.6 4.7-4 7-0.1 0.3-0.5 0.5-0.8 0.5zm9.7-18.5q-0.2 0-0.4-0.1c-0.5-0.2-0.7-0.8-0.5-1.3 1.1-2.4 2.2-4.8 3.2-7.2 0.2-0.5 0.8-0.8 1.3-0.6 0.5 0.2 0.7 0.8 0.5 1.3-1 2.5-2.1 5-3.2 7.3-0.2 0.4-0.5 0.6-0.9 0.6zm7.8-19.3q-0.2 0-0.3-0.1c-0.5-0.1-0.8-0.7-0.6-1.2 0.8-2.5 1.6-5 2.4-7.5 0.2-0.6 0.7-0.9 1.3-0.7 0.5 0.1 0.8 0.7 0.6 1.2-0.7 2.6-1.6 5.1-2.4 7.6-0.2 0.4-0.6 0.7-1 0.7zm5.8-20q-0.1 0-0.2 0c-0.5-0.2-0.9-0.7-0.7-1.2 0.6-2.6 1.1-5.2 1.6-7.8 0.2-0.5 0.7-0.9 1.2-0.8 0.6 0.1 0.9 0.7 0.8 1.2-0.5 2.6-1.1 5.2-1.7 7.8-0.1 0.5-0.5 0.8-1 0.8zm3.8-20.5q0 0-0.1 0c-0.6-0.1-0.9-0.6-0.9-1.2 0.4-2.6 0.7-5.2 0.9-7.8 0.1-0.6 0.6-1 1.1-0.9 0.6 0 1 0.5 0.9 1.1-0.2 2.6-0.5 5.3-0.9 7.9-0.1 0.5-0.5 0.9-1 0.9zm1.7-20.8q0 0 0 0c-0.6 0-1-0.5-1-1q0.1-3.1 0.1-6.2 0-0.9 0-1.8c0-0.5 0.4-1 1-1q0 0 0 0c0.5 0 1 0.5 1 1q0 0.9 0 1.8 0 3.1-0.1 6.2c0 0.6-0.4 1-1 1zm-0.4-20.9c-0.5 0-1-0.4-1-0.9-0.2-2.6-0.4-5.3-0.7-7.9-0.1-0.5 0.3-1 0.8-1.1 0.6 0 1.1 0.4 1.2 0.9 0.2 2.6 0.5 5.3 0.7 8 0 0.5-0.4 1-0.9 1q-0.1 0-0.1 0zm-2.6-20.7c-0.4 0-0.9-0.3-1-0.8-0.4-2.6-0.9-5.2-1.5-7.8-0.1-0.5 0.3-1 0.8-1.1 0.5-0.2 1.1 0.2 1.2 0.7 0.5 2.6 1.1 5.3 1.5 7.9 0.1 0.5-0.3 1-0.8 1.1q-0.1 0-0.2 0zm-4.6-20.3c-0.4 0-0.8-0.3-1-0.7-0.7-2.5-1.4-5.1-2.2-7.6-0.2-0.5 0.1-1.1 0.6-1.2 0.5-0.2 1.1 0.1 1.3 0.6 0.8 2.5 1.6 5.1 2.3 7.6 0.1 0.6-0.2 1.1-0.7 1.3q-0.2 0-0.3 0zm-6.6-19.8c-0.4 0-0.8-0.2-1-0.6-0.9-2.4-1.9-4.9-3-7.3-0.2-0.5 0-1.1 0.5-1.3 0.6-0.2 1.1 0 1.4 0.5 1 2.4 2 4.9 3 7.4 0.2 0.5 0 1.1-0.6 1.3q-0.1 0-0.3 0zm-8.6-19c-0.3 0-0.7-0.2-0.9-0.5-1.2-2.3-2.4-4.7-3.7-7-0.3-0.4-0.1-1.1 0.4-1.3 0.4-0.3 1.1-0.1 1.3 0.4 1.3 2.3 2.6 4.6 3.8 7 0.3 0.5 0.1 1.1-0.4 1.3q-0.3 0.1-0.5 0.1z"/><path class="K" d="m270.1 703.1q-0.1 0-0.2-0.1-2-0.5-3.9-1c-0.5-0.1-0.9-0.7-0.7-1.2 0.1-0.5 0.7-0.8 1.2-0.7q1.9 0.5 3.9 1c0.5 0.1 0.8 0.7 0.7 1.2-0.1 0.4-0.5 0.8-1 0.8z"/><path class="c" d="m259.5 648.5c0.9 0.5 2.1 0.3 2.8-0.4l22.2-20.5c13.6 3.6 27.8 5.1 42.3 4.2l17.7 24.4c0.6 0.9 1.7 1.3 2.7 1l34.6-10.5c1-0.3 1.7-1.2 1.8-2.3l1.1-30.1c12.6-7.2 23.6-16.4 32.9-27l29.8 4.8c1 0.2 2.1-0.3 2.6-1.3l17.1-31.8c0.5-1 0.3-2.1-0.4-2.9l-20.5-22.1c3.6-13.6 5.1-27.9 4.2-42.4l24.5-17.6c0.8-0.6 1.2-1.7 0.9-2.7l-10.5-34.7c-0.3-1-1.2-1.7-2.3-1.7l-30.1-1.2c-7.2-12.5-16.4-23.6-27-32.9l4.8-29.8c0.2-1-0.3-2-1.2-2.5l-31.9-17.1c-1-0.5-2.1-0.4-2.9 0.4l-22.1 20.4c-13.6-3.6-27.9-5.1-42.4-4.2l-17.6-24.4c-0.6-0.9-1.7-1.2-2.7-0.9l-34.7 10.4c-1 0.3-1.7 1.3-1.7 2.3l-1.2 30.1c-12.5 7.3-23.6 16.4-32.9 27l-29.8-4.8c-1-0.1-2 0.4-2.5 1.3l-17.1 31.9c-0.5 0.9-0.4 2.1 0.4 2.8l20.4 22.2c-3.6 13.6-5.1 27.8-4.2 42.3l-24.4 17.7c-0.9 0.6-1.2 1.7-0.9 2.7l10.4 34.6c0.4 1 1.3 1.7 2.3 1.8l30.1 1.1c7.3 12.6 16.4 23.6 27 32.9l-4.8 29.8c-0.1 1 0.4 2.1 1.3 2.6z"/><path class="L" d="m318.6 533.5c-11.4 0-22.6-5.8-28.9-16.3-4.6-7.7-6-16.7-3.8-25.4 2.2-8.7 7.6-16.1 15.3-20.7 7.7-4.6 16.7-6 25.5-3.8 8.7 2.2 16 7.6 20.6 15.3 9.6 15.9 4.4 36.6-11.5 46.1-5.4 3.3-11.3 4.8-17.2 4.8zm-0.1-64.2c-5.5 0-10.9 1.5-15.7 4.4-7.1 4.2-12 10.9-14 18.8-2 7.9-0.7 16.2 3.5 23.2 8.7 14.5 27.5 19.2 42 10.5 14.5-8.7 19.2-27.6 10.5-42-4.2-7.1-10.9-12-18.9-14q-3.7-0.9-7.4-0.9zm16.6 58.2z"/><path class="M" d="m326 587.7l-0.3-3c6.1-0.5 12.1-1.6 18-3.4 41.8-12.6 66.9-54.5 59.7-96.4q-0.9-5.3-2.5-10.5c-6.6-21.9-21.4-40-41.6-50.8-20.2-10.8-43.4-13.1-65.3-6.5-21.9 6.6-40 21.4-50.8 41.6-6.8 12.6-10.2 26.5-10.2 40.4 0 8.3 1.2 16.7 3.7 24.9 4.5 14.9 13 28.3 24.4 38.7l-2 2.2c-11.9-10.8-20.6-24.6-25.2-40-2.6-8.5-3.9-17.2-3.9-25.8 0-14.4 3.6-28.7 10.6-41.8 11.2-20.9 29.8-36.2 52.5-43.1 22.7-6.8 46.7-4.4 67.6 6.8 20.9 11.2 36.2 29.8 43.1 52.5 2.6 8.5 3.8 17.2 3.8 25.7 0 38.1-24.8 73.4-63.1 85q-3.9 1.2-8 2 0 0 0 0 0 0-0.1 0-0.3 0.1-0.6 0.2 0 0 0 0 0 0-0.1 0 0 0 0 0-0.1 0-0.2 0-3.6 0.7-7.3 1.1-0.4 0.1-0.8 0.1-0.7 0.1-1.4 0.1z"/><path class="c" d="m431.1 350.2l11.5-12.5c7.7 1.5 15.8 1.7 23.8 0.5l11 12.9c0.3 0.4 1 0.6 1.5 0.4l18.9-7.4c0.5-0.2 0.9-0.8 0.9-1.4l-0.7-16.8c6.7-4.7 12.4-10.3 17.2-16.6l16.8 1.4c0.6 0 1.2-0.3 1.4-0.9l8.1-18.5c0.3-0.6 0.1-1.2-0.3-1.6l-12.4-11.4c1.4-7.8 1.6-15.8 0.4-23.9l12.9-10.9c0.4-0.4 0.6-1 0.4-1.6l-7.4-18.9c-0.2-0.5-0.8-0.9-1.3-0.8l-16.9 0.6c-4.6-6.6-10.2-12.4-16.5-17.1l1.3-16.9c0.1-0.6-0.3-1.1-0.8-1.4l-18.6-8.1c-0.5-0.2-1.2-0.1-1.6 0.3l-11.4 12.5c-7.8-1.5-15.8-1.7-23.9-0.5l-10.9-12.9c-0.4-0.4-1-0.6-1.6-0.4l-18.8 7.4c-0.6 0.2-0.9 0.8-0.9 1.4l0.7 16.9c-6.7 4.6-12.5 10.2-17.2 16.5l-16.8-1.4c-0.6 0-1.2 0.3-1.4 0.9l-8.2 18.5c-0.2 0.6-0.1 1.2 0.4 1.6l12.4 11.4c-1.4 7.8-1.6 15.8-0.5 23.9l-12.8 10.9c-0.5 0.4-0.6 1-0.4 1.6l7.4 18.9c0.2 0.5 0.7 0.9 1.3 0.8l16.9-0.6c4.6 6.6 10.2 12.4 16.5 17.1l-1.3 16.9c-0.1 0.6 0.2 1.1 0.8 1.4l18.6 8.1c0.5 0.2 1.1 0.1 1.5-0.3z"/><path class="N" d="m456 284.4q-1.6 0-3.3-0.3c-5.1-0.8-9.6-3.6-12.6-7.9-6.3-8.7-4.2-20.9 4.5-27.2 8.7-6.2 20.9-4.2 27.2 4.6 3 4.2 4.2 9.4 3.4 14.5-0.9 5.1-3.7 9.6-7.9 12.7-3.4 2.4-7.3 3.6-11.3 3.6zm-0.1-36c-3.3 0-6.7 1-9.6 3.1-7.4 5.3-9.1 15.6-3.8 23 2.6 3.6 6.4 5.9 10.7 6.7 4.4 0.7 8.7-0.3 12.3-2.9 3.6-2.5 6-6.3 6.7-10.7 0.7-4.3-0.3-8.7-2.8-12.3-3.3-4.5-8.3-6.9-13.5-6.9z"/><path class="n" d="m394.9 355.8q-0.3 0-0.5-0.2-1.7-1.1-3.3-2.3c-0.5-0.3-0.6-0.9-0.2-1.4 0.3-0.4 0.9-0.5 1.4-0.2q1.6 1.2 3.2 2.3c0.4 0.3 0.6 0.9 0.3 1.4-0.2 0.3-0.5 0.4-0.9 0.4z"/><path class="n" d="m381.9 345.4q-0.4 0-0.7-0.3c-1.9-1.8-3.8-3.7-5.6-5.6-0.4-0.4-0.3-1 0.1-1.4 0.4-0.4 1-0.4 1.4 0.1 1.7 1.9 3.6 3.7 5.4 5.5 0.5 0.3 0.5 1 0.1 1.4-0.2 0.2-0.5 0.3-0.7 0.3zm-13.7-15.4c-0.3 0-0.6-0.1-0.8-0.4q-0.3-0.5-0.7-1-1.9-2.7-3.7-5.5c-0.3-0.5-0.2-1.1 0.3-1.4 0.5-0.3 1.1-0.2 1.4 0.3 1.1 1.8 2.4 3.7 3.6 5.4q0.4 0.5 0.7 1c0.4 0.5 0.3 1.1-0.2 1.4q-0.2 0.2-0.6 0.2zm-10.5-17.6c-0.4 0-0.7-0.2-0.9-0.6-1.1-2.4-2.2-4.8-3.1-7.3-0.2-0.5 0-1.1 0.6-1.3 0.5-0.2 1.1 0.1 1.3 0.6 0.9 2.4 1.9 4.8 3 7.1 0.3 0.5 0 1.1-0.5 1.4q-0.2 0.1-0.4 0.1zm-7-19.3c-0.4 0-0.8-0.3-1-0.8-0.6-2.5-1.2-5.1-1.6-7.7-0.1-0.6 0.2-1.1 0.8-1.2 0.5-0.1 1 0.3 1.1 0.8 0.5 2.6 1 5.1 1.7 7.6 0.1 0.5-0.2 1.1-0.7 1.2q-0.2 0.1-0.3 0.1zm-3.2-20.3c-0.5 0-1-0.4-1-1-0.1-2.2-0.2-4.5-0.2-6.8q0-0.5 0-1.1c0-0.5 0.4-1 1-1q0 0 0 0c0.6 0 1 0.5 1 1q0 0.6 0 1.1c0 2.2 0.1 4.5 0.2 6.7 0 0.6-0.4 1-0.9 1.1q-0.1 0-0.1 0zm0.7-20.6q-0.1 0-0.2 0c-0.5 0-0.9-0.5-0.8-1.1 0.3-2.6 0.7-5.2 1.2-7.8 0.1-0.5 0.7-0.9 1.2-0.8 0.6 0.1 0.9 0.7 0.8 1.2-0.5 2.5-0.9 5.1-1.3 7.7 0 0.5-0.5 0.8-0.9 0.8zm4.4-20q-0.1 0-0.3-0.1c-0.5-0.1-0.8-0.7-0.6-1.2 0.8-2.5 1.7-5 2.7-7.4 0.2-0.5 0.8-0.8 1.3-0.6 0.5 0.2 0.8 0.8 0.6 1.3-1 2.4-1.9 4.9-2.7 7.3-0.1 0.4-0.5 0.7-1 0.7zm8.2-18.8q-0.2 0-0.5-0.2c-0.5-0.2-0.6-0.8-0.4-1.3 1.3-2.3 2.7-4.6 4.1-6.8 0.3-0.5 0.9-0.6 1.4-0.3 0.4 0.3 0.6 0.9 0.3 1.4-1.4 2.1-2.8 4.4-4 6.6-0.2 0.4-0.5 0.6-0.9 0.6zm11.6-17q-0.4 0-0.7-0.2c-0.4-0.4-0.4-1-0.1-1.4 1.7-2.1 3.5-4 5.3-5.9 0.4-0.4 1-0.4 1.4-0.1 0.4 0.4 0.4 1.1 0 1.5-1.8 1.8-3.5 3.8-5.1 5.7-0.2 0.3-0.5 0.4-0.8 0.4zm14.6-14.5c-0.3 0-0.6-0.1-0.8-0.3-0.4-0.5-0.3-1.1 0.1-1.4 1.9-1.6 3.9-3.1 5.9-4.5l0.4-0.3c0.5-0.3 1.1-0.2 1.4 0.2 0.3 0.5 0.2 1.1-0.2 1.4l-0.4 0.3c-2 1.4-3.9 2.9-5.8 4.4q-0.3 0.2-0.6 0.2zm17-11.5c-0.4 0-0.7-0.1-0.9-0.5-0.3-0.5-0.1-1.1 0.4-1.3 2.3-1.3 4.7-2.5 7.1-3.6 0.5-0.2 1.1 0 1.3 0.5 0.2 0.5 0 1.1-0.5 1.4-2.3 1-4.7 2.2-6.9 3.4q-0.3 0.1-0.5 0.1zm18.9-8c-0.5 0-0.8-0.3-1-0.7-0.1-0.6 0.1-1.1 0.7-1.3 2.5-0.8 5-1.5 7.6-2.1 0.5-0.2 1.1 0.2 1.2 0.7 0.1 0.5-0.2 1.1-0.7 1.2-2.5 0.6-5.1 1.3-7.5 2.1q-0.2 0.1-0.3 0.1z"/><path class="n" d="m443 158c-0.5 0-0.9-0.4-1-0.9-0.1-0.5 0.3-1 0.9-1.1q2-0.2 4-0.4c0.5 0 1 0.4 1.1 0.9 0 0.6-0.4 1-0.9 1.1q-2 0.1-4 0.4-0.1 0-0.1 0z"/><path class="n" d="m527.4 184q-0.4 0-0.7-0.2-1.5-1.4-3-2.6c-0.4-0.3-0.5-1-0.2-1.4 0.4-0.4 1-0.5 1.4-0.2q1.6 1.3 3.1 2.6c0.4 0.4 0.5 1 0.1 1.5-0.2 0.2-0.4 0.3-0.7 0.3z"/><path class="n" d="m476.3 372.6c-0.4 0-0.9-0.3-1-0.8-0.1-0.5 0.3-1.1 0.8-1.2 2.5-0.4 5-1 7.5-1.7 0.5-0.1 1.1 0.2 1.2 0.7 0.2 0.6-0.2 1.1-0.7 1.3-2.5 0.6-5.1 1.2-7.6 1.7q-0.1 0-0.2 0zm19.4-5.6c-0.4 0-0.7-0.2-0.9-0.6-0.2-0.6 0.1-1.1 0.6-1.3 2.3-1 4.7-2 7-3.1 0.5-0.2 1.1 0 1.3 0.5 0.2 0.5 0 1.1-0.5 1.3-2.3 1.1-4.7 2.2-7.1 3.1q-0.2 0.1-0.4 0.1zm18.1-9.2c-0.4 0-0.7-0.1-0.9-0.4-0.3-0.5-0.1-1.1 0.3-1.4q2.7-1.7 5.3-3.5 0.5-0.4 1.1-0.8c0.4-0.3 1-0.2 1.4 0.2 0.3 0.5 0.2 1.1-0.3 1.4q-0.5 0.4-1 0.8-2.7 1.9-5.4 3.6-0.3 0.1-0.5 0.1zm16-12.2c-0.3 0-0.5-0.2-0.7-0.4-0.4-0.4-0.4-1 0-1.4 1.9-1.7 3.7-3.5 5.5-5.4 0.3-0.4 1-0.4 1.4 0 0.4 0.4 0.4 1 0 1.4-1.8 1.9-3.6 3.7-5.5 5.5q-0.3 0.3-0.7 0.3zm13.5-15.1q-0.3 0-0.6-0.2c-0.4-0.3-0.5-0.9-0.2-1.4 1.5-2 3-4.2 4.3-6.3 0.3-0.4 0.9-0.6 1.4-0.3 0.5 0.3 0.6 0.9 0.3 1.4-1.4 2.2-2.9 4.3-4.4 6.4-0.2 0.3-0.5 0.4-0.8 0.4zm10.4-17.3q-0.2 0-0.4-0.1c-0.5-0.2-0.7-0.8-0.5-1.3 1.1-2.3 2.2-4.7 3.1-7 0.2-0.5 0.8-0.8 1.3-0.6 0.5 0.2 0.8 0.8 0.6 1.3-1 2.4-2 4.8-3.2 7.1-0.1 0.4-0.5 0.6-0.9 0.6zm7.1-18.9q-0.1 0-0.3-0.1c-0.5-0.1-0.8-0.7-0.7-1.2 0.7-2.4 1.3-4.9 1.8-7.4 0.1-0.6 0.6-0.9 1.1-0.8 0.6 0.1 0.9 0.6 0.8 1.2-0.5 2.5-1.1 5-1.7 7.5-0.2 0.5-0.6 0.8-1 0.8zm3.4-19.9q0 0 0 0c-0.6-0.1-1-0.6-1-1.1 0.2-2.5 0.4-5.1 0.4-7.7 0-0.5 0.4-0.9 1-0.9q0 0 0 0c0.5 0 1 0.4 1 1 0 2.5-0.2 5.2-0.4 7.7 0 0.6-0.4 1-1 1zm-0.2-20.3c-0.5 0-1-0.3-1-0.8-0.3-2.6-0.7-5.1-1.1-7.6-0.1-0.6 0.2-1.1 0.8-1.2 0.5-0.1 1 0.3 1.1 0.8 0.5 2.6 0.9 5.2 1.2 7.7 0 0.6-0.4 1.1-0.9 1.1q-0.1 0-0.1 0zm-4.1-19.8c-0.4 0-0.8-0.2-0.9-0.7-0.8-2.4-1.6-4.8-2.5-7.2-0.2-0.5 0.1-1.1 0.6-1.3 0.5-0.2 1.1 0.1 1.3 0.6 0.9 2.4 1.7 4.9 2.5 7.3 0.1 0.6-0.2 1.1-0.7 1.3q-0.1 0-0.3 0zm-7.6-18.7c-0.4 0-0.7-0.2-0.9-0.5-1.2-2.2-2.5-4.5-3.8-6.6-0.3-0.5-0.1-1.1 0.3-1.4 0.5-0.3 1.1-0.2 1.4 0.3 1.4 2.2 2.7 4.5 3.9 6.8 0.2 0.5 0 1.1-0.5 1.3q-0.2 0.1-0.4 0.1zm-11-16.9c-0.3 0-0.6-0.2-0.8-0.4-1.6-2-3.2-4-4.9-5.9-0.4-0.4-0.4-1 0-1.4 0.4-0.3 1.1-0.3 1.5 0.1 1.7 1.9 3.4 3.9 5 5.9 0.3 0.5 0.2 1.1-0.2 1.4q-0.3 0.3-0.6 0.3z"/><path class="n" d="m459.9 374.5c-0.6 0-1-0.5-1-1 0-0.6 0.4-1 0.9-1q2-0.1 4-0.3c0.5 0 1 0.4 1.1 1 0 0.5-0.4 1-1 1q-2 0.2-4 0.3 0 0 0 0z"/><path class="O" d="m464.1 314.3l-0.5-3c3.3-0.5 6.6-1.4 9.7-2.7q2.1-0.8 4-1.7 0.1-0.1 0.1-0.1c9.2-4.6 16.5-11.9 21.1-21.2q0.5-1 1-2.1c2.7-6.1 4-12.5 4-19 0-5.8-1.1-11.7-3.3-17.3-9.5-24.3-37.1-36.4-61.4-26.8-18.7 7.3-30.1 25.2-30.1 44.1 0 5.8 1 11.6 3.2 17.3 3.2 8 8.4 15 15.2 20.2l-1.9 2.4c-7.2-5.6-12.7-13-16.1-21.5-2.3-6.1-3.4-12.3-3.4-18.4 0-20.1 12.1-39.2 32-46.9 25.9-10.2 55.2 2.6 65.3 28.5 2.3 6 3.5 12.2 3.5 18.4 0 6.9-1.4 13.7-4.3 20.2-5.4 12.3-15.2 21.8-27.8 26.7q-2.9 1.2-6 2 0 0 0 0-0.1 0-0.1 0 0 0 0 0-0.1 0-0.1 0-0.1 0-0.1 0 0 0 0 0 0 0 0 0.1-0.1 0-0.2 0-0.1 0-0.1 0-0.1 0-0.1 0 0 0 0 0-0.1 0.1-0.1 0.1-0.1 0-0.1 0-0.1 0-0.2 0 0 0-0.1 0.1 0 0 0 0 0 0-0.1 0 0 0-0.1 0-0.1 0-0.3 0.1-0.2 0-0.4 0-0.1 0.1-0.2 0.1-1 0.2-2 0.4z"/><path class="n" d="m1806 833.3c-0.3 0-0.6-0.1-0.8-0.3q-1.2-1.6-2.4-3.2c-0.4-0.5-0.3-1.1 0.2-1.4 0.4-0.4 1-0.3 1.4 0.2q1.1 1.6 2.4 3.1c0.3 0.4 0.3 1.1-0.2 1.4q-0.3 0.2-0.6 0.2z"/><path class="n" d="m1796.7 819.1c-0.4 0-0.8-0.2-0.9-0.6-1.3-2.4-2.4-4.9-3.5-7.4-0.2-0.5 0.1-1.1 0.6-1.3 0.5-0.2 1.1 0.1 1.3 0.6 1 2.4 2.1 4.9 3.3 7.2 0.3 0.5 0.1 1.1-0.4 1.3q-0.2 0.2-0.4 0.2zm-7.4-19.8c-0.5 0-0.9-0.3-1-0.8-0.6-2.6-1.2-5.3-1.5-8-0.1-0.5 0.3-1 0.8-1.1 0.6-0.1 1.1 0.3 1.1 0.8 0.4 2.6 0.9 5.3 1.5 7.8 0.2 0.6-0.2 1.1-0.7 1.3q-0.1 0-0.2 0zm-2.4-21q0 0 0 0c-0.6 0-1-0.5-1-1 0-2.7 0.2-5.5 0.5-8.1 0-0.6 0.5-1 1.1-0.9 0.5 0 0.9 0.5 0.9 1.1-0.3 2.6-0.5 5.3-0.5 7.9 0 0.6-0.5 1-1 1zm2.9-20.9q-0.2 0-0.3 0c-0.5-0.2-0.9-0.7-0.7-1.3 0.7-2.6 1.5-5.2 2.4-7.7 0.2-0.6 0.8-0.8 1.3-0.6 0.5 0.2 0.8 0.7 0.6 1.3-0.9 2.4-1.7 5-2.4 7.5-0.1 0.5-0.5 0.8-0.9 0.8zm7.8-19.6q-0.2 0-0.5-0.1c-0.5-0.3-0.6-0.9-0.4-1.4 1.3-2.3 2.8-4.7 4.3-6.9 0.3-0.5 0.9-0.6 1.4-0.3 0.4 0.3 0.6 0.9 0.3 1.4-1.5 2.2-2.9 4.5-4.2 6.8-0.2 0.3-0.5 0.5-0.9 0.5zm12.4-17.1q-0.4 0-0.7-0.3c-0.4-0.3-0.4-1 0-1.4 1.8-1.9 3.8-3.9 5.8-5.7 0.4-0.3 1-0.3 1.4 0.1 0.4 0.4 0.3 1.1-0.1 1.4-2 1.8-3.9 3.7-5.7 5.6-0.2 0.2-0.4 0.3-0.7 0.3zm16.2-13.5c-0.4 0-0.7-0.2-0.9-0.5-0.3-0.5-0.1-1.1 0.3-1.4 2.3-1.4 4.7-2.8 7.1-4.1 0.5-0.2 1.1 0 1.3 0.5 0.3 0.5 0.1 1.1-0.4 1.3-2.4 1.2-4.7 2.6-6.9 4q-0.3 0.2-0.5 0.2zm19-9.2c-0.5 0-0.8-0.3-1-0.7-0.2-0.5 0.1-1.1 0.6-1.3h0.2c2.5-0.9 5.1-1.6 7.7-2.2 0.5-0.1 1.1 0.2 1.2 0.7 0.1 0.6-0.2 1.1-0.8 1.2-2.5 0.6-5 1.4-7.4 2.2h-0.2q-0.2 0.1-0.3 0.1zm20.6-4.3c-0.5 0-0.9-0.4-1-0.9 0-0.6 0.4-1.1 0.9-1.1 2.7-0.2 5.5-0.3 8.2-0.3 0.5 0 1 0.5 1 1 0 0.6-0.5 1-1 1-2.7 0-5.4 0.1-8 0.3q0 0-0.1 0z"/><path class="n" d="m1890.9 695.3q-0.1 0-0.2 0-1.9-0.4-3.9-0.7c-0.6-0.1-0.9-0.6-0.8-1.2 0.1-0.5 0.6-0.9 1.1-0.8q2 0.3 4 0.8c0.5 0.1 0.9 0.6 0.8 1.2-0.1 0.4-0.6 0.7-1 0.7z"/><path class="n" d="m1946.1 734.5c-0.4 0-0.7-0.2-0.9-0.5q-1-1.7-2.1-3.3c-0.3-0.5-0.2-1.1 0.3-1.4 0.4-0.3 1-0.2 1.4 0.3q1.1 1.7 2.1 3.4c0.3 0.4 0.2 1.1-0.3 1.3q-0.2 0.2-0.5 0.2z"/><path class="n" d="m1872.9 865.2c-1.8 0-3.6 0-5.4-0.1-0.6-0.1-1-0.6-1-1.1 0.1-0.6 0.5-1 1.1-0.9 1.8 0.1 3.6 0.1 5.3 0.1q1.3 0 2.5 0c0.6-0.1 1 0.4 1.1 0.9 0 0.6-0.5 1.1-1 1.1q-1.3 0-2.6 0zm15.4-1.4c-0.5 0-0.9-0.3-1-0.8-0.1-0.6 0.2-1.1 0.8-1.2 2.5-0.4 5.1-1 7.6-1.7 0.5-0.2 1.1 0.1 1.2 0.6 0.2 0.6-0.1 1.1-0.6 1.3-2.6 0.7-5.2 1.3-7.9 1.8q0 0-0.1 0zm19.8-6.2c-0.4 0-0.8-0.2-0.9-0.6-0.3-0.5 0-1.1 0.5-1.3 2.3-1.1 4.7-2.2 7-3.5 0.4-0.3 1.1-0.1 1.3 0.4 0.3 0.4 0.1 1-0.3 1.3-2.4 1.3-4.8 2.5-7.2 3.6q-0.2 0.1-0.4 0.1zm17.8-10.7c-0.3 0-0.6-0.2-0.8-0.4-0.4-0.4-0.3-1.1 0.1-1.4 2.1-1.6 4.1-3.3 6-5.1 0.4-0.4 1-0.4 1.4 0 0.4 0.4 0.3 1.1-0.1 1.4-1.9 1.9-3.9 3.6-6 5.3q-0.3 0.2-0.6 0.2zm14.6-14.7q-0.3 0-0.6-0.2c-0.4-0.4-0.5-1-0.2-1.4 1.6-2.1 3.1-4.2 4.5-6.4 0.3-0.5 1-0.6 1.4-0.3 0.5 0.3 0.6 0.9 0.3 1.3-1.4 2.3-3 4.5-4.6 6.6-0.2 0.2-0.5 0.4-0.8 0.4zm10.7-17.8q-0.2 0-0.4-0.1c-0.5-0.2-0.7-0.8-0.5-1.3 1.1-2.4 2-4.9 2.9-7.3 0.1-0.5 0.7-0.8 1.2-0.6 0.6 0.1 0.8 0.7 0.7 1.2-0.9 2.5-1.9 5.1-3 7.5-0.2 0.4-0.5 0.6-0.9 0.6zm6.1-19.9q0 0-0.1 0c-0.6-0.1-0.9-0.6-0.8-1.1 0.4-2.6 0.8-5.2 1-7.8 0-0.6 0.5-1 1.1-0.9 0.5 0 0.9 0.5 0.9 1.1-0.2 2.6-0.6 5.3-1.1 7.9-0.1 0.5-0.5 0.8-1 0.8zm1.2-20.7c-0.5 0-0.9-0.4-1-0.9-0.1-2.6-0.4-5.2-0.8-7.8-0.1-0.6 0.2-1.1 0.8-1.2 0.5 0 1.1 0.3 1.1 0.9 0.5 2.6 0.8 5.3 0.9 7.9 0.1 0.6-0.4 1.1-0.9 1.1q0 0-0.1 0zm-3.8-20.4c-0.4 0-0.8-0.3-1-0.7q-0.2-0.8-0.5-1.5-1-3-2.2-5.9c-0.2-0.5 0-1.1 0.6-1.3 0.5-0.2 1.1 0.1 1.3 0.6q1.2 2.9 2.2 5.9 0.3 0.8 0.5 1.6c0.2 0.5-0.1 1.1-0.6 1.3q-0.2 0-0.3 0z"/><path class="n" d="m1854.7 863.3q-0.1 0-0.2 0-1.9-0.5-3.9-1c-0.5-0.1-0.9-0.7-0.7-1.2 0.1-0.5 0.7-0.9 1.2-0.7q1.9 0.5 3.8 0.9c0.6 0.1 0.9 0.7 0.8 1.2-0.1 0.5-0.5 0.8-1 0.8z"/><path class="c" d="m1848 839.5c0.4 0.2 0.9 0.1 1.2-0.2l9.2-8.5c5.7 1.5 11.6 2.1 17.6 1.7l7.4 10.2c0.2 0.4 0.7 0.5 1.1 0.4l14.4-4.4c0.4-0.1 0.7-0.5 0.8-0.9l0.4-12.5c5.3-3.1 9.9-6.9 13.7-11.3l12.4 2c0.4 0.1 0.9-0.1 1.1-0.5l7.1-13.3c0.2-0.4 0.1-0.8-0.2-1.2l-8.5-9.2c1.5-5.6 2.2-11.6 1.8-17.6l10.1-7.3c0.4-0.3 0.5-0.7 0.4-1.2l-4.3-14.4c-0.2-0.4-0.5-0.7-1-0.7l-12.5-0.5c-3-5.2-6.8-9.8-11.2-13.7l2-12.4c0-0.4-0.2-0.8-0.6-1l-13.2-7.1c-0.4-0.2-0.9-0.2-1.2 0.1l-9.2 8.5c-5.7-1.5-11.6-2.1-17.7-1.7l-7.3-10.2c-0.3-0.3-0.7-0.5-1.1-0.4l-14.4 4.4c-0.5 0.1-0.8 0.5-0.8 0.9l-0.5 12.6c-5.2 3-9.8 6.8-13.6 11.2l-12.4-2c-0.5-0.1-0.9 0.1-1.1 0.5l-7.1 13.3c-0.2 0.4-0.2 0.9 0.1 1.2l8.6 9.2c-1.5 5.7-2.2 11.6-1.8 17.6l-10.2 7.4c-0.3 0.2-0.5 0.7-0.3 1.1l4.3 14.4c0.1 0.4 0.5 0.7 1 0.7l12.5 0.5c3 5.2 6.8 9.8 11.2 13.7l-2 12.4c0 0.4 0.2 0.9 0.6 1.1z"/><path class="P" d="m1872.6 792.5q-1.8 0-3.6-0.4c-3.9-1-7.1-3.4-9.1-6.8-4.3-7-2-16.2 5-20.4 7.1-4.2 16.2-1.9 20.4 5.1 2.1 3.4 2.7 7.4 1.7 11.3-0.9 3.8-3.4 7.1-6.8 9.1-2.3 1.4-4.9 2.1-7.6 2.1zm0-26.7c-2.1 0-4.2 0.6-6.1 1.7-5.6 3.4-7.4 10.7-4.1 16.3 1.7 2.7 4.2 4.6 7.3 5.4 3.1 0.7 6.3 0.3 9-1.4 2.7-1.6 4.6-4.2 5.4-7.3 0.8-3 0.3-6.2-1.3-8.9-2.3-3.7-6.2-5.8-10.2-5.8z"/><path class="Q" d="m1875.8 815.1l-0.3-3c2.5-0.2 4.9-0.7 7.3-1.4 18.4-5.6 28.8-25 23.2-43.4-5.5-18.4-25-28.8-43.4-23.2-15 4.5-24.7 18.3-24.7 33.3 0 3.3 0.5 6.7 1.5 10.1 1.8 6 5.2 11.4 9.9 15.6l-2 2.3c-5.1-4.6-8.8-10.5-10.8-17.1-1.1-3.6-1.6-7.3-1.6-10.9 0-16.2 10.6-31.3 26.9-36.2 19.9-6.1 41.1 5.3 47.1 25.2 1.1 3.7 1.6 7.3 1.6 11 0 16.2-10.5 31.2-26.8 36.2-2.6 0.7-5.3 1.3-7.9 1.5z"/><path class="c" d="m1919.4 715.4l4.8-5.2c3.2 0.6 6.6 0.7 9.9 0.2l4.6 5.3c0.1 0.2 0.4 0.3 0.6 0.2l7.9-3.1c0.2-0.1 0.4-0.3 0.3-0.5l-0.2-7.1c2.7-1.9 5.1-4.2 7.1-6.8l7 0.5c0.3 0.1 0.5-0.1 0.6-0.3l3.4-7.7c0.1-0.3 0-0.5-0.2-0.7l-5.1-4.8c0.6-3.2 0.6-6.5 0.2-9.9l5.3-4.5c0.2-0.2 0.3-0.5 0.2-0.7l-3.1-7.8c-0.1-0.3-0.3-0.4-0.6-0.4l-7 0.3c-1.9-2.8-4.2-5.2-6.9-7.2l0.6-7c0-0.2-0.1-0.4-0.3-0.5l-7.8-3.4c-0.2-0.1-0.5-0.1-0.6 0.1l-4.8 5.2c-3.2-0.6-6.6-0.7-9.9-0.2l-4.6-5.4c-0.1-0.1-0.4-0.2-0.6-0.1l-7.9 3c-0.2 0.1-0.3 0.4-0.3 0.6l0.3 7c-2.8 1.9-5.2 4.3-7.2 6.9l-7-0.6c-0.2 0-0.5 0.2-0.6 0.4l-3.3 7.7c-0.1 0.2-0.1 0.5 0.1 0.7l5.2 4.7c-0.6 3.3-0.7 6.6-0.2 9.9l-5.4 4.6c-0.2 0.2-0.2 0.4-0.2 0.7l3.1 7.8c0.1 0.2 0.3 0.4 0.6 0.4l7-0.3c1.9 2.8 4.3 5.2 6.9 7.1l-0.6 7c0 0.3 0.1 0.5 0.4 0.6l7.7 3.4c0.2 0.1 0.5 0 0.6-0.1z"/><path class="R" d="m1929.8 688.9c-2.8 0-5.6-1.3-7.4-3.8-1.3-1.9-1.9-4.3-1.5-6.7 0.4-2.4 1.7-4.4 3.6-5.8 4.1-2.9 9.7-2 12.6 2.1 1.4 1.9 1.9 4.3 1.5 6.7-0.4 2.3-1.7 4.4-3.6 5.8-1.6 1.1-3.4 1.7-5.2 1.7zm0-15c-1.3 0-2.5 0.4-3.5 1.1-1.3 0.9-2.2 2.3-2.4 3.9-0.3 1.6 0.1 3.2 1 4.5 1.9 2.7 5.7 3.3 8.3 1.4 1.3-1 2.2-2.4 2.5-3.9 0.2-1.6-0.1-3.2-1.1-4.5-1.1-1.6-3-2.5-4.8-2.5z"/><path class="n" d="m1904.4 718.3q-0.3 0-0.6-0.2-1.7-1.1-3.3-2.4c-0.4-0.4-0.4-1-0.1-1.4 0.3-0.5 1-0.5 1.4-0.2q1.5 1.3 3.1 2.4c0.5 0.3 0.6 0.9 0.3 1.4-0.2 0.2-0.5 0.4-0.8 0.4z"/><path class="n" d="m1892 705.6c-0.4 0-0.7-0.1-0.9-0.4-1.6-2.4-2.9-5-4.1-7.7-0.2-0.5 0.1-1.1 0.6-1.3 0.5-0.2 1.1 0 1.3 0.5 1.1 2.6 2.4 5.1 3.9 7.4 0.3 0.5 0.2 1.1-0.3 1.4q-0.3 0.1-0.5 0.1zm-7.3-20.9c-0.5 0-0.9-0.4-1-0.9q-0.1-1.9-0.1-3.9 0-2.4 0.2-4.8c0.1-0.5 0.6-0.9 1.1-0.9 0.6 0.1 1 0.6 0.9 1.1q-0.2 2.3-0.2 4.6 0 1.9 0.1 3.7c0.1 0.6-0.3 1.1-0.9 1.1q0 0-0.1 0zm3.6-21.8q-0.2 0-0.4-0.1c-0.5-0.2-0.7-0.8-0.5-1.3 1.1-2.7 2.5-5.2 4.2-7.6 0.3-0.5 0.9-0.6 1.4-0.3 0.4 0.3 0.5 0.9 0.2 1.4-1.5 2.3-2.9 4.7-4 7.3-0.2 0.4-0.5 0.6-0.9 0.6zm13.5-17.5c-0.3 0-0.6-0.2-0.8-0.4-0.3-0.5-0.2-1.1 0.2-1.4q0.8-0.7 1.7-1.3 2.7-1.9 5.6-3.4c0.5-0.3 1.1-0.1 1.3 0.4 0.3 0.5 0.1 1.1-0.4 1.3q-2.8 1.5-5.3 3.3-0.9 0.6-1.7 1.2-0.3 0.3-0.6 0.3z"/><path class="n" d="m1922.1 636.3c-0.5 0-0.9-0.3-1-0.8-0.1-0.5 0.3-1.1 0.8-1.2q2-0.3 4.1-0.5c0.5 0 1 0.4 1 0.9 0.1 0.6-0.3 1.1-0.9 1.1q-1.9 0.2-3.9 0.5 0 0-0.1 0z"/><path class="n" d="m1961.2 648.4q-0.4 0-0.7-0.3-1.4-1.3-2.9-2.6c-0.4-0.3-0.5-1-0.2-1.4 0.4-0.4 1-0.5 1.4-0.1q1.6 1.3 3.1 2.7c0.4 0.4 0.4 1 0 1.4-0.2 0.2-0.4 0.3-0.7 0.3z"/><path class="n" d="m1948.5 722c-0.4 0-0.8-0.2-0.9-0.6-0.3-0.5 0-1 0.5-1.3 2.4-1.1 4.8-2.5 7.1-4 0.4-0.4 1-0.3 1.3 0.2 0.4 0.5 0.3 1.1-0.2 1.4-2.3 1.6-4.8 3.1-7.4 4.2q-0.2 0.1-0.4 0.1zm17-13.5q-0.3 0-0.6-0.2c-0.4-0.3-0.5-1-0.1-1.4 1.6-2.1 3.1-4.5 4.3-6.9 0.3-0.5 0.9-0.7 1.4-0.4 0.5 0.2 0.7 0.8 0.4 1.3-1.3 2.5-2.8 5-4.6 7.2-0.2 0.3-0.5 0.4-0.8 0.4zm8.8-19.9q-0.1 0-0.2 0c-0.5-0.1-0.9-0.6-0.8-1.2 0.4-2.5 0.7-5 0.7-7.6v-0.5c0-0.6 0.4-1 0.9-1.1q0.1 0 0.1 0c0.5 0 1 0.5 1 1v0.6c0 2.7-0.3 5.3-0.7 8-0.1 0.4-0.5 0.8-1 0.8zm-1.6-21.7c-0.4 0-0.8-0.3-0.9-0.7-0.8-2.6-1.9-5.1-3.3-7.5-0.2-0.5 0-1.1 0.4-1.4 0.5-0.3 1.1-0.1 1.4 0.4 1.4 2.5 2.5 5.1 3.4 7.9 0.2 0.5-0.1 1-0.6 1.2q-0.2 0.1-0.4 0.1z"/><path class="n" d="m1931.4 726.1c-0.5 0-1-0.5-1-1 0-0.6 0.4-1 1-1q1.9-0.1 3.9-0.4c0.5 0 1 0.4 1.1 0.9 0 0.6-0.3 1.1-0.9 1.1q-2 0.3-4.1 0.4 0 0 0 0z"/><path class="S" d="m1933.3 701.3l-0.5-3q2-0.3 3.9-1c4.7-1.9 8.4-5.4 10.4-10 1-2.5 1.6-5 1.6-7.6 0-2.3-0.5-4.6-1.3-6.8-1.9-4.7-5.4-8.4-10-10.4-4.6-2.1-9.8-2.2-14.4-0.3-4.7 1.8-8.4 5.4-10.4 10-1.1 2.4-1.6 4.9-1.6 7.5 0 2.3 0.4 4.7 1.3 6.9 1.2 3.2 3.3 5.9 6 8l-1.9 2.4c-3.1-2.4-5.5-5.6-6.9-9.3-1-2.6-1.5-5.3-1.5-8 0-3 0.6-5.9 1.8-8.7 2.3-5.4 6.6-9.5 12.1-11.6 11.2-4.4 23.9 1.1 28.3 12.4 1 2.5 1.5 5.2 1.5 7.9 0 3-0.6 6-1.9 8.8-2.3 5.3-6.6 9.4-12 11.6q-2.1 0.8-4.2 1.1-0.1 0-0.1 0.1-0.1 0-0.2 0z"/><path class="T" d="m252.4 935c-21.2-5.6-63-14.8-91.5-9.7l-2.3 74.5 97.3 11.1 2.9-6.2c4.2-8.8 6.3-18.4 6.2-28.1-0.3-16.1-2.5-39-12.6-41.6z"/><path class="U" d="m240.5 1300.4c14.1 5.1 28 9 37.4 11.4-6.5-8.6-21.9-27.6-36.5-37.9l-10.9-4.1c0 0-5.5 4.6-10.9 17.3 1.1 2.8 5.5 7.7 20.9 13.3z"/><path class="V" d="m278 1311.9q-0.1-0.1-0.1-0.1c-9.4-2.4-23.3-6.3-37.4-11.4-15.4-5.6-19.8-10.5-20.9-13.3q-0.4 0.8-0.8 1.8c-1.1 2.8 0.2 6 3.1 7.1 11.4 4.5 39.8 15.5 54 19.1 1.8 0.5 3.3-1.7 2.1-3.2z"/><path class="W" d="m233 1254.2c1.5 0.5-3.1 7.8-3.2 16.4-0.1 2 0.8 3.8 2.7 4.4 1.2 0.4 2.6 0.8 4.1 1.1 2.2 0.5 4.5-0.6 5.4-2.7l8.2-19.9z"/><path class="X" d="m79.2 1383.1c14.9 0.8 29.4 0.4 39.1 0-8.8-6.4-29-20.1-45.9-25.6l-8.1-0.5c-2.3-0.2-4.4 1.1-5.3 3.3-1.3 3.1-2.9 8.4-3.7 16.1 1.9 2.5 7.5 5.8 23.9 6.7z"/><path class="Y" d="m118.4 1383.1q-0.1 0-0.1 0c-9.7 0.4-24.2 0.8-39.1 0-16.4-0.9-22-4.2-23.9-6.7q-0.1 1-0.2 2c-0.3 3 1.9 5.6 5 5.9 12.2 1 42.6 3.2 57.2 2.5 1.9 0 2.7-2.5 1.1-3.7z"/><path class="Z" d="m65.5 1341.2c1.6 0-2.8 9.7-2.8 18.2 0 2 1.9 3.4 3.8 3.4 1.3 0 2.8 0 4.3-0.1 2.3-0.2 4.1-1.9 4.3-4.2l8.1-19.5z"/><path class="a0" d="m61.6 1347.3c6.2-25.1 49.2-198.5 78.4-236.7l40 5.9 4.8-5.9c0 0 98 28.7 109.2 39.5 9.2 8.8-43.5 115.8-43.5 115.8 0 0-10.9 4.2-21.2-4.7l16.6-74.7c0.7-3.1-1.3-6.1-4.3-6.8l-74.4-15.8c-2.9-0.7-5.8 0.8-7.1 3.5-15.7 33.4-69.7 149.5-79.1 185.4-0.3 1-1.2 1.7-2.2 1.6-3.1-0.1-9.6-0.7-14.7-2.6-1.9-0.7-2.9-2.6-2.5-4.5z"/><path class="a1" d="m164.4 1161.3q-0.3 0-0.6-0.3c-0.4-0.4-0.4-1 0-1.3l9.7-10c0.3-0.3 0.9-0.4 1.3 0 0.4 0.4 0.4 1 0 1.4l-9.7 9.9q-0.3 0.3-0.7 0.3z"/><path class="a2" d="m207.5 884c0 0-5.6 33.7-6.4 44.3 0 0 27.3 7.5 34.4 3.5l-0.9-40.8z"/><path class="a3" d="m238.2 852.9c0 0 9 20.8 9.6 31.8 0.7 10.9 3 18-9.6 20.2-12.7 2.2-23.3-4.1-29.1-15 0 0-9-16.8-7-23.6 2-6.9 36.1-13.4 36.1-13.4z"/><path class="a4" d="m213.4 882.1h1.6c0 0-6.6-13.5-0.8-15.9 5.8-2.4 28.7-7 33.7-15.2 4.7-7.8 0.5-17.9-5.9-20.8-0.4-0.1-0.8 0-1.1 0.4l-0.5 1c-0.3 0.7-1.3 0.6-1.6-0.1-0.2-0.7-1.1-0.9-1.5-0.3-1.5 2.5-5.6 6.4-16.6 8.4-15.6 2.9-25.9 9.2-26.2 20 0 0.7-0.7 1.1-1.3 0.7-1.1-0.7-3-1-5.4 1.1-4.3 3.6-2.6 12.9 6.8 20.6 0.5 0.3 0.5 1 0 1.4-1.7 1.1-4.3 3.7 2.3 7.2 6.7 3.6 10.7 3.2 12.2 2.8 0.4-0.1 0.7-0.4 0.7-0.9l-0.6-9.5c-0.1-0.5 0.3-0.9 0.8-0.9z"/><path class="a5" d="m213.8 884.1c0 0-3.4-13.3-9.4-9.6-6 3.7 3.1 14.9 7.9 15.4z"/><path class="n" d="m295.8 1033.7c2.9 0.8 4.3 4 2.9 6.6l-60.5 116.1c-1 2-3.3 2.9-5.4 2.3l-198-57.2c-2.5-0.7-3.9-3.2-3.2-5.7l34.1-118.1c0.7-2.4 3.2-3.8 5.7-3.2z"/><path class="c" d="m283 1020.1c2.8 0.6 4.5 3.6 3.4 6.4l-48.4 131.6c-0.9 2.4-3.5 3.7-5.9 3l-197.4-57c-2.5-0.7-4-3.2-3.4-5.7l27.3-126.7c0.6-2.7 3.3-4.3 5.9-3.7z"/><path class="a6" d="m265.8 1006.8c3.5 0.5 5.8 3.9 5 7.3l-32.9 142.1c-0.8 3.3-4.2 5.3-7.6 4.4l-194.4-56.2c-3.1-0.9-4.9-4.1-4.1-7.2l29.9-116c0.7-3 3.7-4.9 6.7-4.5z"/><path class="a7" d="m184.8 965.5l-23.9-40.2c0 0-49.9 42.8-65 102.3l26.5 16.6c10.9-19.4 29.8-45.2 62.4-78.7z"/><path class="a8" d="m132.6 1132.5c-2.5-0.1-4.9-4.7-5.9-7-2.8-5.8-7.9-13.9-10.7-17.5 0 0 3.1-1.5 8.5-0.2 5.5 1.2 10-1 10.2-4l-25.4-10.9c-0.9-2.6-4.6-17.1 13.1-48.7l-26.5-16.6c-5.6 22.3-6.4 46.9 2.1 72.4 0 0 5 29.1 15.2 35 10.1 5.9 23.5-1.5 23.5-1.5z"/><path class="a9" d="m736.6 182.4h755.3c41.7 0 76.1 32.7 78.2 74.3l55.8 1095.2c1.6 32.5-24 60-56.6 60.6l-865.8 15.7c-30.6 0.6-55.8-24.1-55.8-54.7v-1102.2c0-49.1 39.8-88.9 88.9-88.9z"/><path class="n" d="m830 1408.6q0 0 0 0l-96.8-1.3c-31.9-0.4-57.7-26.6-57.7-58.4v-146.3c0-0.5 0.4-1 1-1 0.5 0 1 0.5 1 1v146.3c0 30.7 25 56 55.7 56.4l96.9 1.3c0.5 0 1 0.4 0.9 1 0 0.5-0.4 1-1 1z"/><path class="a" d="m676.5 1158.3c-0.6 0-1-0.4-1-1v-23.7c0-0.5 0.4-1 1-1 0.5 0 1 0.5 1 1v23.7c0 0.6-0.5 1-1 1z"/><path class="aa" d="m738.9 173.6c103.1 14 457.9 57.2 751.1 34.7 13.4-1 25 9.1 25.7 22.5l58.5 1100c0.8 15.1-10.7 28-25.8 28.9-123.3 7.3-631.3 35.5-812.5 16.6-11-1.2-19.4-10.5-19.5-21.6l-6.8-1155.4c-0.1-15.7 13.7-27.8 29.3-25.7z"/><path class="c" d="m749.9 202.1c99.3 13.5 440.7 55.1 722.9 33.4 12.9-0.9 24 8.8 24.7 21.7l56.3 1058.6c0.8 14.5-10.3 26.9-24.8 27.8-118.7 7-607.6 34.2-782 15.9-10.6-1.1-18.6-10-18.7-20.7l-6.5-1111.9c-0.1-15.1 13.2-26.8 28.1-24.8z"/><path class="ab" d="m813.7 308.5l10.5 226.9c0.4 7.6 6.5 13.6 14 13.8 42 1.2 173 4.4 247 0.5 8.3-0.4 15-7.2 15.2-15.5 1.4-42.6 4.5-166.5-5.2-218.3-1.5-8.3-8.7-14.5-17.2-14.8l-248.5-8.7c-8.9-0.3-16.2 7.1-15.8 16.1z"/><g style="opacity:.6"><path class="a" d="m1440.1 328.2c2.2 0 3.9-1.8 3.9-4l-0.2-7.2c-0.1-2.2-2-4-4.2-4.1l-282.1-5c-2.2 0-3.4 1.6-2.7 3.7l4.6 12.9c0.7 2 3.1 3.7 5.3 3.7z"/></g><g style="opacity:.6"><path class="a" d="m1157.5 350.2c-2.2 0-3.4 1.7-2.7 3.7l4.6 12.9c0.7 2.1 3.1 3.8 5.3 3.8h275.4c2.2 0 3.9-1.8 3.9-4l-0.2-7.3c-0.1-2.2-2-4-4.2-4z"/></g><g style="opacity:.6"><path class="a" d="m1157.5 393.2c-2.2-0.1-3.4 1.6-2.7 3.7l4.6 12.8c0.7 2.1 3.1 3.8 5.3 3.8h275.4c2.2 0 3.9-1.8 3.9-4l-0.2-7.2c-0.1-2.2-2-4.1-4.2-4.1z"/></g><g style="opacity:.78"><path class="a" d="m1295.7 469c2.2 0 4-1.8 4-4l-0.1-7.2c0-2.2-1.9-4-4.1-4.1l-135.4-4.9c-2.2-0.1-3.7 1.6-3.3 3.8l2.2 12.5c0.4 2.2 2.5 3.9 4.7 3.9z"/></g><g style="opacity:.78"><path class="a" d="m1159.8 498.8c-2.2 0-3.6 1.7-3.2 3.9l2.7 12.4c0.4 2.2 2.6 3.9 4.8 3.8l132-4.9c2.2 0 3.9-1.9 3.8-4.1l-0.4-7.2c-0.1-2.2-2-4-4.2-4z"/></g><g style="opacity:.78"><path class="a" d="m1453.9 469c2.2 0 3.9-1.8 3.9-4l-0.1-7.2c0-2.2-1.9-4-4-4.1l-135.5-4.9c-2.2-0.1-3.6 1.6-3.3 3.8l2.2 12.5c0.4 2.2 2.5 3.9 4.7 3.9z"/></g><g style="opacity:.78"><path class="a" d="m1317.9 498.8c-2.2 0-3.6 1.7-3.1 3.9l2.6 12.4c0.4 2.2 2.6 3.9 4.8 3.8l132-4.9c2.2 0 3.9-1.9 3.8-4.1l-0.4-7.2c-0.1-2.2-2-4-4.2-4z"/></g><g style="opacity:.6"><path class="a" d="m1466.5 620.5c2.2 0 3.9-1.8 3.8-4l-0.5-7.3c-0.1-2.1-2.1-4-4.3-4l-647.9-5.1c-2.2 0-2.9 1.4-1.5 3.1l11.2 14.2c1.4 1.7 4.3 3.1 6.5 3.1z"/></g><g style="opacity:.6"><path class="a" d="m817.6 642.4c-2.2 0-2.9 1.4-1.5 3.1l11.2 14.2c1.4 1.7 4.3 3.1 6.5 3.1h632.7c2.2 0 3.9-1.8 3.8-4l-0.5-7.2c-0.1-2.2-2.1-4-4.3-4.1z"/></g><path class="n" d="m819.6 713.1c15.3-1.2 44-1.7 59.9-1.9 6.7-0.1 12.6 4.4 14.1 10.9 3.1 12.7 7.3 34.7 6.8 58-0.2 6.9-5.9 12.5-12.9 12.4l-58.4-0.6c-7.1-0.1-13.1-5.6-13.8-12.7l-5.1-54.9c-0.5-5.7 3.7-10.8 9.4-11.2z"/><g style="opacity:.6"><path class="a" d="m922.7 735.5c-2.2-0.1-3.8 1.6-3.4 3.7l2.8 19.1c0.4 2.1 2.4 3.9 4.6 3.9h151.5c2.2 0 4-1.8 3.9-4l-0.1-12.1c0-2.2-1.9-4.1-4.1-4.2z"/></g><path class="n" d="m1137.6 713.1c15.3-1.2 44.1-1.7 59.9-1.9 6.7-0.1 12.6 4.4 14.1 10.9 3.1 12.7 7.3 34.7 6.8 58-0.2 6.9-5.9 12.5-12.9 12.4l-58.3-0.6c-7.2-0.1-13.2-5.6-13.8-12.7l-5.2-54.9c-0.5-5.7 3.7-10.8 9.4-11.2z"/><g style="opacity:.6"><path class="a" d="m1240.7 735.5c-2.2-0.1-3.7 1.6-3.4 3.7l2.8 19.1c0.4 2.1 2.4 3.9 4.6 3.9h151.5c2.2 0 4-1.8 4-4l-0.2-12.1c0-2.2-1.8-4.1-4-4.2z"/></g><path class="ac" d="m848.3 843.4c38.3-1.6 121.5-6.8 161-7.1 16.7-0.1 31.4 6.1 35.3 15.1 7.6 17.4 6.6 52.2 5.3 84.3-0.4 9.6-14.7 17.2-32.1 17.1l-145.6-0.8c-17.9-0.1-32.8-7.7-34.5-17.5l-12.8-75.7c-1.3-7.8 9.2-14.8 23.4-15.4z"/><g style="opacity:.6"><path class="a" d="m844.9 976.2c-2.2-0.2-3.8 1.5-3.6 3.7l4.6 45.5c0.2 2.2 2.2 4 4.4 4h204.6c2.2 0 4-1.8 4-4l-0.3-31.9c0-2.2-1.8-4.2-4-4.3z"/></g><path class="n" d="m845.1 1074.4c14.1-1 44.9-4.1 59.5-4.3 6.2-0.1 11.6 3.7 13.1 9 2.8 10.5 2.4 31.2 1.9 50.4-0.1 5.7-5.4 10.3-11.8 10.3l-53.9-0.6c-6.6 0-12.1-4.5-12.8-10.4l-4.7-45.2c-0.5-4.7 3.4-8.8 8.7-9.2z"/><g style="opacity:.6"><path class="a" d="m846.3 1153.9c-2.2-0.2-3.9 1.4-3.9 3.6l1.9 95.9c0 2.2 1.8 4 4 4h70.6c2.2 0 4-1.8 4-4l-0.1-87.8c0-2.2-1.8-4.2-4-4.4z"/></g><path class="n" d="m950.4 1074.4c14.2-1 44.9-4.1 59.5-4.3 6.2-0.1 11.6 3.7 13.1 9 2.8 10.5 2.4 31.2 1.9 50.4-0.1 5.7-5.4 10.3-11.8 10.3l-53.9-0.6c-6.6 0-12.1-4.5-12.7-10.4l-4.7-45.2c-0.5-4.7 3.4-8.8 8.6-9.2z"/><g style="opacity:.6"><path class="a" d="m951.7 1153.9c-2.2-0.2-4 1.4-3.9 3.6l1.8 95.9c0 2.2 1.9 4 4.1 4h70.6c2.2 0 4-1.8 4-4l-0.1-87.8c0-2.2-1.8-4.2-4-4.4z"/></g><path class="a" d="m1154.1 906.5q0 0-0.1 0l-53.9-0.6c-7.1 0-13-4.9-13.7-11.3l-4.7-45.2c-0.3-2.4 0.4-4.7 2-6.6 1.8-2.1 4.6-3.5 7.5-3.7 4.6-0.3 11-0.8 17.7-1.4 14.3-1.2 32-2.7 41.9-2.9 6.7-0.1 12.5 4 14.1 9.8 2.7 10.2 2.5 29.8 1.9 50.6-0.1 6.2-5.8 11.3-12.7 11.3zm-62.7-65.4c-2.5 0.2-4.7 1.3-6.1 3-1.3 1.4-1.8 3.3-1.7 5.1l4.8 45.2c0.5 5.4 5.6 9.5 11.7 9.5l53.9 0.6q0.1 0 0.1 0c5.8 0 10.6-4.2 10.7-9.3 0.6-20.7 0.8-40.1-1.9-50.1-1.3-4.9-6.3-8.3-12.1-8.3-9.8 0.2-27.5 1.7-41.7 2.9-6.8 0.5-13.2 1.1-17.7 1.4z"/><path class="ac" d="m1097.2 846.8c11.4-0.7 35.9-3.2 47.6-3.4 5 0 9.3 2.9 10.4 7.2 2.3 8.4 2 24.9 1.6 40.3-0.1 4.5-4.3 8.2-9.5 8.2l-43-0.5c-5.3 0-9.7-3.6-10.2-8.3l-3.8-36.1c-0.4-3.8 2.7-7.1 6.9-7.4z"/><g style="opacity:.6"><path class="a" d="m1201 860.7c-2.2 0-3.6 1.7-3 3.8l5.1 19.2c0.5 2.1 2.8 3.9 5 3.9h272.1c2.2 0 3.9-1.8 3.9-4l-0.3-12.1c0-2.2-1.9-4.1-4.1-4.1z"/></g><path class="ad" d="m1099.5 853.9c4-2.3 9.2-0.9 11.4 3.1l10.7 19.1c1 1.9 3.8 1.8 4.7-0.2l26.4-58.7c1.3-2.9 5.6-1.9 5.6 1.3-0.3 17.9-5.1 52-33.7 80.6 0 0-15.8-6.2-28.6-34.1-1.8-4-0.3-8.8 3.5-11.1z"/><path class="a" d="m1154.1 1021.9q0 0-0.1 0l-53.9-0.5c-7.1-0.1-13-5-13.7-11.4l-4.7-45.2c-0.3-2.3 0.4-4.7 2-6.6 1.8-2.1 4.6-3.4 7.5-3.6 4.6-0.4 11-0.9 17.7-1.5 14.3-1.2 32-2.7 41.9-2.8 6.7-0.1 12.5 3.9 14.1 9.7 2.7 10.3 2.5 29.8 1.9 50.7-0.1 6.2-5.8 11.2-12.7 11.2zm-3.1-69.6q-0.1 0-0.2 0c-9.8 0.1-27.5 1.6-41.7 2.8-6.8 0.6-13.2 1.1-17.7 1.5-2.5 0.1-4.7 1.2-6.1 2.9-1.3 1.5-1.8 3.3-1.7 5.1l4.8 45.2c0.5 5.4 5.6 9.5 11.7 9.6l53.9 0.5q0.1 0 0.1 0c5.8 0 10.6-4.1 10.7-9.3 0.6-20.7 0.8-40.1-1.9-50-1.3-4.9-6.2-8.3-11.9-8.3z"/><path class="ac" d="m1097.2 962.3c11.4-0.8 35.9-3.3 47.6-3.4 5-0.1 9.3 2.9 10.4 7.2 2.3 8.3 2 24.9 1.6 40.2-0.1 4.6-4.3 8.3-9.5 8.2l-43-0.4c-5.3-0.1-9.7-3.7-10.2-8.4l-3.8-36.1c-0.4-3.7 2.7-7 6.9-7.3z"/><g style="opacity:.6"><path class="a" d="m1201 976.2c-2.2-0.1-3.6 1.6-3 3.8l5.1 19.1c0.5 2.2 2.8 3.9 5 3.9h272.1c2.2 0 3.9-1.8 3.9-4l-0.3-12.1c0-2.2-1.9-4-4.1-4.1z"/></g><path class="ae" d="m1099.5 969.4c4-2.4 9.2-1 11.4 3.1l10.7 19c1 1.9 3.8 1.8 4.7-0.2l26.4-58.7c1.3-2.9 5.6-1.9 5.6 1.3-0.3 18-5.1 52.1-33.7 80.6 0 0-15.8-6.1-28.6-34.1-1.8-4-0.3-8.8 3.5-11z"/><path class="a" d="m1154.1 1137.4q0 0-0.1 0l-53.9-0.6c-7.1 0-13-4.9-13.7-11.3l-4.7-45.2c-0.3-2.4 0.4-4.7 2-6.6 1.8-2.1 4.6-3.5 7.5-3.7 4.6-0.3 11-0.8 17.7-1.4 14.3-1.2 32-2.7 41.9-2.9 6.7-0.1 12.5 4 14.1 9.8 2.7 10.2 2.5 29.8 1.9 50.6-0.1 6.2-5.8 11.3-12.7 11.3zm-62.7-65.4c-2.5 0.2-4.7 1.3-6.1 3-1.3 1.4-1.8 3.3-1.7 5.1l4.8 45.2c0.5 5.4 5.6 9.5 11.7 9.5l53.9 0.6q0.1 0 0.1 0c5.8 0 10.6-4.2 10.7-9.3 0.6-20.7 0.8-40.1-1.9-50.1-1.3-4.9-6.3-8.4-12.1-8.3-9.8 0.2-27.5 1.7-41.7 2.9-6.8 0.5-13.2 1.1-17.7 1.4z"/><path class="ac" d="m1097.2 1077.7c11.4-0.7 35.9-3.2 47.6-3.4 5 0 9.3 2.9 10.4 7.2 2.3 8.4 2 24.9 1.6 40.3-0.1 4.5-4.3 8.2-9.5 8.2l-43-0.5c-5.3 0-9.7-3.6-10.2-8.3l-3.8-36.1c-0.4-3.8 2.7-7.1 6.9-7.4z"/><g style="opacity:.6"><path class="a" d="m1201 1091.6c-2.2 0-3.6 1.7-3 3.8l5.1 19.2c0.5 2.1 2.8 3.9 5 3.9h272.1c2.2 0 3.9-1.8 3.9-4l-0.3-12.1c0-2.2-1.9-4.1-4.1-4.1z"/></g><path class="af" d="m1099.5 1084.8c4-2.3 9.2-0.9 11.4 3.1l10.7 19.1c1 1.9 3.8 1.8 4.7-0.2l26.4-58.7c1.3-2.9 5.6-1.9 5.6 1.3-0.3 17.9-5.1 52-33.7 80.6 0 0-15.8-6.2-28.6-34.1-1.8-4-0.3-8.8 3.5-11.1z"/><path class="a" d="m1154.1 1252.8q0 0-0.1 0l-53.9-0.5c-7.1-0.1-13-5-13.7-11.4l-4.7-45.2c-0.3-2.3 0.4-4.7 2-6.6 1.8-2.1 4.6-3.4 7.5-3.6 4.6-0.4 11-0.9 17.7-1.5 14.3-1.2 32-2.7 41.9-2.8 6.7-0.1 12.5 3.9 14.1 9.7 2.7 10.3 2.5 29.8 1.9 50.7-0.1 6.2-5.8 11.2-12.7 11.2zm-62.7-65.3c-2.5 0.1-4.7 1.2-6.1 2.9-1.3 1.5-1.8 3.3-1.7 5.1l4.8 45.2c0.5 5.4 5.6 9.5 11.7 9.6l53.9 0.5q0.1 0 0.1 0c5.8 0 10.6-4.1 10.7-9.3 0.6-20.7 0.8-40.1-1.9-50-1.3-5-6.3-8.4-12.1-8.3-9.8 0.1-27.5 1.6-41.7 2.8-6.8 0.6-13.2 1.1-17.7 1.5z"/><path class="ac" d="m1097.2 1193.2c11.4-0.8 35.9-3.3 47.6-3.4 5-0.1 9.3 2.9 10.4 7.2 2.3 8.3 2 24.9 1.6 40.2-0.1 4.6-4.3 8.3-9.5 8.2l-43-0.4c-5.3-0.1-9.7-3.7-10.2-8.4l-3.8-36.1c-0.4-3.7 2.7-7 6.9-7.3z"/><g style="opacity:.6"><path class="a" d="m1201 1207.1c-2.2-0.1-3.6 1.6-3 3.8l5.1 19.1c0.5 2.2 2.8 3.9 5 3.9h272.1c2.2 0 3.9-1.8 3.9-4l-0.3-12.1c0-2.2-1.9-4-4.1-4.1z"/></g><path class="ag" d="m1099.5 1200.3c4-2.4 9.2-1 11.4 3.1l10.7 19c1 1.9 3.8 1.8 4.7-0.2l26.4-58.7c1.3-2.9 5.6-1.9 5.6 1.3-0.3 18-5.1 52.1-33.7 80.6 0 0-15.8-6.1-28.6-34.1-1.8-4-0.3-8.8 3.5-11z"/><path class="ah" d="m1161.1 33.1c-27.3-19-51-18.6-67.7-13.6-15.2 4.4-25.1 19.2-23.7 35l7.2 78.6 85.7 7.6c0 0 52-70.3-1.5-107.6zm-37.7 63.5c-11.8 0-21.4-9.6-21.4-21.4 0-11.8 9.6-21.4 21.4-21.4 11.8 0 21.4 9.6 21.4 21.4 0 11.8-9.6 21.4-21.4 21.4z"/><path class="n" d="m1085.5 99c-0.5 0-1-0.4-1-1l-1.1-12.5c-0.1-0.5 0.3-1 0.9-1.1 0.5 0 1 0.4 1 0.9l1.2 12.6c0 0.5-0.4 1-0.9 1q-0.1 0.1-0.1 0.1zm-2.3-24.6c-0.5 0-0.9-0.4-0.9-0.9l-0.9-9.5c-1.4-14.6 7.8-28.1 21.8-32.2 10-3 20.4-3.4 30.8-1.3 0.5 0.1 0.9 0.6 0.8 1.2-0.2 0.5-0.7 0.9-1.2 0.8-10.1-2.1-20.1-1.7-29.9 1.2-13 3.8-21.6 16.5-20.3 30.1l0.8 9.5c0.1 0.6-0.3 1.1-0.9 1.1q0 0-0.1 0z"/><path class="ai" d="m960 183.9v-39.5c0-13.7 11.3-24.6 24.9-24.1l272.5 9.3c12.1 0.4 21.9 10 22.6 22l2.3 38z"/><path class="n" d="m1061.6 134.1h-11.8c-0.5 0-0.9-0.5-0.9-1 0-0.6 0.4-1 1-1h11.7c0.5 0 1 0.4 1 1 0 0.5-0.5 1-1 1z"/><path class="n" d="m974.7 170.4c-0.5 0-1-0.4-1-1v-16c0-11.7 9.6-21.3 21.3-21.3h43.1c0.6 0 1 0.4 1 1 0 0.5-0.4 1-1 1h-43.1c-10.6 0-19.3 8.7-19.3 19.3v16c0 0.6-0.4 1-1 1z"/><path class="aj" d="m874.6 169.4h476.5c17.1 0 31.8 12.3 34.7 29.2l0.4 2.4c3.2 18.5-11 35.4-29.8 35.4h-488.9c-11.2 0-20.2-9.4-19.6-20.6l1-21.9c0.7-13.7 12-24.5 25.7-24.5z"/><path class="ak" d="m964.7 309.6c-0.8-1.4-2.2-2.3-3.8-2.4-1.6 0-3.1 0.7-4 2.1-23.4 35.1-133.6 211.8 4.1 231.2 126.9 0 24.9-193.1 3.7-230.9z"/><path class="c" d="m613.2 1346.9c0 0-75.7 109.6-155.3 78.1-63.9-25.4 21.8-27.9 91.5-53.1 5.4-2 2.9-10.2-2.8-8.7-55.1 14.9-140 32.3-158.7 5-28.3-41.2-4.7-29.7 64.5-32.4 69.2-2.7 80.2-21.3 34.2-25.9-46-4.6-114 28-133.4 8.6-19.4-19.4-34.1-61.1-43.1-78.7-9.1-17.6 79-57.5 107-36.5 28 20.9 55.3 72.4 86 78.3 30.7 6-7.3-37.6-30.1-59.7-22.7-22.2-32.9-39.5 6.9-38.8 39.7 0.8 66.6 45.6 75.4 80.6 8.8 34.9 25.2 53 22.3 35.5-3-17.5-16.5-70.5-31.1-85.1-14.6-14.5 76.9-6.5 66.7 132.8z"/><path class="n" d="m606.1 1348.8c-0.4 0.2-0.8 0.2-1.2 0-85-56.5-219.1-88.1-220.4-88.4-0.7-0.1-1-0.7-0.9-1.4 0.1-0.6 0.8-1 1.4-0.9 1.4 0.4 135.9 32 221.2 88.7 0.5 0.4 0.7 1.1 0.3 1.7q-0.1 0.2-0.4 0.3z"/><path class="n" d="m675 1402.3c0 0-161.3 26.8-201.4-70.3-32.3-78 43.1-4.5 124.9 35.4 6.4 3.1 11.4-6.2 5.3-9.9-60.2-35.9-148.1-95.8-140-135.7 12.1-60.1 22.2-29.5 83.7 29.3 61.5 58.7 87.3 52.4 52 7.9-35.2-44.5-122-76.5-121.5-110.2 0.6-33.7 24.8-82.3 32.6-105.3 7.7-23 118.1 20.6 123.5 63.2 5.5 42.6-16.6 110.5 4.4 142.7 21 32.2 27-38.5 27.1-77.5 0-39 6.6-62.8 39.9-27.1 33.3 35.7 16.8 97.7-6.5 135.4-23.3 37.6-25.2 67.4-12.3 49.9 12.9-17.5 48.1-74.8 48.4-100.1 0.4-25.3 71.5 62.3-60.1 172.3z"/><path class="n" d="m667.3 1397.7c-0.5-0.2-0.9-0.6-1-1.1-22.7-123.2-109.5-268.4-110.4-269.8-0.4-0.7-0.2-1.6 0.5-2 0.7-0.4 1.6-0.2 2 0.5 0.8 1.4 87.9 147 110.8 270.7 0.1 0.8-0.4 1.6-1.2 1.7q-0.4 0.1-0.7 0z"/><path class="al" d="m1551.2 1370.3c0 0-1.4 8.2-2 17.9-0.3 4.2 2.8 7.8 7 8.2 14.4 1.4 47.1 4 68.1 0.9 2.9-0.4 4.1-4 1.9-6-8.6-8.1-29.5-23.7-63.8-27.1z"/><path class="am" d="m1544.1 1351.8l7.3 17.8c1 2.5 3.5 4 6.1 3.7 1.8-0.1 3.9-0.5 5.9-1.1 4.1-1.3 6.5-5.6 5.2-9.7l-5.5-18.4z"/><path class="an" d="m1419.6 1384.5c0 0 14.6 12.2 20.2 27.9 1.6 4.3-1.7 8.8-6.3 8.8h-30c-4.4 0-7.7-4-7-8.3 1.9-10.8 7.4-28.4 23.1-28.4z"/><path class="ao" d="m1401.5 1368.6c0 0 3 13.1 5.2 21.7 0.4 1.5 2.1 2.4 3.6 1.9 4.6-1.7 8.3-2.4 11-2 1.2 0.1 2.3-0.9 2.3-2.1l0.3-21.7z"/><path class="ap" d="m1479.1 1075.2l88.7 270.7c0 0-17 11.1-25.1 10.6l-105.4-217.4c0 0-18.4 134-9.5 230.2l-30.2 2.3c0 0-49-245.9-11.9-330.1z"/><path class="aq" d="m1437.9 1136.7q-0.1 0-0.1 0c-0.5-0.1-0.8-0.5-0.8-1l3.5-27.3c0-0.4 0.4-0.8 0.9-0.7 0.5 0 0.8 0.5 0.8 0.9l-3.5 27.4c0 0.4-0.4 0.7-0.8 0.7z"/><path class="ar" d="m1495.7 837.1c0 0-71.9 6.4-61.7 57.6 0 0-39.7 74.8-58.3 162.8-0.6 2.9 1.3 5.7 4.2 6.2l119.7 20.5c3.3 0.5 6.5-1.5 7.3-4.8l28.6-110.5 11.2 51.4 35.4-9.2-29.9-151c0.1 0-4.1-22-56.5-23z"/><path class="as" d="m1536.1 964q-0.1 0-0.2 0c-0.5-0.1-0.8-0.6-0.7-1.1l10-45.8c0.1-0.5 0.6-0.8 1.1-0.7 0.5 0.1 0.8 0.6 0.7 1.1l-10 45.8c-0.1 0.4-0.5 0.7-0.9 0.7z"/><path class="at" d="m1528.9 1100.3c-3.8-2.1-8.2-2.6-12.4-1.6l-8.3 2.1c-1.8 0.4-3.5-0.8-3.7-2.6l-8.6-76.7c-10.8 5.1-26.4 4.5-31.5 4.1l19.9 90.4h69.4z"/><path class="au" d="m1713.3 933.9l-2.1-6.9c-1.2-4-4.2-7.3-8.1-8.9l-37.9-15.2c0 0-0.6-4.9 8-8.2 8.6-3.3 6.6-12.9 6.6-12.9 0 0-11.7 5.3-28.9 13.8-9.8 4.9-15.4 13.5-18.3 19.9l-85.9 104.8 10 6.9c13.3 9.2 31.6 4.7 39.1-9.5l46.6-89.3c23.4 7 47 8.3 70.9 5.5z"/><path class="av" d="m1519 788.2l-22.1 61.9c0 0 19.6 15.3 33.8 10.1l11.2-35.4c0 0-8.5-43.4-22.9-36.6z"/><path class="aw" d="m1585 766c0 1-21.3 60.3-21.3 60.3l-33.7-12.9 11.9-59.2c0 0 43.1-4.1 43.1 11.8z"/><path class="ax" d="m1547.8 768.6l-8.7 30.7q-0.2 0.6-0.2 1.2c0 2.5 0.7 11.1 9.4 10 8-1.1 15.3-2 19.9 0.2 2.1 1 3.1 3.4 2.3 5.6-1.9 5.3-6.5 17.4-12.1 27.3-1.1 2-3.6 2.8-5.7 1.8-6.3-2.9-19.5-9.3-28.8-16.9-1.3-1.1-1.9-2.7-1.6-4.3 1.4-7.9 5.8-31.7 6-38.6 0.2-6.4-7-11.3-10.2-13.2-1-0.6-1.7-1.6-2-2.7-1-4.2-1.9-13.5 10.1-15.6 2.5-0.4 4.1-2.8 3.6-5.3-1-4.9-0.7-12.2 8.7-14.9 9.5-2.7 15.5 3 18.6 7.4 1.2 1.8 3.5 2.4 5.5 1.5 1.1-0.5 2.5-0.5 4 0.7 1.9 1.7 4.9 1.2 6.4-1 2.8-4 7.8-8.1 16.4-5.4 15.2 4.9 14.4 22.5 8.9 32-5.6 9.5-21.8 3.2-29.4-3.1-5.8-4.8-14.7-1.9-18.6-0.3-1.2 0.6-2.2 1.6-2.5 2.9z"/><path class="ay" d="m1525.3 796.8c0 0 9-17 3-22.3-5.9-5.4-16-4.5-15.7 8.8 0.3 16.5 12.7 13.5 12.7 13.5z"/><path class="az" d="m1471.4 1026.8c-4.9 0-8.4-0.4-8.8-0.5h-0.6l-26.2-122c-0.1-0.5 0.2-1 0.7-1.1 0.5-0.1 0.9 0.2 1 0.7l25.9 120.7c3.9 0.4 24.7 1.8 35.7-6l-22.7-106 4.8-8.9c0.2-0.5 0.7-0.6 1.2-0.4 0.4 0.2 0.6 0.8 0.3 1.2l-4.4 8.3 22.8 106.5-0.5 0.4c-7.9 5.9-20.7 7.1-29.2 7.1z"/><path class="c" d="m1505.3 1431.6q-1.1 0-2.1-0.4c-2.6-1.2-3.8-4.6-2.7-7.4l108.1-274.2c1.1-2.9 4.2-4.2 6.8-3 2.6 1.2 3.8 4.6 2.7 7.4l-108.1 274.2c-0.8 2.2-2.7 3.4-4.7 3.4z"/><path class="c" d="m1627 1431.6c-2 0-3.9-1.2-4.7-3.4l-108.1-274.2c-1.1-2.8 0.1-6.2 2.7-7.4 2.6-1.2 5.6 0.1 6.8 3l108 274.2c1.2 2.8 0 6.2-2.7 7.4q-1 0.4-2 0.4z"/><path class="c" d="m1965.3 1431.6q-1 0-2-0.4c-2.6-1.2-3.8-4.6-2.7-7.4l108.1-274.2c1.1-2.9 4.1-4.2 6.7-3 2.6 1.2 3.8 4.6 2.7 7.4l-108.1 274.2c-0.8 2.2-2.7 3.4-4.7 3.4z"/><path class="c" d="m2087.1 1431.6c-2 0-3.9-1.2-4.8-3.4l-108.1-274.2c-1.1-2.8 0.1-6.2 2.7-7.4 2.7-1.2 5.7 0.1 6.8 3l108.1 274.2c1.1 2.8-0.1 6.2-2.7 7.4q-1 0.4-2 0.4z"/><path fill-rule="evenodd" class="aA" d="m1892.8 1246.8h12.8v138.2h-12.8z"/><path class="aB" d="m1955.2 1387.7h-111.9v-0.6c0-4.3 3.4-7.7 7.7-7.7h95.9c4.6 0 8.3 3.7 8.3 8.3z"/><path class="aC" d="m1971.8 1242c0 7.6-6.2 13.8-13.8 13.8h-113.2c-7.5 0-13.7-6.2-13.7-13.8v-12.4c0-7.5 6.2-13.7 13.7-13.7h113.2c7.6 0 13.8 6.2 13.8 13.7 0 0 0 12.4 0 12.4z"/><path class="aD" d="m1804.9 1154.7c0 0-19 2.9-40.4 17.2-3.3 2.3-5.2 6.2-4.7 10.2 2.6 20.2 13.1 85.8 47.8 149.8 1.8 3.4 2.3 7.3 1.5 11.1l-6 28-11.2 10.4h28.8l19.1-51.8-8.1-2.6c-6.4-2-10.8-7.8-10.9-14.5l-0.9-55.6c0.8-24.7-15.2-41.8-15.2-41.8l45.9-2.3z"/><path class="aE" d="m1780.7 1386.5c-2.6 3.4 28.2 8 43.8 0.5 0 0 21.5-37.6 21.5-56.9 0 0-1.7-4-14.3-3.1 0 0-7.3 44.5-14.9 49.5-7.7 4.9-21.4 0.5-21.4 0.5 0 0-10.8 4.4-14.7 9.5z"/><path class="aF" d="m1844.8 1215.9c-0.2-0.4-49.4-5.9-49.4-5.9 0 0 1.6 14.9-3.5 35.5-5 20.6-77.3 109.9-77.3 109.9l7.6 24c-23.4 8.1-46.5 9.5-69.1 4.1l46.9-28.1c0 0 44-149.8 70.9-176.5l49.3-17.1z"/><path class="aG" d="m1955.2 1128.8c0 0 28.3 42.1 30.7 61.4 2.3 19.2-7.8 27-37.6 28.3-29.7 1.3-109.1 1.3-109.1 1.3l-67.8-58c0 0 49.4-17.6 62.2-22.6 12.9-5 121.6-10.4 121.6-10.4z"/><path class="aH" d="m1719.4 1371.3c0 0 8.1 7.9 2.6 16.7 0 0-64.6 11.4-82.2 6.2 0 0 3.7-8.3 23.4-17.7l-1.4 1.1c-1.9 1.4-0.8 4.4 1.5 4.2 13.1-0.7 40-3.1 56.1-10.5z"/><path class="aI" d="m1897.9 891.8c4.3 1.4 19.7 6.9 17.7 16.8-0.3 1.4 1 2.5 2.3 2.1 6.6-1.8 21.3-4 30.5 7.4 8 10.1 2 19.6-2.9 24.8-1.2 1.3-0.2 3.3 1.5 3.1 12.2-1.5 38.8-1.9 43.2 23 4 23.2-12.1 29.8-21.7 31.6-1.6 0.3-2 2.5-0.6 3.3 4.8 3.1 10.3 9.3 8.1 21.7-3.5 19.4-41.6 17.8-46 17.6q-0.4-0.1-0.8-0.3l-60.9-34.7c-0.5-0.3-0.8-0.7-0.9-1.3l-12.3-71c-0.1-0.6 0.1-1.1 0.5-1.6l40.4-42c0.5-0.5 1.2-0.7 1.9-0.5z"/><path class="aJ" d="m1878.5 1123.2c0 0-33-31.5-49.3-52.3-8.8-11.3-11.5-26.1-7.5-39.8 7.5-25 20.7-50.9 21.9-54.9 1.8-6.2 38.8-5.9 38.8-5.9 0 0 72.9 47.3 101.5 127.4l-32.1 10c0 0-19.1-31.9-37.9-52.2 0 0 32.6 42.9 33.7 60.5z"/><path class="aK" d="m1839.1 941.7c0.4 1.3 10 33.3 10.8 34 0.7 0.6 21.2 1.7 30.8-4.8l-16.3-34.2z"/><path class="aL" d="m1855 874.4c0 0-17.5 7.4-29.4 32.6-11.8 25.2-3 36.8 8.2 38.4 11.1 1.6 27.7 1.4 45.3-14.9 17.6-16.3-1.5-64.8-24.1-56.1z"/><path class="aM" d="m1867.3 917c0 0 13.2-36.8-19.5-37.3l-7.7 5.4c0 0-12-20.4 7.7-30.2 19.7-9.8 42.7-1.7 51.1 24.8 8.4 26.6 9.8 44.3-4.1 57-14 12.7-19.7-1.7-19.7-1.7 0 0 7.6-11.9 4.5-18.2-3.1-6.4-10.3 1.3-10.3 1.3z"/><path class="aN" d="m1871 921.1c0 0 6.6-18.9 15.5-11.4 8.9 7.6-7.2 17.6-13.5 20.8z"/><path class="aO" d="m1811.2 1125.5l24.3-23.4 33.5 14.2c0 0 33.5 5.2 52.6 0 19.1-5.2 19.1-5.2 19.1-5.2l43.2-13.4 6.8 19.1c1.7 4.9 0 10.3-4.2 13.3-3.8 2.7-8.2 5.6-10.9 6.8-5.7 2.5-140.3-1.7-140.3-1.7z"/><path class="aP" d="m1903 1136.5q-0.1 0-0.3 0l-140.7-0.1c-3.5 0-6.3-2.8-6.3-6.3 0-3.5 2.8-6.4 6.3-6.3l140.7 0.1c3.5 0 6.3 2.9 6.3 6.3 0 3.4-2.6 6.2-6 6.3z"/><path class="aQ" d="m1635.5 1008.8h117.2c8.6 0 16.5 4.9 20.2 12.8l54.2 114.9h-145.7c-5.6 0-10.6-3.5-12.6-8.6l-42-106.3c-2.4-6.2 2.1-12.8 8.7-12.8z"/><path class="e" d="m1718.1 1067.7c2.5 7.9 0.6 15.5-4.2 17.1-4.9 1.5-10.9-3.6-13.4-11.5-2.6-7.9-0.7-15.5 4.2-17.1 4.8-1.6 10.8 3.6 13.4 11.5z"/><path class="n" d="m1620.8 1132h-138.5v-14.3h138.5c-3 0-3 14.3 0 14.3z"/><path class="aR" d="m1483.3 1132c-0.5 0-1-0.4-1-1v-12.3c0-0.5 0.5-1 1-1h140.7c0.6 0 1-0.4 1-1v-1.2c0-0.5-0.4-1-1-1h-149.6c-3.3 0-6 2.7-6 6v9.1c0 3.1 2.5 5.7 5.6 5.7h150c0.6 0 1-0.5 1-1v-1.3c0-0.5-0.4-1-1-1z"/><path class="c" d="m2099.7 1141.7c0.4-1.6-0.1-3.3-1.3-4.5-1.2-1.3-3-2-4.8-2h-633.9c-2.4 0-4.7 1.1-6 2.9-1.4 1.8-1.5 4-0.5 6l6.9 12.9c1.5 2.9 4.9 4.8 8.7 4.8h620.4c3.5 0 6.5-2.1 7.2-5.1z"/><path class="n" d="m1673.7 788.1c0 0 242.9-120 163.5-208.3-79.5-88.4-227.6-53.1-235.1 39.9-7.5 93 172.8 71.2 71.6 168.4z"/><path class="a" d="m1816.6 603.6h-107.2c-0.5 0-1-0.5-1-1 0-0.6 0.5-1 1-1h107.2c0.6 0 1 0.4 1 1 0 0.5-0.4 1-1 1z"/><path class="a" d="m1677.6 603.6h-31.8c-0.6 0-1-0.5-1-1 0-0.6 0.4-1 1-1h31.8c0.5 0 1 0.4 1 1 0 0.5-0.5 1-1 1z"/><path class="a" d="m1820.2 625.3h-40.2c-0.6 0-1-0.5-1-1 0-0.6 0.4-1 1-1h40.2c0.6 0 1 0.4 1 1 0 0.5-0.4 1-1 1z"/><path class="a" d="m1720.9 625.3h-71.5c-0.6 0-1-0.5-1-1 0-0.6 0.4-1 1-1h71.5c0.6 0 1 0.4 1 1 0 0.5-0.4 1-1 1z"/><path class="a" d="m1823.8 647h-107c-0.5 0-1-0.5-1-1 0-0.6 0.5-1 1-1h107c0.6 0 1 0.4 1 1 0 0.5-0.4 1-1 1z"/><path class="a" d="m1690 647h-37c-0.5 0-1-0.5-1-1 0-0.6 0.5-1 1-1h37c0.6 0 1 0.4 1 1 0 0.5-0.4 1-1 1z"/><path class="n" d="m1857 376.7l1.9 2.3c0.5 0.6 0.4 1.6-0.2 2.1-0.7 0.5-1.6 0.4-2.1-0.2l-1.9-2.3c-0.6-0.7-0.5-1.6 0.2-2.1 0.6-0.6 1.6-0.5 2.1 0.2z"/><path class="n" d="m1863.3 384.3l2 2.3c0.5 0.7 0.4 1.6-0.2 2.2-0.7 0.5-1.6 0.4-2.1-0.2l-1.9-2.3c-0.6-0.7-0.5-1.6 0.1-2.1 0.7-0.6 1.6-0.5 2.1 0.1z"/><path class="n" d="m1869.8 392l1.9 2.3c0.5 0.6 0.4 1.6-0.2 2.1-0.6 0.5-1.6 0.5-2.1-0.2l-1.9-2.3c-0.6-0.6-0.5-1.5 0.2-2.1 0.6-0.5 1.5-0.4 2.1 0.2z"/><path class="n" d="m1876.2 399.6l1.9 2.3c0.6 0.7 0.5 1.6-0.1 2.1-0.7 0.6-1.6 0.5-2.1-0.1l-2-2.3c-0.5-0.7-0.4-1.6 0.2-2.1 0.6-0.6 1.6-0.5 2.1 0.1z"/><path class="n" d="m1882.7 407.3l1.9 2.2c0.5 0.7 0.5 1.6-0.2 2.1-0.6 0.6-1.5 0.5-2.1-0.1l-1.9-2.3c-0.5-0.6-0.5-1.6 0.2-2.1 0.6-0.5 1.5-0.5 2.1 0.2z"/><path class="n" d="m1889.1 414.9l2 2.2c0.5 0.7 0.4 1.6-0.2 2.1-0.6 0.6-1.5 0.5-2.1-0.1l-1.9-2.3c-0.6-0.6-0.5-1.6 0.1-2.1 0.7-0.5 1.6-0.5 2.1 0.2z"/><path class="n" d="m1895.6 422.4l2 2.3c0.5 0.6 0.5 1.6-0.2 2.1-0.6 0.6-1.5 0.5-2.1-0.1l-1.9-2.3c-0.6-0.6-0.5-1.6 0.1-2.1 0.7-0.5 1.6-0.5 2.1 0.1z"/><path class="n" d="m1902.2 430l1.9 2.3c0.5 0.6 0.5 1.6-0.1 2.1-0.7 0.5-1.6 0.5-2.1-0.2l-2-2.2c-0.5-0.7-0.5-1.6 0.2-2.1 0.6-0.6 1.5-0.5 2.1 0.1z"/><path class="n" d="m1908.7 437.6l1.9 2.3c0.6 0.6 0.5 1.5-0.1 2-0.6 0.6-1.6 0.5-2.1-0.1l-2-2.3c-0.5-0.6-0.4-1.5 0.2-2.1 0.6-0.5 1.5-0.4 2.1 0.2z"/><path class="n" d="m1915.2 445.1l2 2.3c0.5 0.6 0.5 1.6-0.1 2.1-0.7 0.5-1.6 0.5-2.1-0.2l-2-2.2c-0.5-0.6-0.5-1.6 0.1-2.1 0.7-0.5 1.6-0.5 2.1 0.1z"/><path class="n" d="m1921.8 452.7l2 2.2c0.5 0.6 0.4 1.6-0.2 2.1-0.6 0.6-1.5 0.5-2.1-0.1l-1.9-2.3c-0.6-0.6-0.5-1.5 0.1-2.1 0.6-0.5 1.6-0.4 2.1 0.2z"/><path class="n" d="m1928.4 460.2l1.9 2.3c0.6 0.6 0.5 1.5-0.1 2-0.6 0.6-1.5 0.5-2.1-0.1l-2-2.3c-0.5-0.6-0.4-1.5 0.2-2 0.6-0.6 1.5-0.5 2.1 0.1z"/><path class="n" d="m1935 467.7l1.9 2.3c0.6 0.6 0.5 1.5-0.1 2-0.6 0.6-1.5 0.5-2.1-0.1l-2-2.2c-0.5-0.6-0.4-1.6 0.2-2.1 0.6-0.6 1.5-0.5 2.1 0.1z"/><path class="n" d="m1941.6 475.2l1.9 2.3c0.6 0.6 0.5 1.5-0.1 2-0.6 0.6-1.5 0.5-2.1-0.1l-1.9-2.2c-0.6-0.6-0.5-1.6 0.1-2.1 0.6-0.5 1.5-0.5 2.1 0.1z"/><path class="n" d="m1948.2 482.7l2 2.3c0.5 0.6 0.4 1.5-0.2 2-0.6 0.6-1.5 0.5-2-0.1l-2-2.2c-0.6-0.6-0.5-1.6 0.1-2.1 0.6-0.6 1.5-0.5 2.1 0.1z"/><path class="n" d="m1954.8 490.2l2 2.2c0.5 0.6 0.5 1.6-0.1 2.1-0.6 0.5-1.6 0.5-2.1-0.1l-2-2.3c-0.5-0.6-0.5-1.5 0.1-2 0.6-0.6 1.6-0.5 2.1 0.1z"/><path class="n" d="m1961.4 497.7l2 2.2c0.6 0.6 0.5 1.5-0.1 2.1-0.6 0.5-1.5 0.4-2.1-0.2l-2-2.2c-0.5-0.6-0.4-1.5 0.2-2.1 0.6-0.5 1.5-0.4 2 0.2z"/><path class="n" d="m1968.1 505.1l2 2.3c0.5 0.6 0.5 1.5-0.1 2-0.6 0.6-1.6 0.5-2.1-0.1l-2-2.2c-0.5-0.6-0.5-1.6 0.1-2.1 0.6-0.5 1.6-0.5 2.1 0.1z"/><path class="n" d="m1974.8 512.6l2 2.2c0.5 0.6 0.4 1.5-0.2 2.1-0.6 0.5-1.5 0.4-2-0.2l-2-2.2c-0.6-0.6-0.5-1.5 0.1-2 0.6-0.6 1.5-0.5 2.1 0.1z"/><path class="n" d="m1981.4 520l2 2.2c0.6 0.6 0.5 1.6-0.1 2.1-0.6 0.5-1.5 0.5-2-0.1l-2-2.2c-0.6-0.6-0.5-1.6 0.1-2.1 0.6-0.5 1.5-0.5 2 0.1z"/><path class="n" d="m1988.1 527.4l2 2.3c0.6 0.6 0.5 1.5-0.1 2-0.6 0.6-1.5 0.5-2-0.1l-2-2.2c-0.6-0.6-0.5-1.5 0.1-2.1 0.6-0.5 1.5-0.5 2 0.1z"/><path class="n" d="m1994.8 534.8l2 2.3c0.6 0.6 0.5 1.5-0.1 2-0.6 0.6-1.5 0.5-2-0.1l-2-2.2c-0.6-0.6-0.5-1.5 0.1-2.1 0.6-0.5 1.5-0.4 2 0.1z"/><path class="n" d="m2001.5 542.3l2 2.2c0.6 0.6 0.5 1.5-0.1 2-0.5 0.6-1.5 0.5-2-0.1l-2-2.2c-0.6-0.6-0.5-1.5 0.1-2 0.6-0.6 1.5-0.5 2 0.1z"/><path class="n" d="m2008.3 549.6l2 2.3c0.5 0.6 0.5 1.5-0.1 2-0.6 0.6-1.5 0.5-2.1-0.1l-2-2.2c-0.5-0.6-0.5-1.5 0.1-2 0.6-0.6 1.5-0.5 2.1 0z"/><path class="n" d="m2015 557l2 2.2c0.6 0.6 0.6 1.5 0 2.1-0.6 0.5-1.5 0.5-2.1-0.1l-2-2.2c-0.6-0.6-0.5-1.5 0-2 0.6-0.6 1.5-0.6 2.1 0z"/><path class="n" d="m2021.9 564.2l2.1 2.1c0.6 0.5 0.6 1.4 0.1 2-0.6 0.6-1.5 0.6-2.1 0l-2.1-2.1c-0.6-0.5-0.6-1.4-0.1-2 0.6-0.6 1.5-0.6 2.1 0z"/><path class="n" d="m2029.1 571l2.3 2c0.6 0.5 0.6 1.4 0.1 2-0.5 0.6-1.5 0.7-2.1 0.1l-2.2-2c-0.6-0.5-0.7-1.4-0.1-2 0.5-0.6 1.4-0.6 2-0.1z"/><path class="n" d="m2036.7 577.4l2.4 1.8c0.6 0.5 0.7 1.4 0.2 2-0.5 0.6-1.4 0.8-2 0.3l-2.4-1.9c-0.6-0.4-0.7-1.3-0.2-2 0.4-0.6 1.3-0.7 2-0.2z"/><path class="n" d="m2044.7 583l2.5 1.7c0.7 0.4 0.8 1.4 0.4 2-0.4 0.7-1.3 0.9-2 0.5l-2.5-1.6c-0.7-0.5-0.9-1.4-0.4-2.1 0.4-0.7 1.3-0.5 2-0.5z"/><path class="n" d="m2053.1 588l2.7 1.4c0.7 0.4 1 1.3 0.7 2-0.4 0.7-1.3 1-2 0.7l-2.7-1.3c-0.7-0.4-1-1.3-0.6-2.1 0.3-0.7 1.2-0.7 1.9-0.7q0 0 0 0z"/><path class="n" d="m2062.1 592l2.8 1c0.8 0.2 1.2 1.1 1 1.8-0.3 0.8-1.1 1.2-1.8 1l-2.9-0.9c-0.8-0.3-1.2-1.2-0.9-1.9 0.2-0.8 1-1 1.8-1q0 0 0 0z"/><path class="n" d="m2071.5 594l3 0.5c0.7 0.1 1.3 0.9 1.2 1.7 0 0.8-0.7 1.4-1.5 1.4l-3-0.3c-0.8-0.1-1.4-1-1.3-1.8 0.1-0.8 0.8-1.5 1.6-1.5z"/><path class="n" d="m2081 595l3-0.8c0.8-0.1 1.5 0.3 1.7 1.1 0.1 0.7-0.4 1.4-1.2 1.6l-2.9 0.5c-0.8 0.1-1.6-0.2-1.7-0.9-0.1-0.8 0.4-1.5 1.1-1.5q0 0 0 0z"/><path class="n" d="m2090.1 591.8l2.6-1.5c0.7-0.4 1.6-0.2 2 0.5 0.4 0.7 0.1 1.6-0.6 2l-2.6 1.4c-0.7 0.4-1.5 0.2-1.9-0.5-0.4-0.7-0.2-1.5 0.5-1.9z"/><path class="n" d="m2097.8 586.1l1.9-2.2c0.6-0.6 1.5-0.7 2.1-0.1 0.5 0.5 0.6 1.4 0.1 2l-2 2.2c-0.5 0.6-1.4 0.7-2 0.1-0.6-0.5-0.7-1.4-0.1-2z"/><path class="n" d="m2103.4 578.4l1.3-2.7c0.3-0.7 1.1-1 1.8-0.7 0.8 0.3 1.1 1.2 0.7 1.9l-1.3 2.7c-0.3 0.7-1.2 1-1.9 0.7-0.7-0.4-1-1.2-0.6-1.9z"/><path class="n" d="m2106.8 569.4l0.6-3c0.2-0.7 0.9-1.2 1.7-1.1 0.7 0.2 1.2 0.9 1.1 1.7l-0.6 2.9c-0.2 0.8-1 1.3-1.7 1.1-0.8-0.1-1.3-0.9-1.1-1.6z"/><path class="n" d="m2108 559.8v-3c0-0.8 0.6-1.5 1.4-1.5 0.7 0 1.4 0.6 1.4 1.4l0.1 3c0 0.8-0.6 1.5-1.4 1.5-0.8 0-1.5-0.6-1.5-1.4z"/><path class="n" d="m2107 550.2l-0.8-2.9c-0.2-0.7 0.2-1.5 1-1.7 0.7-0.2 1.5 0.2 1.7 1l0.9 2.8c0.2 0.8-0.3 1.6-1 1.8-0.8 0.2-1.8-0.2-1.8-1z"/><path class="n" d="m2103.5 541.4l-1.6-2.5c-0.5-0.7-0.3-1.5 0.3-2 0.7-0.4 1.6-0.2 2 0.4l1.7 2.5c0.4 0.6 0.2 1.5-0.4 1.9-0.6 0.5-1.5 0.3-2-0.3z"/><path class="n" d="m2097.3 534.4l-2.5-1.7c-0.6-0.4-0.8-1.3-0.4-1.9 0.4-0.7 1.3-0.9 1.9-0.5l2.6 1.7c0.6 0.4 0.8 1.3 0.4 1.9-0.4 0.7-1.3 0.9-2 0.5z"/><path class="n" d="m2088.8 530l-2.9-0.3c-0.8-0.2-1.3-0.8-1.2-1.6 0.2-0.7 0.9-1.2 1.7-1l2.9 0.5c0.8 0.1 1.3 0.7 1.2 1.4-0.2 0.8-0.9 2-1.7 1z"/><path class="n" d="m2079.3 530l-3 0.3c-0.7 0.1-1.4-0.5-1.5-1.3-0.1-0.8 0.4-1.5 1.2-1.6l3-0.4c0.7-0.1 1.4 0.6 1.5 1.3 0.1 0.8-0.4 1.7-1.2 1.7z"/><path class="n" d="m2069.9 531.8l-2.8 1.1c-0.7 0.3-1.5-0.1-1.8-0.8-0.3-0.7 0-1.5 0.8-1.8l2.8-1.1c0.7-0.3 1.5 0.1 1.8 0.8 0.3 0.7-0.1 1.5-0.8 1.8z"/><path class="n" d="m2061.3 536l-2.5 1.8c-0.6 0.4-1.5 0.3-1.9-0.3-0.5-0.7-0.3-1.5 0.3-2l2.4-1.7c0.7-0.5 1.5-0.4 2 0.3 0.4 0.6 0.3 1.9-0.3 1.9z"/><path class="n" d="m2053.9 542l-2 2.4c-0.5 0.6-1.4 0.7-2 0.2-0.6-0.5-0.6-1.4-0.1-2l2-2.2c0.5-0.6 1.4-0.8 2-0.2 0.5 0.5 0.6 1.8 0.1 1.8q0 0 0 0z"/><path class="n" d="m2047.9 550l-1.6 2.5c-0.4 0.7-1.3 0.9-1.9 0.5-0.7-0.4-0.9-1.3-0.5-1.9l1.6-2.6c0.4-0.7 1.3-0.9 1.9-0.5 0.7 0.4 0.9 1.3 0.5 2z"/><path class="n" d="m2043.2 558.6l-1.2 2.7c-0.3 0.7-1.1 1-1.8 0.7-0.7-0.3-1.1-1.1-0.8-1.8l1.2-2.8c0.3-0.7 1.2-1 1.9-0.7 0.7 0.3 1 1.1 0.7 1.9z"/><path class="n" d="m2039.7 567.7l-0.9 2.9c-0.2 0.7-1 1.1-1.8 0.9-0.7-0.2-1.1-1-0.9-1.7l0.9-2.9c0.2-0.7 1-1.1 1.7-0.9 0.8 0.2 1.2 1 1 1.7z"/><path class="n" d="m2037.1 577.3l-0.6 2.9c-0.2 0.7-0.9 1.2-1.7 1.1-0.7-0.2-1.2-0.9-1.1-1.7l0.7-2.9c0.1-0.8 0.9-1.2 1.6-1.1 0.8 0.2 1.2 0.9 1.1 1.7z"/><path class="n" d="m2035.3 587l-0.4 3c-0.1 0.7-0.8 1.3-1.5 1.2-0.8-0.1-1.3-0.8-1.2-1.6l0.4-3c0.1-0.7 0.8-1.3 1.5-1.2 0.8 0.1 1.3 0.8 1.2 1.6z"/><path class="n" d="m2034.3 596.8l-0.2 3c-0.1 0.8-0.7 1.4-1.5 1.3-0.8 0-1.3-0.7-1.3-1.5l0.2-2.9c0.1-0.8 0.7-1.4 1.5-1.3 0.7 0 1.3 0.7 1.3 1.4z"/><path class="n" d="m2033.8 606.7v3c0 0.8-0.6 1.4-1.4 1.4-0.8 0-1.4-0.6-1.4-1.4l0.1-3c0-0.8 0.6-1.4 1.4-1.4 0.7 0 1.3 0.7 1.3 1.4z"/><path class="n" d="m2033.9 616.7l0.2 3c0 0.7-0.6 1.4-1.4 1.4-0.7 0-1.4-0.6-1.4-1.3l-0.1-3c-0.1-0.8 0.5-1.4 1.3-1.5 0.7 0 1.4 0.6 1.4 1.4z"/><path class="n" d="m2034.5 626.6l0.3 3c0 0.7-0.5 1.4-1.3 1.5-0.7 0-1.4-0.5-1.5-1.3l-0.2-3c-0.1-0.7 0.5-1.4 1.2-1.5 0.8 0 1.4 0.5 1.5 1.3z"/><path class="n" d="m2035.5 636.5l0.4 2.9c0.1 0.8-0.4 1.5-1.2 1.6-0.7 0.1-1.4-0.5-1.5-1.2l-0.4-3c-0.1-0.7 0.4-1.4 1.2-1.5 0.7-0.1 1.4 0.4 1.5 1.2z"/><path class="n" d="m2037 646.3l0.5 3c0.1 0.7-0.4 1.4-1.2 1.5-0.7 0.2-1.4-0.3-1.5-1.1l-0.6-2.9c-0.1-0.8 0.4-1.5 1.2-1.6 0.7-0.2 1.4 0.3 1.6 1.1z"/><path class="n" d="m2038.8 656.1l0.6 2.9c0.1 0.8-0.3 1.5-1.1 1.6-0.7 0.2-1.5-0.3-1.6-1l-0.6-3c-0.2-0.7 0.3-1.4 1-1.6 0.8-0.1 1.5 0.3 1.7 1.1z"/><path class="n" d="m2040.9 665.8l0.7 2.9c0.2 0.7-0.2 1.5-1 1.7-0.7 0.1-1.4-0.3-1.6-1l-0.7-3c-0.2-0.7 0.2-1.4 1-1.6 0.7-0.2 1.4 0.3 1.6 1z"/><path class="n" d="m2043.4 675.4l0.8 2.9c0.2 0.7-0.2 1.5-0.9 1.7-0.7 0.2-1.5-0.2-1.7-1l-0.8-2.8c-0.2-0.8 0.2-1.5 0.9-1.7 0.8-0.2 1.5 0.2 1.7 0.9z"/><path class="n" d="m2046.2 685l0.9 2.8c0.3 0.7-0.1 1.5-0.9 1.7-0.7 0.3-1.4-0.1-1.7-0.8l-0.9-2.9c-0.2-0.7 0.2-1.5 0.9-1.7 0.7-0.3 1.5 0.1 1.7 0.9z"/><path class="n" d="m2049.3 694.4l1 2.8c0.3 0.8-0.1 1.5-0.8 1.8-0.7 0.2-1.5-0.1-1.7-0.8l-1-2.9c-0.3-0.7 0.1-1.5 0.8-1.7 0.7-0.3 1.5 0.1 1.7 0.8z"/><path class="n" d="m2052.8 703.8l1 2.8c0.3 0.7 0 1.5-0.7 1.7-0.7 0.3-1.5 0-1.8-0.7l-1.1-2.8c-0.3-0.7 0.1-1.5 0.8-1.8 0.7-0.3 1.5 0.1 1.8 0.8z"/><path class="n" d="m2056.4 713l1.2 2.8c0.3 0.7 0 1.5-0.7 1.8-0.7 0.3-1.5-0.1-1.8-0.8l-1.2-2.7c-0.3-0.7 0.1-1.5 0.8-1.8 0.7-0.3 1.5 0 1.7 0.7z"/><path class="n" d="m2060.4 722.1l1.3 2.8c0.3 0.7 0 1.5-0.7 1.8-0.7 0.3-1.5 0-1.8-0.7l-1.3-2.7c-0.3-0.7 0-1.5 0.7-1.8 0.7-0.3 1.5 0 1.8 0.6z"/><path class="n" d="m2064.6 731.2l1.4 2.6c0.3 0.7 0 1.5-0.6 1.9-0.7 0.3-1.5 0-1.9-0.6l-1.3-2.7c-0.3-0.7 0-1.5 0.6-1.9 0.7-0.3 1.5 0 1.8 0.7z"/><path class="n" d="m2069.1 740l1.4 2.7c0.4 0.7 0.1 1.5-0.5 1.8-0.7 0.4-1.5 0.1-1.9-0.5l-1.4-2.7c-0.3-0.6-0.1-1.5 0.6-1.8 0.7-0.4 1.5-0.1 1.8 0.5z"/><path class="n" d="m2073.9 748.8l1.5 2.6c0.3 0.7 0.1 1.5-0.6 1.9-0.6 0.3-1.4 0.1-1.8-0.6l-1.5-2.6c-0.3-0.6-0.1-1.4 0.5-1.8 0.7-0.4 1.5-0.1 1.9 0.5z"/><path class="n" d="m2078.9 757.4l1.5 2.6c0.4 0.6 0.2 1.5-0.4 1.8-0.7 0.4-1.5 0.2-1.9-0.4l-1.5-2.6c-0.4-0.6-0.2-1.4 0.4-1.8 0.7-0.4 1.5-0.2 1.9 0.4z"/><path class="n" d="m2084.1 765.9l1.6 2.5c0.4 0.6 0.3 1.5-0.4 1.9-0.6 0.4-1.4 0.2-1.8-0.4l-1.7-2.6c-0.4-0.6-0.2-1.4 0.4-1.8 0.7-0.4 1.5-0.2 1.9 0.4z"/><path class="n" d="m2089.6 774.2l1.7 2.5c0.4 0.6 0.2 1.4-0.4 1.9-0.6 0.4-1.4 0.2-1.8-0.4l-1.7-2.5c-0.5-0.6-0.3-1.4 0.3-1.8 0.6-0.5 1.5-0.3 1.9 0.3z"/><path class="n" d="m2095.3 782.4l1.7 2.4c0.5 0.6 0.4 1.4-0.2 1.9-0.6 0.4-1.5 0.3-1.9-0.3l-1.8-2.4c-0.4-0.7-0.3-1.5 0.3-1.9 0.6-0.5 1.4-0.3 1.9 0.3z"/><path class="n" d="m2101.2 790.4l1.9 2.3c0.4 0.6 0.3 1.5-0.3 1.9-0.6 0.5-1.4 0.4-1.9-0.2l-1.8-2.4c-0.5-0.6-0.3-1.4 0.2-1.9 0.6-0.4 1.5-0.3 1.9 0.3z"/><path class="n" d="m2107.4 798.2l1.9 2.3c0.4 0.6 0.4 1.4-0.2 1.9-0.6 0.5-1.4 0.4-1.9-0.2l-1.9-2.3c-0.5-0.6-0.4-1.4 0.2-1.9 0.6-0.5 1.4-0.4 1.9 0.2z"/><path class="n" d="m2113.8 805.9l1.9 2.3c0.5 0.5 0.4 1.4-0.2 1.9-0.5 0.4-1.4 0.4-1.9-0.2l-1.9-2.3c-0.5-0.6-0.4-1.4 0.2-1.9 0.5-0.5 1.4-0.4 1.9 0.2z"/><path class="n" d="m2120.2 813.6l1.9 2.3c0.5 0.5 0.4 1.4-0.2 1.9-0.6 0.4-1.4 0.3-1.9-0.2l-1.9-2.3c-0.4-0.6-0.4-1.4 0.2-1.9 0.6-0.5 1.4-0.4 1.9 0.2z"/><path class="n" d="m2126.5 821.3l1.9 2.4c0.5 0.5 0.4 1.4-0.2 1.8-0.6 0.5-1.4 0.4-1.9-0.2l-1.9-2.3c-0.4-0.6-0.3-1.4 0.2-1.9 0.6-0.4 1.5-0.4 1.9 0.2z"/><path class="n" d="m2132.8 829.1l1.8 2.4c0.5 0.6 0.4 1.4-0.2 1.9-0.6 0.4-1.4 0.3-1.9-0.2l-1.8-2.4c-0.5-0.6-0.4-1.4 0.2-1.9 0.6-0.4 1.4-0.3 1.9 0.2z"/><path class="n" d="m2138.9 837.1l1.8 2.3c0.5 0.6 0.4 1.5-0.2 1.9-0.6 0.4-1.4 0.3-1.9-0.3l-1.8-2.3c-0.4-0.6-0.3-1.4 0.3-1.9 0.5-0.4 1.4-0.3 1.8 0.3z"/><path class="n" d="m2145 845l1.8 2.4c0.4 0.6 0.3 1.4-0.3 1.9-0.6 0.4-1.4 0.3-1.8-0.3l-1.8-2.4c-0.5-0.6-0.4-1.4 0.2-1.8 0.6-0.5 1.4-0.4 1.9 0.2z"/><path class="n" d="m2150.9 853.1l1.8 2.4c0.4 0.6 0.3 1.4-0.3 1.9-0.6 0.4-1.4 0.3-1.8-0.3l-1.8-2.5c-0.4-0.6-0.3-1.4 0.3-1.8 0.6-0.4 1.4-0.3 1.8 0.3z"/><path class="n" d="m2156.8 861.2l1.7 2.4c0.5 0.6 0.3 1.5-0.3 1.9-0.6 0.4-1.4 0.3-1.8-0.3l-1.8-2.5c-0.4-0.6-0.2-1.4 0.4-1.8 0.6-0.4 1.4-0.3 1.8 0.3z"/><path class="n" d="m2162.6 869.4l1.7 2.5c0.4 0.6 0.2 1.4-0.4 1.8-0.6 0.4-1.4 0.3-1.8-0.3l-1.7-2.5c-0.4-0.6-0.3-1.4 0.3-1.8 0.6-0.5 1.4-0.3 1.9 0.3z"/><path class="n" d="m2168.2 877.7l1.7 2.5c0.4 0.6 0.2 1.4-0.4 1.8-0.6 0.4-1.4 0.2-1.8-0.4l-1.7-2.5c-0.4-0.6-0.2-1.4 0.4-1.8 0.6-0.4 1.4-0.2 1.8 0.4z"/><path class="n" d="m2173.7 886l1.7 2.5c0.4 0.7 0.2 1.5-0.4 1.9-0.6 0.4-1.4 0.2-1.8-0.4l-1.7-2.5c-0.4-0.6-0.2-1.5 0.4-1.9 0.6-0.4 1.4-0.2 1.8 0.4z"/><path class="n" d="m2179.2 894.5l1.6 2.5c0.3 0.6 0.2 1.4-0.5 1.8-0.6 0.4-1.4 0.2-1.8-0.4l-1.6-2.5c-0.4-0.7-0.2-1.5 0.4-1.9 0.7-0.3 1.5-0.2 1.9 0.5z"/><path class="n" d="m2184.5 903l1.5 2.5c0.4 0.6 0.2 1.5-0.4 1.8-0.6 0.4-1.4 0.2-1.8-0.4l-1.6-2.6c-0.4-0.6-0.2-1.4 0.4-1.8 0.7-0.3 1.5-0.2 1.9 0.5z"/><path class="n" d="m2189.6 911.6l1.5 2.5c0.4 0.7 0.2 1.5-0.4 1.8-0.7 0.4-1.5 0.2-1.8-0.4l-1.5-2.6c-0.4-0.6-0.2-1.4 0.4-1.8 0.6-0.4 1.5-0.2 1.8 0.5z"/><path class="n" d="m2194.6 920.2l1.5 2.6c0.4 0.7 0.2 1.5-0.5 1.8-0.6 0.4-1.4 0.1-1.7-0.5l-1.5-2.6c-0.4-0.6-0.2-1.4 0.5-1.8 0.6-0.3 1.4-0.1 1.7 0.5z"/><path class="n" d="m2199.5 929l1.5 2.6c0.3 0.6 0.1 1.4-0.6 1.8-0.6 0.3-1.4 0.1-1.7-0.5l-1.5-2.7c-0.3-0.6-0.1-1.4 0.6-1.7 0.6-0.4 1.4-0.2 1.7 0.5z"/><path class="n" d="m2204.3 937.8l1.4 2.7c0.3 0.6 0 1.4-0.6 1.7-0.6 0.4-1.4 0.1-1.7-0.5l-1.4-2.7c-0.4-0.6-0.1-1.4 0.5-1.7 0.7-0.4 1.4-0.1 1.8 0.5z"/><path class="n" d="m2208.8 946.7l1.4 2.7c0.3 0.7 0 1.4-0.6 1.8-0.6 0.3-1.4 0-1.7-0.6l-1.4-2.7c-0.3-0.6 0-1.4 0.6-1.7 0.6-0.4 1.4-0.1 1.7 0.5z"/><path class="n" d="m2213.3 955.7l1.2 2.8c0.3 0.6 0.1 1.4-0.6 1.7-0.6 0.3-1.4 0-1.7-0.6l-1.3-2.7c-0.3-0.7 0-1.5 0.6-1.8 0.7-0.3 1.4 0 1.8 0.6z"/><path class="n" d="m2217.5 964.8l1.2 2.8c0.3 0.6 0 1.4-0.7 1.7-0.6 0.3-1.4 0-1.7-0.7l-1.2-2.7c-0.3-0.6 0-1.4 0.7-1.7 0.6-0.3 1.4 0 1.7 0.6z"/><path class="n" d="m2221.5 974l1.1 2.8c0.3 0.7 0 1.4-0.7 1.7-0.6 0.3-1.4 0-1.7-0.7l-1.1-2.8c-0.3-0.6 0-1.4 0.7-1.6 0.6-0.3 1.4 0 1.7 0.6z"/><path class="n" d="m2225.2 983.4l1.1 2.8c0.3 0.6-0.1 1.4-0.7 1.6-0.7 0.3-1.5 0-1.7-0.7l-1.1-2.8c-0.2-0.7 0.1-1.4 0.8-1.7 0.6-0.2 1.4 0.1 1.6 0.8z"/><path class="n" d="m2228.7 992.8l1 2.8c0.2 0.7-0.2 1.4-0.8 1.7-0.7 0.2-1.4-0.2-1.7-0.8l-0.9-2.9c-0.3-0.7 0.1-1.4 0.8-1.6 0.6-0.2 1.4 0.1 1.6 0.8z"/><path fill-rule="evenodd" class="e" d="m1868.7 321.7l-16.5 40.6-20.4-28.6z"/><path class="n" d="m1695.6 224.2l70.6 140.7c1.3 2.7 3.7 4.8 6.6 5.6 2.9 0.9 6 0.6 8.6-0.8l138.7-76.2c1.6-0.9 2.5-2.6 2.3-4.4-0.2-1.8-1.5-3.3-3.3-3.8z"/><path fill-rule="evenodd" class="e" d="m1868.7 321.7l-173.1-97.5 150.8 109.9-4.1 11.4z"/><path fill-rule="evenodd" class="e" d="m1833.1 341.3l19.1 21-5.8-28.2z"/></svg>